<svg viewBox="0 0 200 200" xmlns="http://www.w3.org/2000/svg">
  <path d="M62.4 111.5c0 20.7 17 37.5 37.6 37.5 20.7 0 37.6-16.8 37.6-37.5S120.6 74 100 74c-20.7 0-37.6 16.8-37.6 37.5zM181 48h-40.5c-3-11.5-5.8-23-17.4-23H77c-11.7 0-14.6 11.5-17.5 23H19c-6.3 0-11.5 5.3-11.5 11.6v104c0 6.2 5.2 11.4 11.6 11.4h162c6.5 0 11.7-5.2 11.7-11.5v-104c0-6.2-5.2-11.4-11.6-11.4zm-81 114.7c-28.3 0-51.3-23-51.3-51.2 0-28.2 23-51.2 51.3-51.2 28.3 0 51.3 23 51.3 51.2 0 28.3-23 51.2-51.3 51.2zm72.6-84.3c5 0 9-4 9-9s-4-9-9-9-9 4-9 9 4 9 9 9z" fill-rule="evenodd"/>
</svg>
