<svg viewBox="0 0 26 26" xmlns="http://www.w3.org/2000/svg">
  <path d="M6.667 19H12v1.333H6.667V19zm6.666-8H6.667v1.333h6.666V11zM16 15v-2.667l-4 4 4 4v-2.666h6.667V15H16zm-6-1.333H6.667V15H10v-1.333zm-3.333 4H10v-1.334H6.667v1.334zm12 1.333H20v2.667c-.02.375-.146.687-.396.937s-.562.375-.937.396H5.333C4.603 23 4 22.396 4 21.667V7c0-.73.604-1.333 1.333-1.333h4C9.333 4.187 10.52 3 12 3c1.48 0 2.667 1.188 2.667 2.667h4C19.397 5.667 20 6.27 20 7v6.667h-1.333v-4H5.333v12h13.334V19zm-12-10.667h10.666C17.333 7.603 16.73 7 16 7h-1.333c-.73 0-1.334-.604-1.334-1.333 0-.73-.604-1.334-1.333-1.334-.73 0-1.333.604-1.333 1.334 0 .73-.604 1.333-1.334 1.333H8c-.73 0-1.333.604-1.333 1.333z" fill-rule="evenodd"/>
</svg>
