<svg viewBox="0 0 26 26" xmlns="http://www.w3.org/2000/svg">
  <path d="M21.762 12.406c.363 0 .66.115.89.346.232.23.348.53.348.892v7.128c0 .363-.116.66-.347.89-.23.232-.528.348-.89.348H4.237c-.363 0-.66-.116-.89-.347-.232-.23-.348-.528-.348-.89v-7.13c0-.362.116-.66.347-.89.23-.232.528-.347.89-.347h4.456c.627 0 1.023.28 1.188.842.232.693.628 1.245 1.19 1.658.56.412 1.204.62 1.93.62s1.37-.208 1.93-.62c.562-.413.958-.965 1.19-1.658.164-.562.56-.842 1.187-.842h4.455zm-9.01.644L9.287 8.198c-.066-.165-.082-.28-.05-.347.067-.098.166-.147.298-.147h1.633V3.347c0-.23.116-.347.347-.347h2.97c.23 0 .347.116.347.347v4.356h1.633c.132 0 .23.05.297.148.033.067.017.183-.05.348l-3.415 4.852c-.066.1-.165.148-.297.148-.132 0-.215-.05-.248-.148z" fill="#000" fill-rule="evenodd"/>
</svg>
