<svg viewBox="0 0 200 200" xmlns="http://www.w3.org/2000/svg">
  <path d="M100 175c41.4 0 75-33.6 75-75s-33.6-75-75-75-75 33.6-75 75 33.6 75 75 75zm0-9.4c-8.8 0-17.6-2-25.4-5.6-8-3.7-15.2-9-20.8-15.2-5.7-6.2-10.2-13.8-13-22-2.8-8-4-16.6-3-24.7 0-2.5 2.6-5 5.5-5h.5c2.8.5 5 2.7 5.2 5 1.3 14 7.2 26.6 16.6 35.7 9.3 9 21.7 14.4 34 14.4h.8c12.3 0 24.7-5.3 34-14.4 9.5-9.2 15.3-21.7 16.6-35.3.3-3 2.7-5 5.7-5h.5c2.7.2 5 2.4 5 5 1 8.2-.2 16.8-3 25-2.8 8-7.3 15.6-13 21.8-5.6 6.3-12.7 11.6-20.7 15.3-8 3.6-16.7 5.5-25.5 5.6zM84.8 74.2c-2 0-3.5-1.6-3.5-3.5 0-5.8-4.8-10.5-10.6-10.5S60.2 65 60.2 70.7c0 2-1.6 3.5-3.6 3.5S53 72.6 53 70.7C53 61 61 53 70.8 53s17.6 8 17.6 17.7c0 2-1.6 3.5-3.5 3.5zm58.6 0c-2 0-3.6-1.6-3.6-3.5 0-5.8-4.7-10.5-10.5-10.5s-10.6 4.7-10.6 10.5c0 2-1.5 3.5-3.5 3.5s-3.5-1.6-3.5-3.5c0-9.7 8-17.6 17.6-17.6 9.7 0 17.7 8 17.7 18 0 2-1.8 3.6-3.7 3.6z" fill-rule="evenodd"/>
</svg>
