<svg viewBox="0 0 100 100" xmlns="http://www.w3.org/2000/svg">
  <path d="M50 63.7c7.6 0 13.7-6 13.7-13.7 0-7.6-6-13.7-13.7-13.7-7.6 0-13.7 6-13.7 13.7 0 7.6 6 13.7 13.7 13.7zm5.6-16.3c1.6 0 3-1.3 3-3 0-1.6-1.4-3-3-3-1.7 0-3 1.4-3 3 0 1.7 1.3 3 3 3zm-42.2 2h18v1h-18v-1zM16 36.3L33 42.6l-.4 1-16.7-6.4.4-1zm7.4-11.4l13.3 12-.7.8-13.3-12 .7-.8zm11-8l7.8 16-1 .5-7.8-16 1-.5zm13-3.5L49 31l-1 .2-1.6-17.8h1zM61 14.7L56 32l-1-.4 5-17.2 1 .3zM73 21L62 35l-.7-.6L72 20.3l1 .6zm9 10l-15.3 9.5-.6-1 15.3-9.4.6 1zm4.6 12.7L69 47l-.2-1 17.6-3.4.2 1zm-.2 13.6L68.8 54l.2-1 17.6 3.3-.2 1zm-5 12.6L66 60.3l.7-1L82 69l-.7 1zM72 79.6L61.3 65.4l.8-.6L73 79l-1 .7zm-12 6l-5-17.3 1-.3 5 17.3-1 .3zm-13.6 1l1.6-18 1 .2-1.6 17.7h-1zm-13-4l8-16 .8.5-7.8 16-1-.4zm-10.7-8.3l13.3-12 .7.8-13.3 12-.7-.8zM50 100c27.6 0 50-22.4 50-50S77.6 0 50 0 0 22.4 0 50s22.4 50 50 50zm0-3.2c26 0 46.8-21 46.8-46.8 0-26-21-46.8-46.8-46.8-26 0-46.8 21-46.8 46.8 0 26 21 46.8 46.8 46.8z" fill-rule="evenodd"/>
</svg>
