<svg viewBox="0 0 815 300" xmlns="http://www.w3.org/2000/svg">
  <g fill="none" fill-rule="evenodd">
    <path d="M64.406 40C57.32 40 48.13 47.52 42.71 52.527 30.795 63.114 20 82.577 20 98.2c0 22.2 18.867 30.582 23.638 30.582 1.573 0 2.914-.813 2.914-2.95 0-1.674-1.062-3.067-2.117-4.5-4.37-6.684-5.773-13.062-5.773-21.667 0-17.94 8.267-34.383 15.126-41.906 1.264-1.363 4.122-4.305 4.976-4.305.848 0 1.06.69 1.06 2.83L59.025 173.7c0 18.355-5.293 25.648-5.293 29.97 0 1.898.82 2.39 2.39 2.39 7.428 0 14.83-9.058 16.927-12.362 6.502-11.24 8.097-20.015 8.097-45.325V49.71c0-2.672-.748-3.825-3.284-5.472C74.157 41.88 69.91 40 64.406 40zm212.363.328c-3.494 0-4.988 1.826-5.152 7.48l-.775 23.417-20.462-.71c-1.24-.032-1.803.36-2.346 1.453-1.738 3.26-2.652 5.816-2.652 10.07 0 3.464 1.57 3.833 2.97 3.833l21.29.612-.065 44.735c0 9.488-5.982 21.797-16.6 32.033 0 0 .913-3.09.863-6.334 0-9.18-5.904-17.497-13.773-23.383l-19.207-14.46c4.026-4.662 10.848-13.907 10.848-21.713 0-6.052-3.803-8.595-10.892-8.595-10.006 0-21.608 9.17-21.608 22.772 0 4.957 2.204 9.42 5.555 12.832-4.626 8.784-11.173 20.342-16.032 28.57-3.67 6.303-9.88 15.957-13.553 15.957-2.71 0-3.962-4.266-3.962-20.653 0-13.615.967-28.417 1.452-42.627 0-3.257-.535-6.262-4.76-9.207-3.885-2.492-8.685-5.974-13.63-5.974-10.99 0-18.48 10.122-23.616 20.02-5.313 10.256-8.188 18.9-12.243 31.443l.447-43.164c.138-3.077-.638-4.272-3.1-5.318-3.192-1.356-7.89-2.917-12.06-2.917-3.482 0-3.906 1.503-3.906 5.167l-.47 51.79-.053 19.976c0 18.01 2.253 21.013 12.932 21.013 5.912 0 7.807-.694 7.923-5.613.162-3.254 1.717-11.134 3.82-19.037 6.15-23.328 13.44-41.78 26.006-55.842 1.31-1.364 2.324-.876 2.118 1.06 0 0-1.987 31.57-1.987 44.483 0 22.967 3.532 34.95 14.952 34.95 11.206 0 22.212-14.41 28.22-24.137l19.273-32.263c12.49 10.65 21.205 18.908 21.205 28.953 0 6.244-3.937 12.353-9.93 12.353-7.495 0-12.282-7.907-17.342-7.907-4.202 0-9.593 8.116-9.593 12.723 0 4.35 9.486 10.506 26.508 10.506 25.13 0 38.608-17.258 46.7-36.37 1.548 22.683 10.58 35.933 24.664 35.933 9.24 0 19.916-11.683 24.773-25.95 0 0 .48 3.703 4.17 11.292 5.076 9.91 12.795 14.46 22.382 14.46 11.924 0 22.124-7.234 28.352-19.375.944 9.2 8.662 19.332 21.073 19.332 7.792 0 14.895-5.976 19.557-15.816 0 0 6.04 16.252 23.508 16.252 9.81 0 21.43-9.095 24.205-15.706l.306 9.61-25.918 23.92c-7.525 7.31-15.53 17.816-15.53 29.444 0 14.79 13.955 23.296 26.236 23.296 12.765 0 21.235-8.093 25.875-14.875 5.84-8.775 8.305-25.315 8.305-41.48l-.578-24.312c17.468-19.216 31.138-45.776 37.225-64.568l13.26-.35c2.568-.172 2.44.84 2.084 2.337-2.33 9.855-4.366 21.016-4.366 32.132 0 18.363 4.227 26.354 10.302 32.885 5.28 5.47 10.536 7.316 16.065 7.316 10.813 0 17.6-8.936 19.754-14.57 5.077 9.91 12.556 14.526 22.143 14.526 11.925 0 22.125-7.234 28.353-19.375.944 9.2 8.66 19.332 21.073 19.332 9.274 0 14.65-5.357 18.88-15.445.087 3.246.212 6.705.306 9.95.11 1.68 1.45 2.74 2.65 3.178 3.943 1.493 7.403 2.24 10.51 2.24 8.106 0 9.866-1.667 9.866-6.97 0-8.744.256-22.564 2.74-33.66 2.636-11.044 6.614-23.55 12.102-32.25.494-.9 1.706-.664 1.757.425.788 18.618 2.034 50.132 6.92 58.29 2.412 3.89 6.14 6.727 11.72 6.727 2.618 0 5.824-1.117 6.647-1.813.83-.65 1.25-1.37 1.2-2.71 0-23.798 7.415-46.837 14.842-62.33.203-.458.782-.494.764.11l-.415 17.148c0 28.163 2.03 45.957 16.087 54.51 2.152 1.195 5.176 2.347 9.047 2.347 7.192 0 13.714-4.02 16.937-10.484C792.54 172.24 795 162.57 795 157.09c0-2.12.025-5.57-3.45-5.57-1.903 0-3.047 1.404-3.502 3.528-1.107 4.6-2.016 8.546-3.732 13.095-1.643 4.342-4.093 6.87-6.996 6.87-3.412 0-5.143-2.687-6.133-4.347-4.355-6.645-4.704-21.912-4.704-34.654l1.048-32.798c0-2.713-1.13-5.96-5.314-8.355-2.808-1.62-9.912-4.664-14.263-4.664-4.036 0-5.99 2.288-7.443 5.646-2.732 6.03-11.86 29.686-14.308 48.918-.087.507-.718.614-.764-.033-1.272-13.6-1.925-29.987-1.91-41.043 0-3.342-.816-8.12-7.9-11.216-3.443-1.43-6.292-2.305-9.768-2.305-4.316 0-5.243 2.114-6.788 4.915-4.89 9.038-8.27 20.825-13.336 35.692l.076-34.02c0-1.592-.974-3.678-3.765-4.24-6.92-1.59-10.127-2.314-12.856-2.314-1.985 0-3.076 1.585-3.076 3.298l-.372 58.005c-1.338 7.1-6.763 24.048-14.46 24.048-6.316 0-9.265-6.405-9.265-33.18l1.146-43.51c0-2.75-1.804-3.906-4.43-5.07-3.758-1.492-6.747-2.085-10.565-2.085-4.793 0-6.438 2.296-5.468 7.81-5.27-7.133-10.535-11.076-19.84-11.076-18.68 0-32.762 22.488-32.762 55.165-.184 9.164 2.03 18.272 2.03 18.272-1.69 7.605-5.664 13.805-11.154 13.805-6.925 0-11.34-9.8-11.34-26.78 0-17.032 6.484-36.24 6.484-41.448 0-6.054-3.963-9.884-10.98-9.884-3.514 0-16.55 2.96-23.233 3.932 0 0 .753-3.185.698-5.69 0-5.97-2.8-9.71-9.745-9.71-8.49 0-14.723 6.067-14.723 16.415 0 4.645 2.673 8.94 6.21 11.25-4.592 19.166-12.058 33.42-23.06 49.344l.928-64.483c0-2.096-.557-3.398-4.66-4.99-2.17-.94-5.704-2.02-10.16-2.02-6.458 0-6.033 4.615-5.686 8.07-2.955-5.244-9.425-11.468-19.404-11.468-27.197 0-35.547 41.503-31.452 70.98 0 3.592-3.505 16.348-11.426 16.348-6.316 0-9.265-6.405-9.265-33.18l1.156-43.51c0-2.75-1.815-3.906-4.442-5.07-3.757-1.492-6.735-2.085-10.553-2.085-4.792 0-6.437 2.296-5.467 7.81-5.27-7.133-10.546-11.076-19.85-11.076-18.68 0-32.95 20.566-32.95 53.243 0 12.475-10.73 31.51-18.257 31.51-4.18 0-8.632-7.68-8.632-27.305.02-13.376 1.844-58.91 1.844-58.91l26.27-.427c1.253-.012 1.978-1.383 2.443-2.228 1.208-2.45 1.79-4.08 1.79-7.012 0-2.645-.528-3.61-3.917-3.8l-26.18-1.573 1.112-24.41c.078-1.542-.85-2.546-2.532-3.298-5.072-1.98-11.287-3.9-15.224-3.9zm79.503 63.957c7.003 0 14.11 6.393 14.11 29.073 0 28.556-10.395 41.84-18.388 41.84-7.495 0-13.184-10.585-13.184-31.377 0-21.017 5.557-39.535 17.463-39.535zm252.23 0c7.003 0 14.11 6.393 14.11 29.073 0 28.556-10.396 41.84-18.39 41.84-7.494 0-13.183-10.585-13.183-31.377 0-21.017 5.556-39.535 17.462-39.535zm-159.98.13c9.14 0 13.183 9.428 13.183 27.71 0 27.557-8.185 43.248-18.127 43.248-6.347 0-13.645-10.428-13.26-30.94 0-13.117 4.273-40.017 18.203-40.017zm15.475 92.19v10.856c0 36.02-9.59 42.17-17.297 42.17-2.918 0-10.072-2.207-10.072-11.12 0-12.456 13.013-26.627 17.057-31.005l10.313-10.9z" fill="#3F5D87"/>
    <path d="M0 0h815v300H0V0zm17.877 17h779.246v266H17.877V17zm380.684 0h17.88v266h-17.88V17zm133.556 0h17.878v266h-17.878V17zm150.38 0v266H664.62V17h17.877zm-549.993 0h17.878v266h-17.877V17zm150.38 0v266h-17.877V17h17.878z" fill="#000"/>
  </g>
</svg>
