<svg viewBox="0 0 775 300" xmlns="http://www.w3.org/2000/svg">
  <path d="M44.4 41c-7 0-16.3 7.5-21.7 12.5C10.7 64 0 83.5 0 99.2c0 22.2 19 30.6 23.6 30.6 1.6 0 3-.8 3-3 0-1.6-1-3-2.2-4.5-4.3-6.7-5.7-13-5.7-21.6 0-18 8.2-34.4 15-42 1.4-1.3 4.2-4.2 5-4.2 1 0 1 .6 1 2.8L39 174.7c0 18.4-5.3 25.7-5.3 30 0 2 1 2.4 2.4 2.4 7.6 0 15-9 17-12.3 6.6-11.2 8-20 8-45.3V50.7c0-2.7-.6-3.8-3-5.5C54 43 50 41 44.3 41zm212.4.3c-3.5 0-5 2-5.2 7.5l-.8 23.4-20.4-.7c-1.3 0-1.8.4-2.4 1.5-1.7 3.2-2.6 5.8-2.6 10 0 3.5 1.6 4 3 4l21.2.5v44.7c0 9.5-6 21.8-16.6 32 0 0 1-3 .8-6.3 0-9.3-6-17.6-13.7-23.5L201 120c4-4.6 10.7-13.8 10.7-21.6 0-6-3.8-8.6-11-8.6-10 0-21.5 9-21.5 22.7 0 5 2.2 9.5 5.6 13-4.7 8.7-11.2 20.2-16 28.4-3.7 6.2-10 16-13.6 16-2.7 0-4-4.4-4-20.8 0-13.6 1-28.4 1.5-42.6 0-3.2-.6-6.2-4.8-9.2-4-2.5-8.8-6-13.7-6-11 0-18.5 10.2-23.6 20-5.4 10.3-8.2 19-12.3 31.5l.5-43.3c0-3-.8-4.2-3.2-5.3-3.2-1.3-8-3-12-3-3.6 0-4 1.6-4 5.3l-.5 51.8v20c0 18 2.2 21 13 21 5.8 0 7.7-.7 7.8-5.7.3-3.2 1.8-11 4-19 6-23.3 13.4-41.8 26-55.8 1.3-1.4 2.3-1 2 1 0 0-2 31.6-2 44.5 0 23 3.6 35 15 35 11.2 0 22.3-14.5 28.3-24.2l19.2-32.3c12.5 10.7 21.2 19 21.2 29 0 6.2-4 12.4-10 12.4-7.4 0-12.2-8-17.2-8-4.2 0-9.6 8.2-9.6 12.8 0 4.3 9.4 10.5 26.4 10.5 25 0 38.6-17.3 46.7-36.4 1.6 22.7 10.7 36 24.7 36 9.3 0 20-11.7 24.8-26 0 0 .5 3.7 4.2 11.3 5 10 12.8 14.4 22.4 14.4 12 0 22.2-7.2 28.4-19.3 1 9.2 8.7 19.3 21 19.3 8 0 15-6 19.7-15.8 0 0 6 16.2 23.6 16.2 9.8 0 21.4-9 24.2-15.7l.3 9.6-25.8 24c-7.6 7.3-15.6 17.8-15.6 29.4 0 14.8 14 23.3 26.3 23.3 12.6 0 21-8 25.7-15 6-8.6 8.3-25.2 8.3-41.4l-.5-24.3c17.4-19.2 31-45.7 37.2-64.5l13.2-.4c2.5-.2 2.4 1 2 2.4-2.3 9.8-4.3 21-4.3 32 0 18.4 4.2 26.4 10.3 33 5.2 5.4 10.5 7.3 16 7.3 10.8 0 17.6-8.8 19.8-14.5 5 10 12.5 14.5 22 14.5 12 0 22.3-7.2 28.5-19.3 1 9.2 8.6 19.3 21 19.3 9.3 0 14.7-5.4 19-15.4 0 3.2 0 6.7.2 10 .2 1.6 1.5 2.6 2.7 3 4 1.6 7.4 2.3 10.5 2.3 8 0 10-1.7 10-7 0-8.8 0-22.6 2.6-33.7 2.6-11 6.6-23.6 12-32.3.6-1 1.8-.6 2 .5.7 18.6 2 50 6.8 58.3 2.5 3.8 6.2 6.7 11.8 6.7 2.6 0 5.8-1 6.7-1.8.8-.7 1.2-1.4 1.2-2.7 0-23.8 7.4-47 14.8-62.4.2-.4.8-.5.8 0l-.5 17.3c0 28 2 45.8 16 54.4 2.3 1.2 5.3 2.3 9.2 2.3 7.2 0 13.7-4 17-10.4 2.5-5 5-14.7 5-20.2 0-2 0-5.5-3.4-5.5-2 0-3 1.4-3.6 3.6-1 4.6-2 8.6-3.7 13-1.6 4.5-4 7-7 7-3.4 0-5-2.7-6-4.3-4.5-6.7-4.8-22-4.8-34.7l1-32.8c0-2.7-1-6-5.3-8.3-2.8-1.8-10-4.8-14.2-4.8-4 0-6 2.3-7.5 5.6-2.7 6-11.8 29.7-14.3 49 0 .5-.7.6-.8 0-1.2-13.7-2-30-2-41 0-3.5-.7-8.2-7.8-11.3-3.4-1.5-6.3-2.3-9.7-2.3-4.5 0-5.4 2-7 5-4.8 9-8.2 20.7-13.3 35.6v-34c0-1.6-1-3.7-3.7-4.3-7-1.6-10-2.3-12.8-2.3-2 0-3 1.6-3 3.3l-.5 58c-1.3 7-6.7 24-14.4 24-6.3 0-9.3-6.4-9.3-33l1.2-43.6c0-3-1.8-4-4.5-5.2-3.7-1.5-6.7-2-10.5-2-4.8 0-6.5 2.2-5.5 7.7-5.3-7-10.5-11-19.8-11-18.8 0-33 22.4-33 55 0 9.3 2 18.4 2 18.4-1.6 7.5-5.5 13.7-11 13.7-7 0-11.4-9.8-11.4-26.8s6.5-36.3 6.5-41.5c0-6-3.8-10-11-10-3.4 0-16.4 3-23 4 0 0 .7-3.2.6-5.7 0-6-2.8-9.7-9.7-9.7-8.6 0-15 6.2-15 16.5 0 4.7 2.8 9 6.3 11.3-4.5 19-12 33.4-23 49.3l1-64.4c0-2-.6-3.4-4.7-5-2.2-1-5.7-2-10.2-2-6.5 0-6 4.6-5.7 8-3-5.2-9.4-11.4-19.4-11.4-27.2 0-35.5 41.5-31.4 71 0 3.6-3.7 16.3-11.6 16.3-6.3 0-9.2-6.4-9.2-33l1-43.6c0-3-1.7-4-4.3-5.2-4-1.5-7-2-10.7-2-4.8 0-6.4 2.2-5.4 7.7-5.4-7-10.7-11-20-11-18.7 0-33 20.5-33 53.2 0 12.5-10.7 31.5-18.2 31.5-4.2 0-8.6-7.7-8.6-27.3 0-13.5 1.8-59 1.8-59l26.3-.5c1.2 0 2-1.3 2.4-2.2 1.2-2.4 1.8-4 1.8-7 0-2.6-.5-3.6-4-3.8l-26-1.6 1-24.5c0-1.5-.8-2.5-2.5-3.3-5-2-11.3-4-15.2-4zm79.5 64c7 0 14 6.4 14 29 0 28.6-10.3 42-18.3 42-7.5 0-13.2-10.7-13.2-31.5 0-21 5.6-39.5 17.5-39.5zm252.2 0c7 0 14 6.4 14 29 0 28.6-10.3 42-18.3 42-7.5 0-13.2-10.7-13.2-31.5 0-21 5.6-39.5 17.5-39.5zm-160 0c9.2 0 13.2 9.5 13.2 27.8 0 27.7-8.2 43.4-18 43.4-6.5 0-13.8-10.5-13.4-31 0-13 4.3-40 18.2-40zm15.5 92.3v11c0 36-9.6 42-17.3 42-3 0-10-2.2-10-11 0-12.5 13-26.7 17-31l10.3-11z" fill="#3F5D87"/>
</svg>
