<svg viewBox="0 0 200 200" xmlns="http://www.w3.org/2000/svg">
  <path d="M6 54.003C6 27.493 27.497 6 54.003 6h92.594c26.51 0 48.003 21.497 48.003 48.003v92.594c0 26.51-21.497 48.003-48.003 48.003H54.003C27.493 194.6 6 173.103 6 146.597V54.003zM121.875 112.5h-4.938l-1.75-1.688C121.314 103.69 125 94.44 125 84.376c0-22.438-18.188-40.625-40.625-40.625-22.438 0-40.625 18.188-40.625 40.625C43.75 106.813 61.938 125 84.375 125c10.063 0 19.313-3.688 26.438-9.813l1.687 1.75v4.938l31.25 31.188 9.313-9.313-31.188-31.25zm-37.5 0c-15.563 0-28.125-12.563-28.125-28.125 0-15.563 12.563-28.125 28.125-28.125 15.563 0 28.125 12.563 28.125 28.125 0 15.563-12.563 28.125-28.125 28.125z" fill-rule="evenodd"/>
</svg>
