<svg viewBox="0 0 60 60" xmlns="http://www.w3.org/2000/svg">
  <path d="M48.7 2H11.3C6.3 2 2 6.2 2 11.3v37.4c0 5 4.2 9.3 9.3 9.3h37.4c5 0 9.3-4.2 9.3-9.3V11.3c0-5-4.2-9.3-9.3-9.3zM20 26.5h20c.5 1 .7 2.3.7 3.5 0 6-4.8 10.7-10.7 10.7S19.3 36 19.3 30c0-1.2.2-2.4.6-3.5zm31 0v21c0 2-1.6 3.5-3.5 3.5h-35c-2 0-3.5-1.6-3.5-3.5v-21h5.5c-.3 1-.4 2.3-.4 3.5 0 8.8 7.2 16 16 16s16-7.2 16-16c0-1.2-.2-2.4-.5-3.5H51zm0-12.3c0 1-.8 1.8-1.8 1.8h-3.5c-1 0-1.7-.8-1.7-1.8v-3.4c0-1 .8-1.8 1.7-1.8h3.5c1 0 1.8.8 1.8 1.8v3.4z"/>
</svg>
