<svg viewBox="0 0 200 200" xmlns="http://www.w3.org/2000/svg">
  <path d="M87.575 77.347l22.466-9.24c5.086-2.09 10.883.234 12.988 5.28 1.54 3.7 1.402 8.486-1.69 9.76-1.767.724-1.76 1.73-1.353 2.71.127.307.326.45.555.535l27.894-11.476c4.534-1.868 9.734.273 11.61 4.775 1.88 4.51-.342 9.517-4.808 11.54-1.948.885-14.09 6.134-26.825 11.62.998.984 1.824 2.164 2.34 3.562 1.476 4 .18 8.328-2.905 10.94l-40.27-40.005zm-1.955-1.94c4.568-1.945 9.794-4.095 9.794-4.095-3.267-7.835-11.862-8.86-19.986-6.03L85.62 75.405zM62.518 73.95c-.984 1.155-1.838 2.378-2.528 3.65-6.076 11.204-8.776 17.064-8.782 17.076-.64 1.23-.927 2.45-1.07 3.826-.105.98-1.035 12.183 4.73 26.007 3.43 8.22 7.478 13.533 10.492 16.72-6.093-.2-11.818-5.395-15.655-14.598-5.467-13.11-5.578-25.223-5.578-25.223s-.262-.022-.404-.023c-2.012.006-4.33 1.057-4.41 3.438-.02.56-.653 9.805 5.237 23.926 3 7.195 7.152 12.466 12.01 15.25 4.008 2.297 9.026 2.643 13.48 1.4 2.792 2.056 6.348 2.07 9.797 1.267 2.103-.488 4.346-1.094 6.646-1.775 5.265-1.488 12.855-3.94 22.394-7.866 2.197-.904 7.588-3.19 12.018-5.085L62.518 73.95zm103.3 79.928c27.357-33.167 25.452-82.187-5.714-113.147-31.166-30.96-80.513-32.85-113.9-5.675l4.253 4.226c30.707-24.552 75.75-22.67 104.258 5.65 28.508 28.32 30.404 73.065 5.688 103.568l5.415 5.38zM35.278 45.696C6.78 78.87 8.32 128.776 39.895 160.143c31.576 31.367 81.814 32.896 115.21 4.588l-5.405-5.37c-30.724 25.68-76.657 24.157-105.576-4.57-28.92-28.728-30.454-74.357-4.603-104.878l-4.243-4.216z" fill="#000" fill-rule="evenodd"/>
</svg>
