<svg viewBox="0 0 26 26" xmlns="http://www.w3.org/2000/svg">
  <path d="M20.07 20.07C21.96 18.183 23 15.67 23 13s-1.04-5.182-2.93-7.07C18.183 4.04 15.67 3 13 3S7.818 4.04 5.93 5.93C4.04 7.817 3 10.33 3 13s1.04 5.182 2.93 7.07C7.817 21.96 10.33 23 13 23s5.182-1.04 7.07-2.93zm-.883-13.257c1.232 1.23 2.05 2.766 2.388 4.435-.263-.388-.515-.532-.67.336-.16 1.414-1.46.51-2.276 1.013-.86-.58-2.792 1.126-2.464-.798.506-.868 2.735 1.16 1.624-.675-.71-1.282-2.59-4.12-2.346-5.59.03-2.145-2.19-.448-2.955.263-.516 1.424-.177 3.913-1.523 4.61-1.46.064-2.715.197-3.28 1.83-.342 1.17.362 2.908 1.614 3.177 1.834 1.15 2.49-1.35 4.208-1.395.534.558 1.988.736 2.11 1.362-1.13.2 1.43.948-.11 1.375-.848-.1-1.395-.88-.944-1.543-1.645-.383-1.698 2.38-3.28 1.51-.04-1.38-2.582-.448-.88-.168.586.256-.953.996-.12.862.407.022 1.782.504 1.41.828.766.475 1.41-1.14 2.16.037.54.903-.228 1.07-.906.612-.382.428.675 1.353 1.608 1.753.31.133.608.206.835.185.47-.543 1.34-.637 1.385.065-1.163.558-2.447.852-3.775.852-1.907 0-3.72-.606-5.22-1.726.402-.185.63-.415.243-.71-.302-.9-1.527-2.106-2.602-1.935-.558-.964-.925-2.025-1.082-3.137.9-.298 1.108-.887.914-1.085-.46-.4-.74-.967-.886-1.588.293-1.794 1.136-3.447 2.447-4.757C8.465 5.16 10.663 4.25 13 4.25s4.535.91 6.187 2.563z" fill-rule="evenodd"/>
</svg>
