<svg viewBox="0 0 26 26" xmlns="http://www.w3.org/2000/svg">
  <path d="M23.73 11.103c.24-.22.33-.572.23-.89-.103-.318-.378-.54-.7-.566l-6.387-.5c-.296-.022-.555-.215-.672-.5l-2.536-6.144c-.128-.308-.42-.507-.74-.503-.32.003-.61.207-.73.517L9.765 8.71c-.112.287-.368.485-.664.514l-6.38.62c-.318.032-.59.26-.685.58-.097.32 0 .67.245.886l4.888 4.326c.226.2.327.516.262.82l-1.405 6.528c-.07.327.054.667.316.862.262.194.61.206.882.03l5.448-3.52c.253-.164.57-.167.827-.01l5.51 3.415c.275.172.623.154.88-.046.258-.2.377-.542.3-.867l-1.52-6.5c-.07-.303.025-.62.248-.825l4.81-4.42z" fill-rule="evenodd"/>
</svg>
