<svg viewBox="0 0 26 26" xmlns="http://www.w3.org/2000/svg">
  <path d="M21.44 13.73c.063-.115.164-.115.226 0l.344.626c.062.113.008.205-.122.205h-.67c-.13 0-.183-.09-.12-.204l.343-.627zM17.674 8.08c2.06-1.824 2.25-1.633.426.426L8.035 19.868c-1.824 2.06-3.5 3.53-3.746 3.287L3.027 21.89c-.245-.243 1.226-1.92 3.286-3.745l11.36-10.063zm3.88.74c.8 0 1.447-.648 1.447-1.447 0-.8-.648-1.446-1.447-1.446-.798 0-1.446.646-1.446 1.445 0 .8.648 1.447 1.446 1.447zm-7.232 0c.533 0 .965-.432.965-.964 0-.533-.432-.965-.964-.965s-.964.432-.964.965c0 .532.432.964.965.964zM12.875 5.93c.266 0 .482-.217.482-.483 0-.267-.216-.483-.482-.483s-.482.216-.482.483c0 .266.216.482.482.482zm5.304-1.423c0-.28.22-.507.507-.507h.915c.28 0 .507.22.507.507v.915c0 .28-.22.507-.507.507h-.915c-.28 0-.507-.223-.507-.508v-.915zm-2.893 9.644c0-.28.22-.506.507-.506h.915c.28 0 .507.22.507.507v.916c0 .28-.222.507-.507.507h-.915c-.28 0-.507-.222-.507-.507v-.915z" fill-rule="evenodd"/>
</svg>
