<svg viewBox="0 0 300 300" xmlns="http://www.w3.org/2000/svg">
  <g fill="none" fill-rule="evenodd">
    <path d="M183.11 125.203c-15.78.825-29.503 5.61-40.644 16.416-11.256 10.92-16.395 24.3-14.99 40.886-6.168-.764-11.786-1.604-17.436-2.08-1.952-.164-4.267.07-5.92 1.002-5.486 3.095-10.746 6.59-16.98 10.487 1.144-5.173 1.884-9.703 3.195-14.06.964-3.204.517-4.986-2.433-7.072-18.944-13.374-26.93-33.39-20.953-53.997 5.528-19.064 19.105-30.625 37.553-36.652 25.18-8.225 53.48.165 68.79 20.157 5.53 7.222 8.92 15.327 9.817 24.913zm-72.628-6.42c.145-3.77-3.12-7.165-7-7.28-3.972-.115-7.238 2.92-7.354 6.834-.118 3.966 2.916 7.145 6.917 7.246 3.965.1 7.29-2.938 7.437-6.8zm37.893-7.28c-3.894.07-7.184 3.386-7.115 7.17.07 3.923 3.3 6.99 7.303 6.943 4.014-.048 7.058-3.15 7.02-7.154-.033-3.932-3.246-7.033-7.208-6.96zm70.19 112.08c-4.998-2.224-9.582-5.562-14.462-6.072-4.86-.506-9.972 2.298-15.058 2.818-15.493 1.585-29.372-2.732-40.817-13.316-21.766-20.133-18.656-51.002 6.527-67.5 22.38-14.663 55.205-9.775 70.985 10.57 13.77 17.754 12.153 41.32-4.658 56.236-4.865 4.316-6.616 7.868-3.494 13.56.576 1.05.642 2.38.976 3.706zm-56.882-55.07c3.182.003 5.8-2.487 5.922-5.63.127-3.325-2.55-6.116-5.88-6.13-3.298-.014-6.06 2.815-5.946 6.092.108 3.13 2.745 5.664 5.903 5.668zm36.668-11.746c-3.085-.022-5.708 2.505-5.834 5.624-.133 3.336 2.46 6.074 5.76 6.083 3.19.01 5.714-2.404 5.83-5.58.123-3.343-2.47-6.103-5.755-6.126z" fill="#000"/>
    <path d="M147 50h7v200h-7V50zm42 0h7v200h-7V50zm-84 0h7v200h-7V50zm-42 0h7v200h-7V50zm168 0h7v200h-7V50z" fill="#000"/>
    <path d="M20 50h260v200H20V50z" stroke="#000" stroke-width="7"/>
    <path d="M261.877 238.75c0 .39.324.708.72.708h.718v2.48c0 .587.482 1.062 1.08 1.062.596 0 1.078-.475 1.078-1.063v-2.48h1.44v2.48c0 .588.48 1.063 1.077 1.063s1.08-.475 1.08-1.063v-2.48h.718c.396 0 .72-.317.72-.707v-7.083h-8.63v7.083zm-1.798-7.083c-.598 0-1.08.474-1.08 1.062v4.958c0 .587.482 1.062 1.08 1.062.596 0 1.078-.475 1.078-1.063v-4.958c0-.59-.482-1.063-1.08-1.063zm12.226 0c-.597 0-1.08.474-1.08 1.062v4.958c0 .587.483 1.062 1.08 1.062.597 0 1.08-.475 1.08-1.063v-4.958c0-.59-.483-1.063-1.08-1.063zm-3.575-4.137l.936-.92c.144-.143.144-.362 0-.504-.144-.14-.367-.14-.51 0l-1.065 1.05c-.567-.285-1.214-.448-1.898-.448-.69 0-1.337.163-1.913.447l-1.072-1.05c-.144-.14-.367-.14-.51 0-.145.143-.145.363 0 .504l.94.927c-1.063.772-1.76 2.012-1.76 3.42h8.63c0-1.408-.698-2.655-1.777-3.427zm-3.976 2.012h-.72v-.71h.72v.71zm3.596 0h-.72v-.71h.72v.71z" fill="#73EC4C"/>
  </g>
</svg>
