<svg viewBox="0 0 300 300" xmlns="http://www.w3.org/2000/svg">
    <path d="M243 92.8c-6.8 3-14.2 5-22 6 8-4.8 14-12.2 17-21-7.5 4.3-15.7 7.5-24.4 9.2-7-7.4-16.8-12-27.8-12-21 0-38.2 17-38.2 38 0 2.8.4 5.7 1 8.5C117 120 88.8 104.8 70 82c-3.3 5.5-5.2 12-5.2 19 0 13 6.7 24.7 17 31.5-6.3-.2-12.2-2-17.3-4.7v.4c0 18.4 13 33.7 30.6 37.2-3 .8-6.5 1.3-10 1.3-2.4 0-4.8-.3-7.2-.7 5 15 19 26 35.7 26.3-13 10.2-29.5 16.2-47.4 16.2-3 0-6-.2-9-.5 17 10.7 37 17 58.5 17 70.2 0 108.6-57.7 108.6-107.7v-5c7.4-5.3 14-12 19-19.5z" fill="#2AA9E0"/>
</svg>