<svg viewBox="0 0 300 300" class="social-icon animate--general">
    <g fill="none">
        <path d="M70.6 178c0 21.7 28.3 39 63.3 39s63.2-17.3 63.2-39c0-21.4-28.4-39-63.3-39s-63.4 17.6-63.4 39" fill="#fff"/>
        <path d="M135.4 214c-31 3-57.7-11-59.7-31s21.5-38.8 52.4-41.8c31-3 57.7 10.8 59.7 31 2 20-21.4 38.7-52.3 41.7m61.8-66.8c-2.6-.8-4.4-1.3-3-4.7 3-7.4 3.3-14 0-18.4-6-8.5-22.6-8-41.6-.2 0 0-6 2.6-4.5-2 3-9.4 2.6-17.2-2-21.7-10.3-10-37.7.5-61.3 23.8-17.6 17.5-27.8 36-27.8 52 0 30.5 39.5 49 78.3 49 50.8 0 84.6-29 84.6-52.3 0-14-12-22-22.8-25.3" fill="#E6162D"/>
        <path d="M231 91.3c-12.3-13.5-30.4-18.6-47-15-4 .7-6.4 4.5-5.6 8.3.8 3.8 4.6 6.2 8.5 5.4 11.8-2.5 24.6 1.2 33.4 10.7 8.7 9.6 11 22.7 7.3 34-1.2 3.8 1 7.8 4.6 9 3.8 1.2 7.8-.8 9-4.5 5.3-16.2 2-34.5-10.3-48m-19 17c-5.8-6.7-14.6-9.2-22.8-7.4-3.3.7-5.4 4-4.7 7.2.7 3.3 4 5.4 7.3 4.7 4-1 8.3.4 11.2 3.6 3 3.2 3.7 7.5 2.4 11.4-1 3.2.8 6.6 4 7.6 3.3 1 6.7-.7 7.8-4 2.5-7.7 1-16.7-5-23.2" fill="#f93"/>
        <path d="M137 177.5c-1 2-3.4 2.8-5.3 2-1.8-.8-2.4-2.8-1.3-4.6 1-2 3.3-2.8 5.2-2 1.8.6 2.5 2.7 1.5 4.5m-9.8 12.6c-3 4.8-9.4 7-14.2 4.7-4.8-2.2-6.2-7.7-3.2-12.3 3-4.5 9.2-6.6 14-4.6 4.8 2 6.4 7.5 3.4 12.3m11.3-33.4c-14.8-3.8-31.4 3.5-37.8 16.3-6.5 13-.2 27.6 14.7 32.3 15.4 5 33.5-2.6 39.8-16.7 6.3-14-1.5-28-16.7-32" fill="#000"/>
    </g>
</svg>