<svg width="20" height="20" viewBox="0 0 20 20" xmlns="http://www.w3.org/2000/svg">
  <g fill="#F1F1F1" fill-rule="evenodd">
    <path d="M-.407 12.795c-1.686.37-3.25-.184-3.49-1.238-.243-1.054.928-2.208 2.614-2.58 1.686-.37 3.25.185 3.49 1.24.242 1.054-.928 2.208-2.614 2.578M2.57 8.832c-.15-.023-.254-.04-.2-.23.116-.415.09-.758-.117-.98-.39-.413-1.303-.276-2.3.27 0 0-.313.18-.26-.08.1-.515.026-.926-.254-1.134-.637-.473-2.08.276-3.227 1.672-.86 1.046-1.302 2.098-1.198 2.947.2 1.624 2.506 2.344 4.643 2.08 2.802-.343 4.476-2.124 4.325-3.356-.092-.744-.8-1.086-1.414-1.188zm-3.583 2.75c-.134.27-.474.424-.754.34-.276-.08-.39-.362-.254-.627.132-.264.46-.414.737-.34.28.074.4.353.27.627M-.61 9.73c-.837-.102-1.707.397-1.976 1.122-.274.74.168 1.468 1.02 1.62.88.157 1.833-.366 2.09-1.16.252-.775-.27-1.478-1.135-1.582zm4.675-4.1C3.3 5 2.27 4.85 1.37 5.15c-.208.068-.32.285-.25.482.072.198.297.302.505.232.64-.213 1.372-.106 1.916.343.544.45.76 1.126.628 1.76-.042.205.097.403.313.44.216.04.425-.096.468-.3v-.003c.183-.89-.118-1.842-.883-2.473zm-.93 1.023c-.372-.308-.874-.38-1.312-.235-.18.06-.275.247-.214.417.06.17.254.26.432.2.214-.072.46-.037.642.113s.254.378.21.59c-.037.177.083.348.27.38.184.033.364-.083.4-.26.09-.434-.056-.898-.43-1.205zM9.593 2.795c-1.686.37-3.25-.184-3.49-1.238C5.86.503 7.03-.65 8.716-1.023c1.686-.37 3.25.185 3.49 1.24.242 1.054-.928 2.208-2.614 2.578m2.976-3.963c-.15-.023-.254-.04-.2-.23.116-.415.09-.758-.117-.98-.39-.413-1.303-.276-2.3.27 0 0-.313.18-.26-.08.1-.515.026-.926-.254-1.134-.637-.473-2.08.276-3.227 1.672C5.353-.604 4.91.448 5.015 1.297c.2 1.624 2.506 2.344 4.643 2.08 2.802-.343 4.476-2.124 4.325-3.356-.092-.744-.8-1.086-1.414-1.188zm-3.583 2.75c-.134.27-.474.424-.754.34-.276-.08-.39-.362-.254-.627.132-.264.46-.414.737-.34.28.074.4.353.27.627M9.39-.27C8.552-.372 7.682.127 7.413.852c-.274.74.168 1.468 1.02 1.62.88.157 1.833-.366 2.09-1.16.252-.775-.27-1.478-1.135-1.582zm4.675-4.1C13.3-5 12.27-5.15 11.37-4.85c-.208.068-.32.285-.25.482.072.198.297.302.505.232.64-.213 1.372-.106 1.916.343.544.45.76 1.126.628 1.76-.042.205.097.403.313.44.216.04.425-.096.468-.3v-.003c.183-.89-.118-1.842-.883-2.473zm-.93 1.023c-.372-.308-.874-.38-1.312-.235-.18.06-.275.247-.214.417.06.17.254.26.432.2.214-.072.46-.037.642.113s.254.378.21.59c-.037.177.083.348.27.38.184.033.364-.083.4-.26.09-.434-.056-.898-.43-1.205zM19.593 12.795c-1.686.37-3.25-.184-3.49-1.238-.243-1.054.928-2.208 2.614-2.58 1.686-.37 3.25.185 3.49 1.24.242 1.054-.928 2.208-2.614 2.578m2.976-3.963c-.15-.023-.254-.04-.2-.23.116-.415.09-.758-.117-.98-.39-.413-1.303-.276-2.3.27 0 0-.313.18-.26-.08.1-.515.026-.926-.254-1.134-.637-.473-2.08.276-3.227 1.672-.86 1.046-1.302 2.098-1.198 2.947.2 1.624 2.506 2.344 4.643 2.08 2.802-.343 4.476-2.124 4.325-3.356-.092-.744-.8-1.086-1.414-1.188zm-3.583 2.75c-.134.27-.474.424-.754.34-.276-.08-.39-.362-.254-.627.132-.264.46-.414.737-.34.28.074.4.353.27.627m.402-1.852c-.837-.102-1.707.397-1.976 1.122-.274.74.168 1.468 1.02 1.62.88.157 1.833-.366 2.09-1.16.252-.775-.27-1.478-1.135-1.582zm4.675-4.1C23.3 5 22.27 4.85 21.37 5.15c-.208.068-.32.285-.25.482.072.198.297.302.505.232.64-.213 1.372-.106 1.916.343.544.45.76 1.126.628 1.76-.042.205.097.403.313.44.216.04.425-.096.468-.3v-.003c.183-.89-.118-1.842-.883-2.473zm-.93 1.023c-.372-.308-.874-.38-1.312-.235-.18.06-.275.247-.214.417.06.17.254.26.432.2.214-.072.46-.037.642.113s.254.378.21.59c-.037.177.083.348.27.38.184.033.364-.083.4-.26.09-.434-.056-.898-.43-1.205zM9.593 22.795c-1.686.37-3.25-.184-3.49-1.238-.243-1.054.928-2.208 2.614-2.58 1.686-.37 3.25.185 3.49 1.24.242 1.054-.928 2.208-2.614 2.578m2.976-3.963c-.15-.023-.254-.04-.2-.23.116-.415.09-.758-.117-.98-.39-.413-1.303-.276-2.3.27 0 0-.313.18-.26-.08.1-.515.026-.926-.254-1.134-.637-.473-2.08.276-3.227 1.672-.86 1.046-1.302 2.098-1.198 2.947.2 1.624 2.506 2.344 4.643 2.08 2.802-.343 4.476-2.124 4.325-3.356-.092-.744-.8-1.086-1.414-1.188zm-3.583 2.75c-.134.27-.474.424-.754.34-.276-.08-.39-.362-.254-.627.132-.264.46-.414.737-.34.28.074.4.353.27.627m.402-1.852c-.837-.102-1.707.397-1.976 1.122-.274.74.168 1.468 1.02 1.62.88.157 1.833-.366 2.09-1.16.252-.775-.27-1.478-1.135-1.582zm4.675-4.1c-.765-.63-1.796-.78-2.695-.48-.208.068-.32.285-.25.482.072.198.297.302.505.232.64-.213 1.372-.106 1.916.343.544.45.76 1.126.628 1.76-.042.205.097.403.313.44.216.04.425-.096.468-.3v-.003c.183-.89-.118-1.842-.883-2.473zm-.93 1.023c-.372-.308-.874-.38-1.312-.235-.18.06-.275.247-.214.417.06.17.254.26.432.2.214-.072.46-.037.642.113s.254.378.21.59c-.037.177.083.348.27.38.184.033.364-.083.4-.26.09-.434-.056-.898-.43-1.205z"/>
  </g>
</svg>
