<svg width="100" height="30" viewBox="0 0 100 30" xmlns="http://www.w3.org/2000/svg">
  <path d="M17.476 14.824c-.627.168-1.262 1.05-1.624 1.62-.804 1.216-1.3 3.19-.93 4.567.525 1.96 2.393 2.25 2.815 2.138.14-.037.238-.14.188-.33-.04-.147-.167-.245-.294-.346-.543-.486-.818-1.015-1.022-1.775-.424-1.582-.08-3.23.348-4.055.08-.15.263-.477.34-.497.074-.02.11.035.16.224l2.704 10.376c.434 1.62.138 2.388.24 2.77.045.166.13.19.268.153.658-.177 1.098-1.152 1.206-1.493.31-1.145.243-1.957-.355-4.19l-2.333-8.704c-.063-.235-.157-.32-.42-.404-.384-.12-.804-.187-1.29-.056zm18.8-5.007c-.31.083-.398.28-.28.783l.486 2.083-1.828.423c-.11.027-.15.075-.173.184-.076.33-.096.576.005.95.08.307.23.302.353.27l1.898-.452 1.052 3.948c.224.836-.014 2.064-.712 3.22 0 0 .008-.295-.073-.58-.217-.81-.936-1.404-1.772-1.736l-2.04-.82c.246-.507.63-1.485.447-2.173-.143-.534-.54-.668-1.167-.5-.886.237-1.696 1.32-1.374 2.52.117.438.417.78.795 1-.2.886-.507 2.06-.743 2.902-.176.642-.497 1.64-.822 1.728-.24.064-.45-.283-.84-1.728-.32-1.2-.585-2.53-.878-3.795-.077-.287-.195-.54-.64-.7-.4-.127-.908-.32-1.346-.203-.972.26-1.395 1.33-1.616 2.326-.227 1.03-.278 1.86-.34 3.064l-.98-3.818c-.06-.275-.158-.362-.4-.396-.315-.044-.768-.07-1.137.03-.308.082-.31.224-.223.547l1.182 4.58.468 1.763c.425 1.59.696 1.8 1.64 1.547.524-.14.675-.246.57-.683-.063-.29-.112-1.023-.113-1.77-.006-2.203.203-4.004.983-5.542.084-.152.185-.133.212.043 0 0 .57 2.832.876 3.97.544 2.027 1.14 3 2.15 2.73.992-.266 1.625-1.798 1.927-2.8l.943-3.302c1.357.645 2.323 1.166 2.56 2.053.148.55-.056 1.183-.586 1.325-.663.177-1.274-.407-1.722-.287-.372.1-.657.945-.548 1.35.103.385 1.088.703 2.594.3 2.224-.596 3.01-2.438 3.273-4.316.674 1.964 1.786 2.92 3.033 2.585.817-.22 1.486-1.504 1.58-2.878 0 0 .13.316.634.898.684.753 1.475.972 2.323.745 1.055-.283 1.787-1.163 2.05-2.382.302.79 1.224 1.5 2.323 1.206.69-.186 1.177-.88 1.357-1.86 0 0 .918 1.29 2.464.876.868-.233 1.68-1.31 1.77-1.96l.255.84-1.73 2.726c-.492.823-.953 1.94-.678 2.965.35 1.305 1.786 1.725 2.873 1.433 1.13-.302 1.687-1.217 1.938-1.925.31-.913.136-2.43-.246-3.856l-.626-2.132c1.093-2.11 1.675-4.777 1.77-6.58l1.164-.344c.224-.076.236.016.24.157.027.925.11 1.958.373 2.94.434 1.62.997 2.223 1.69 2.655.596.358 1.105.396 1.594.265.958-.256 1.347-1.206 1.404-1.754.684.754 1.455.984 2.303.757 1.056-.283 1.787-1.163 2.05-2.382.302.79 1.225 1.5 2.323 1.207.82-.22 1.17-.82 1.306-1.81.084.284.177.586.262.87.05.146.193.208.31.218.384.038.708.022.983-.052.718-.192.834-.38.71-.848-.208-.772-.512-1.997-.554-3.035-.028-1.036.028-2.234.308-3.132.023-.09.136-.1.166-.004.51 1.624 1.365 4.374 1.99 4.978.305.286.702.448 1.196.316.232-.063.49-.237.546-.318.058-.077.078-.15.042-.267-.563-2.1-.45-4.308-.16-5.85.007-.046.057-.063.07-.01l.37 1.523c.664 2.485 1.264 4.006 2.71 4.427.22.055.514.085.857-.007.637-.17 1.12-.68 1.252-1.326.113-.506.102-1.417-.027-1.9-.05-.188-.13-.492-.437-.41-.168.045-.237.196-.227.394.012.432.025.802-.02 1.244-.042.422-.2.703-.456.772-.302.08-.52-.115-.645-.238-.544-.483-.936-1.822-1.237-2.946l-.682-2.918c-.063-.24-.24-.5-.667-.61-.287-.077-.987-.177-1.373-.074-.357.096-.475.344-.525.675-.1.595-.347 2.9-.11 4.653.005.047-.05.07-.068.015-.434-1.17-.88-2.6-1.14-3.575-.078-.295-.263-.697-.963-.802-.34-.043-.612-.053-.92.03-.38.102-.413.31-.484.594-.22.913-.24 2.033-.336 3.464l-.798-3.002c-.037-.14-.173-.302-.433-.285-.65.025-.95.037-1.192.102-.175.047-.234.212-.194.364l1.34 5.125c.048.66-.032 2.283-.713 2.465-.56.15-.97-.345-1.604-2.707l-.928-3.865c-.065-.243-.252-.302-.512-.342-.367-.042-.646-.023-.984.067-.424.114-.515.355-.3.82-.634-.505-1.193-.728-2.017-.508-1.654.442-2.368 2.76-1.596 5.642.2.813.612 1.564.612 1.564.03.71-.175 1.352-.66 1.482-.614.164-1.236-.595-1.637-2.093-.404-1.503-.284-3.35-.407-3.81-.143-.534-.585-.778-1.206-.612-.31.084-1.394.654-1.963.898 0 0-.008-.298-.072-.517-.14-.527-.478-.79-1.092-.626-.752.202-1.16.884-.915 1.797.11.41.448.726.815.845.047 1.8-.277 3.233-.874 4.9l-1.442-5.71c-.05-.186-.13-.288-.53-.33-.214-.032-.553-.044-.947.062-.572.153-.425.55-.312.847-.386-.394-1.106-.79-1.99-.553-2.405.645-2.163 4.504-1.104 7.007.086.317.077 1.525-.624 1.713-.56.15-.97-.345-1.604-2.707l-.926-3.866c-.065-.242-.253-.3-.513-.34-.368-.044-.645-.026-.983.065-.424.113-.516.354-.3.817-.634-.504-1.194-.726-2.018-.506-1.653.444-2.43 2.597-1.657 5.48.295 1.1-.205 3.033-.87 3.21-.37.1-.946-.47-1.41-2.202-.314-1.18-1.23-5.24-1.23-5.24l2.315-.66c.11-.032.143-.17.164-.256.05-.244.062-.402-.008-.66-.062-.234-.132-.307-.436-.243l-2.354.48-.478-2.18c-.03-.137-.136-.203-.302-.23-.496-.054-1.092-.076-1.44.017zm8.547 3.757c.62-.166 1.4.23 1.936 2.23.674 2.52.068 3.937-.64 4.127-.662.18-1.416-.62-1.907-2.454-.497-1.854-.443-3.62.61-3.902zm22.32-5.98c.62-.167 1.4.23 1.936 2.23.674 2.52.068 3.937-.64 4.126-.662.178-1.416-.62-1.907-2.455-.497-1.854-.443-3.62.61-3.902zM52.99 11.397c.81-.216 1.39.52 1.82 2.132.653 2.43.3 4.01-.58 4.245-.562.15-1.455-.597-1.905-2.415-.31-1.157-.568-3.63.665-3.962zm3.548 7.766l.257.957c.85 3.18.148 3.948-.534 4.13-.258.07-.943.045-1.153-.74-.295-1.1.522-2.658.776-3.14l.655-1.206z" fill="#F1F1F1" fill-rule="evenodd"/>
</svg>
