<svg viewBox="0 0 100 30" xmlns="http://www.w3.org/2000/svg">
  <path d="M17.902 21.263l.966 3.605c.17.638.404 1.062.7 1.27.294.21.7.246 1.22.106s.856-.374 1.008-.706c.153-.33.144-.814-.026-1.448l-.966-3.605-.11.03c-.244.065-.446.05-.607-.045-.16-.095-.274-.266-.34-.514-.074-.27-.06-.484.04-.64.097-.153.3-.272.61-.354l1.722-.462c.312-.084.55-.084.712 0 .163.085.28.263.354.534.066.248.054.454-.038.616-.092.163-.26.277-.504.342l-.117.03.96 3.58c.31 1.157.284 2.06-.076 2.712-.36.65-1.093 1.124-2.2 1.42-1.158.31-2.057.28-2.696-.093-.64-.372-1.117-1.147-1.432-2.323l-.958-3.578-.118.03c-.248.067-.453.053-.617-.04-.164-.095-.28-.266-.345-.515-.073-.27-.057-.484.046-.64.105-.156.313-.276.625-.36l1.78-.476c.307-.083.546-.083.715 0 .17.082.292.26.364.53.067.248.052.454-.045.618-.097.163-.27.278-.518.345l-.11.03zm14.16 1.702l.09-.024c.258-.068.468-.057.63.035.163.092.278.264.346.517.072.27.06.484-.04.64-.1.153-.304.272-.617.356l-1.695.455c-.308.082-.545.082-.713 0-.167-.085-.288-.262-.36-.533-.068-.253-.053-.46.044-.62.097-.163.277-.278.538-.35l.083-.02-.534-1.993c-.147-.55-.33-.923-.545-1.113-.217-.19-.504-.24-.862-.143-.382.104-.656.326-.823.67-.166.34-.188.743-.065 1.202l.534 1.992.083-.022c.26-.07.474-.06.636.033.164.092.28.264.347.517.072.27.058.484-.043.64-.102.154-.306.273-.614.356l-1.71.458c-.307.082-.544.082-.71-.002-.165-.084-.284-.26-.356-.533-.068-.25-.054-.458.04-.62.095-.16.274-.275.536-.346l.082-.022-.894-3.336-.117.03c-.247.068-.452.055-.615-.037-.162-.093-.276-.26-.342-.504-.072-.27-.058-.484.043-.64.102-.155.31-.275.628-.36l1.172-.314c.128-.034.233-.035.313-.002.08.032.132.097.158.194l.144.537c.123-.386.326-.708.61-.964.283-.255.64-.44 1.073-.557.735-.198 1.343-.122 1.823.227.48.35.843.98 1.088 1.896l.617 2.302zm4.14.42c-.095.124-.2.227-.312.31-.114.08-.237.14-.37.176-.198.054-.35.038-.46-.046-.11-.084-.202-.27-.28-.56l-.245-.917c-.08-.304-.088-.532-.02-.685.066-.154.224-.264.472-.33.27-.073.527 0 .767.215.14.116.253.2.34.25.28.14.582.222.908.243.325.022.68-.02 1.06-.12.33-.09.578-.225.74-.407.165-.18.218-.376.163-.582-.1-.372-.7-.487-1.8-.345-.24.036-.432.06-.57.072-.83.104-1.483.047-1.96-.173-.478-.22-.79-.602-.937-1.15-.173-.647-.073-1.21.3-1.69.375-.48.996-.836 1.864-1.068.3-.08.612-.138.94-.175.328-.035.67-.046 1.03-.034.064-.14.144-.253.237-.337.092-.085.205-.145.34-.18.187-.05.346-.03.477.06.13.09.226.253.29.487l.226.848c.053.197.044.364-.03.5-.07.134-.2.226-.383.275-.188.05-.555-.027-1.1-.233-.545-.206-1.048-.248-1.507-.124-.36.096-.62.23-.787.4-.166.17-.222.357-.166.564.086.322.557.427 1.414.316.246-.037.44-.064.584-.083 1.08-.126 1.853-.09 2.322.106.47.197.783.592.942 1.184.186.694.073 1.3-.338 1.816-.41.516-1.087.9-2.03 1.153-.367.098-.727.168-1.08.21-.353.044-.7.062-1.042.055zm8.834-2.958l.502 1.875.876-.235c.312-.083.552-.084.72 0 .168.083.288.26.36.53.072.267.056.476-.046.627-.103.15-.313.268-.63.353l-2.922.783c-.317.085-.555.088-.714.01-.16-.078-.275-.252-.347-.524-.073-.27-.06-.484.04-.638.098-.155.304-.274.616-.358l.408-.11-1.63-6.085-.11.03c-.245.065-.448.05-.61-.044-.165-.093-.28-.264-.346-.513-.073-.27-.06-.48.038-.63.098-.15.305-.267.622-.352l1.062-.284c.133-.035.238-.037.316-.006.077.03.128.092.153.184l.133.496c.15-.375.37-.686.662-.934.29-.248.645-.428 1.063-.54.943-.252 1.805-.16 2.586.275.782.436 1.296 1.11 1.54 2.025.257.956.168 1.828-.266 2.617-.434.79-1.108 1.305-2.023 1.55-.372.1-.734.142-1.086.125-.35-.016-.672-.09-.964-.225zm.408-4.845c-.455.122-.784.39-.988.804-.205.414-.237.883-.096 1.407.14.524.402.914.786 1.17.384.258.804.325 1.26.203.454-.122.784-.39.99-.808.206-.418.24-.886.1-1.405-.14-.524-.402-.914-.786-1.17-.384-.258-.806-.324-1.266-.2zm9.99 1.135l1.482-.397c.317-.085.556-.087.715-.007.16.08.276.254.347.52.073.272.06.485-.04.64-.098.154-.304.273-.616.357l-4.673 1.252c-.308.082-.543.082-.706-.003-.162-.085-.28-.263-.352-.534-.073-.27-.06-.48.035-.626.096-.147.303-.263.62-.348l1.482-.397-1.603-5.983-.76.203c-.31.084-.55.083-.72-.002-.168-.086-.288-.262-.36-.528-.072-.27-.057-.485.044-.64.1-.155.31-.275.627-.36l2.06-.552c.13-.035.237-.035.323 0 .085.032.14.095.165.187l1.934 7.217zM65.87 13.92l.11-.03c.25-.065.456-.05.622.045.166.096.282.266.347.51.07.266.054.476-.05.63-.104.153-.312.272-.625.355l-.648.174c-.23.062-.413.064-.55.007-.135-.056-.27-.19-.405-.4-.314.355-.667.656-1.058.904-.392.248-.806.43-1.243.547-.738.2-1.37.17-1.89-.083-.522-.254-.868-.7-1.04-1.34-.184-.69-.054-1.298.39-1.826.446-.527 1.162-.923 2.15-1.188.22-.06.458-.11.712-.154.255-.043.543-.08.864-.113l-.035-.13c-.11-.414-.294-.702-.552-.865-.258-.162-.582-.19-.973-.086-.303.08-.66.297-1.07.65-.41.35-.727.555-.947.614-.216.058-.408.042-.575-.05-.167-.09-.28-.238-.334-.445-.1-.372.092-.74.58-1.105.485-.364 1.196-.672 2.134-.923.98-.262 1.73-.26 2.254.002.523.264.906.846 1.147 1.747l.686 2.557zm-2.024-.883c-.243.01-.465.03-.665.057-.198.026-.38.06-.547.106-.505.135-.88.326-1.12.573-.242.247-.323.52-.243.82.072.266.218.444.44.535.22.09.504.09.85-.002.316-.085.602-.21.858-.378.255-.167.493-.383.712-.65l-.284-1.06zm6.243 1.268c-.096.124-.2.227-.314.31-.113.08-.237.14-.37.176-.197.054-.35.038-.46-.046-.108-.084-.2-.27-.28-.56l-.244-.917c-.082-.303-.09-.532-.022-.685.068-.154.225-.264.474-.33.27-.073.526 0 .767.215.14.116.253.2.34.25.28.14.583.222.908.244.326.022.68-.02 1.06-.12.332-.09.58-.225.742-.407.163-.18.217-.375.162-.582-.1-.37-.7-.487-1.8-.345-.24.036-.432.06-.57.072-.83.104-1.484.047-1.96-.173-.48-.22-.79-.602-.937-1.15-.174-.647-.074-1.21.3-1.69s.996-.836 1.864-1.068c.298-.08.61-.138.94-.174.326-.037.67-.048 1.027-.036.066-.14.145-.253.24-.337.092-.085.205-.145.338-.18.19-.05.348-.03.478.06s.227.253.29.487l.227.848c.053.198.043.364-.03.5-.07.134-.2.226-.383.275-.188.05-.555-.027-1.1-.233-.546-.206-1.048-.247-1.508-.124-.36.096-.62.23-.788.4-.166.17-.22.358-.166.564.086.322.558.427 1.415.316.247-.037.442-.064.584-.083 1.08-.126 1.854-.09 2.323.106.47.197.782.592.94 1.184.187.694.075 1.3-.336 1.816-.41.516-1.086.9-2.028 1.153-.368.098-.728.168-1.08.21-.354.044-.702.062-1.043.055zm7.686-8.037c.086-.323.256-.598.51-.824.255-.225.587-.393.996-.503.726-.193 1.343-.132 1.85.186.505.317.864.87 1.076 1.662l.69 2.57.116-.03c.243-.066.445-.052.605.04.16.093.272.26.338.504.072.27.06.484-.04.64-.1.153-.304.273-.617.356l-1.708.458c-.308.083-.544.082-.707-.002-.163-.085-.28-.263-.353-.534-.067-.248-.054-.45.036-.608.09-.157.26-.27.51-.336l.11-.03-.538-2.005c-.158-.587-.34-.976-.545-1.164-.206-.19-.484-.237-.833-.143-.367.098-.642.33-.825.698-.183.367-.213.776-.093 1.226l.538 2.006.11-.03c.248-.066.452-.053.613.04.16.092.273.26.338.503.072.272.058.485-.043.64-.1.155-.306.274-.614.356l-1.71.46c-.316.084-.555.086-.715.003-.16-.083-.276-.262-.35-.538-.065-.243-.052-.445.04-.605.093-.16.26-.273.505-.34l.117-.03-1.603-5.983-.118.03c-.244.066-.45.05-.615-.045-.166-.096-.282-.268-.348-.516-.074-.27-.06-.484.04-.64.103-.155.312-.275.63-.36l1.295-.347c.156-.043.273-.04.35.01.077.047.14.16.185.333l.776 2.895z" fill="#F1F1F1" fill-rule="evenodd"/>
</svg>
