<svg width="20" height="20" viewBox="0 0 20 20" xmlns="http://www.w3.org/2000/svg">
  <g fill="#F1F1F1" fill-rule="evenodd">
    <path d="M5 6.915c-.368.155-.763.26-1.178.307.423-.242.75-.624.902-1.08-.397.224-.836.387-1.303.474C3.048 6.236 2.514 6 1.924 6 .79 6-.127 6.873-.127 7.95c0 .154.017.303.052.445-1.705-.08-3.217-.858-4.23-2.038-.175.288-.277.623-.277.98 0 .678.363 1.275.913 1.624-.335-.01-.652-.096-.928-.243v.025c0 .945.707 1.734 1.645 1.913-.172.044-.353.068-.54.068-.132 0-.26-.012-.386-.035.262.775 1.02 1.34 1.917 1.355-.702.523-1.586.835-2.548.835-.166 0-.33-.01-.49-.027.908.554 1.986.877 3.145.877 3.774 0 5.837-2.972 5.837-5.55 0-.085-.002-.17-.006-.253.4-.275.75-.618 1.024-1.01zM15 16.915c-.368.155-.763.26-1.178.307.423-.242.75-.624.902-1.08-.397.224-.836.387-1.303.474-.373-.38-.907-.616-1.497-.616-1.133 0-2.05.873-2.05 1.95 0 .154.017.303.052.445-1.705-.08-3.217-.858-4.23-2.038-.175.288-.277.623-.277.98 0 .678.363 1.275.913 1.624-.335-.01-.652-.096-.928-.243v.025c0 .945.707 1.734 1.645 1.913-.172.044-.353.068-.54.068-.132 0-.26-.012-.386-.035.262.775 1.02 1.34 1.917 1.355-.702.523-1.586.835-2.548.835-.166 0-.33-.01-.49-.027.908.554 1.986.877 3.145.877 3.774 0 5.837-2.972 5.837-5.55 0-.085-.002-.17-.006-.253.4-.275.75-.618 1.024-1.01zM25 6.915c-.368.155-.763.26-1.178.307.423-.242.75-.624.902-1.08-.397.224-.836.387-1.303.474-.373-.38-.907-.616-1.497-.616-1.133 0-2.05.873-2.05 1.95 0 .154.017.303.052.445-1.705-.08-3.217-.858-4.23-2.038-.175.288-.277.623-.277.98 0 .678.363 1.275.913 1.624-.335-.01-.652-.096-.928-.243v.025c0 .945.707 1.734 1.645 1.913-.172.044-.353.068-.54.068-.132 0-.26-.012-.386-.035.262.775 1.02 1.34 1.917 1.355-.702.523-1.586.835-2.548.835-.166 0-.33-.01-.49-.027.908.554 1.986.877 3.145.877 3.774 0 5.837-2.972 5.837-5.55 0-.085-.002-.17-.006-.253.4-.275.75-.618 1.024-1.01zM15-3.085c-.368.155-.763.26-1.178.307.423-.242.75-.624.902-1.08-.397.224-.836.387-1.303.474-.373-.38-.907-.616-1.497-.616-1.133 0-2.05.873-2.05 1.95 0 .154.017.303.052.445-1.705-.08-3.217-.858-4.23-2.038-.175.288-.277.623-.277.98 0 .678.363 1.275.913 1.624-.335-.01-.652-.096-.928-.243v.025c0 .945.707 1.734 1.645 1.913-.172.044-.353.068-.54.068-.132 0-.26-.012-.386-.035.262.775 1.02 1.34 1.917 1.355-.702.523-1.586.835-2.548.835-.166 0-.33-.01-.49-.027.908.554 1.986.877 3.145.877 3.774 0 5.837-2.972 5.837-5.55 0-.085-.002-.17-.006-.253.4-.275.75-.618 1.024-1.01z"/>
  </g>
</svg>
