<?xml version="1.0" encoding="UTF-8"?><!DOCTYPE svg PUBLIC "-//W3C//DTD SVG 1.1//EN" "http://www.w3.org/Graphics/SVG/1.1/DTD/svg11.dtd"><svg xmlns="http://www.w3.org/2000/svg"><symbol id="2" viewBox="0 0 77 77"><path d="M77 38c-5.428 2.74-10.08 6.118-13.955 10.133C59.17 52.15 56.087 56.77 53.795 62h-.8V51.963H36.054V24.04h16.943V14h.8c2.322 5.293 5.42 9.94 9.296 13.94 3.875 4 8.51 7.353 13.908 10.06zM33.652 51.963h-7.154V24.04h7.154v27.922zm-10.637 0h-5.177V24.04h5.177v27.922zm-10.59 0H9.13V24.04h3.295v27.922zm-10.12 0H0V24.04h2.306v27.922z" fill-rule="evenodd"/></symbol><symbol id="calendar" viewBox="0 0 26 26"><path d="M10.25 10.5h2.5V13h-2.5v-2.5zm3.75 0h2.5V13H14v-2.5zm3.75 0h2.5V13h-2.5v-2.5zM6.5 18H9v2.5H6.5V18zm3.75 0h2.5v2.5h-2.5V18zM14 18h2.5v2.5H14V18zm-3.75-3.75h2.5v2.5h-2.5v-2.5zm3.75 0h2.5v2.5H14v-2.5zm3.75 0h2.5v2.5h-2.5v-2.5zm-11.25 0H9v2.5H6.5v-2.5zM20.25 3v1.25h-2.5V3H9v1.25H6.5V3H4v20h18.75V3h-2.5zm1.25 18.75H5.25V8H21.5v13.75z" fill-rule="evenodd"/></symbol><symbol id="camera" viewBox="0 0 200 200"><path d="M62.4 111.5c0 20.7 17 37.5 37.6 37.5 20.7 0 37.6-16.8 37.6-37.5S120.6 74 100 74c-20.7 0-37.6 16.8-37.6 37.5zM181 48h-40.5c-3-11.5-5.8-23-17.4-23H77c-11.7 0-14.6 11.5-17.5 23H19c-6.3 0-11.5 5.3-11.5 11.6v104c0 6.2 5.2 11.4 11.6 11.4h162c6.5 0 11.7-5.2 11.7-11.5v-104c0-6.2-5.2-11.4-11.6-11.4zm-81 114.7c-28.3 0-51.3-23-51.3-51.2 0-28.2 23-51.2 51.3-51.2 28.3 0 51.3 23 51.3 51.2 0 28.3-23 51.2-51.3 51.2zm72.6-84.3c5 0 9-4 9-9s-4-9-9-9-9 4-9 9 4 9 9 9z" fill-rule="evenodd"/></symbol><symbol id="cancel" viewBox="0 0 26 26"><path d="M13.14 14.486l-7.2 7.205c-.41.413-1.027.413-1.413 0-.41-.36-.41-.977 0-1.363l7.2-7.205L4.27 5.66c-.36-.386-.36-1.03 0-1.39.41-.36 1.03-.36 1.414 0l7.457 7.463 7.2-7.205c.387-.412 1.03-.412 1.39 0 .36.36.36.977 0 1.363l-7.25 7.206 7.02 7.05c.41.387.41 1.03 0 1.39-.36.413-.98.413-1.364 0L13.14 14.54v-.052z" fill-rule="evenodd"/></symbol><symbol id="clipboard" viewBox="0 0 26 26"><path d="M6.667 19H12v1.333H6.667V19zm6.666-8H6.667v1.333h6.666V11zM16 15v-2.667l-4 4 4 4v-2.666h6.667V15H16zm-6-1.333H6.667V15H10v-1.333zm-3.333 4H10v-1.334H6.667v1.334zm12 1.333H20v2.667c-.02.375-.146.687-.396.937s-.562.375-.937.396H5.333C4.603 23 4 22.396 4 21.667V7c0-.73.604-1.333 1.333-1.333h4A2.658 2.658 0 0 1 12 3a2.659 2.659 0 0 1 2.667 2.667h4C19.397 5.667 20 6.27 20 7v6.667h-1.333v-4H5.333v12h13.334V19zm-12-10.667h10.666C17.333 7.603 16.73 7 16 7h-1.333c-.73 0-1.334-.604-1.334-1.333 0-.73-.604-1.334-1.333-1.334-.73 0-1.333.604-1.333 1.334 0 .73-.604 1.333-1.334 1.333H8c-.73 0-1.333.604-1.333 1.333z" fill-rule="evenodd"/></symbol><symbol id="detail" viewBox="0 0 34 26"><path d="M17 21.8c7.77 0 14.07-8.4 14.07-8.4S24.77 5 17 5C9.23 5 2.93 13.4 2.93 13.4s6.3 8.4 14.07 8.4zm-.014-1.4a7 7 0 1 0 0-14 7 7 0 0 0 0 14zm0-4.9a2.1 2.1 0 1 0 0-4.2 2.1 2.1 0 0 0 0 4.2zm.7-2.1a.7.7 0 1 0 .001-1.399.7.7 0 0 0-.001 1.399z" fill-rule="evenodd"/></symbol><symbol id="download" viewBox="0 0 26 26"><path d="M21.762 12.406c.363 0 .66.115.89.346.232.23.348.53.348.892v7.128c0 .363-.116.66-.347.89-.23.232-.528.348-.89.348H4.237c-.363 0-.66-.116-.89-.347-.232-.23-.348-.528-.348-.89v-7.13c0-.362.116-.66.347-.89.23-.232.528-.347.89-.347h4.456c.627 0 1.023.28 1.188.842a3.299 3.299 0 0 0 1.19 1.658c.56.412 1.204.62 1.93.62s1.37-.208 1.93-.62a3.299 3.299 0 0 0 1.19-1.658c.164-.562.56-.842 1.187-.842h4.455zm-9.01.644L9.287 8.198c-.066-.165-.082-.28-.05-.347a.337.337 0 0 1 .298-.147h1.633V3.347c0-.23.116-.347.347-.347h2.97c.23 0 .347.116.347.347v4.356h1.633c.132 0 .23.05.297.148.033.067.017.183-.05.348l-3.415 4.852c-.066.1-.165.148-.297.148-.132 0-.215-.05-.248-.148z" fill-rule="evenodd"/></symbol><symbol id="emotions" viewBox="0 0 200 200"><path d="M100 175c41.4 0 75-33.6 75-75s-33.6-75-75-75-75 33.6-75 75 33.6 75 75 75zm0-9.4c-8.8 0-17.6-2-25.4-5.6-8-3.7-15.2-9-20.8-15.2-5.7-6.2-10.2-13.8-13-22-2.8-8-4-16.6-3-24.7 0-2.5 2.6-5 5.5-5h.5c2.8.5 5 2.7 5.2 5 1.3 14 7.2 26.6 16.6 35.7 9.3 9 21.7 14.4 34 14.4h.8c12.3 0 24.7-5.3 34-14.4 9.5-9.2 15.3-21.7 16.6-35.3.3-3 2.7-5 5.7-5h.5c2.7.2 5 2.4 5 5 1 8.2-.2 16.8-3 25-2.8 8-7.3 15.6-13 21.8-5.6 6.3-12.7 11.6-20.7 15.3-8 3.6-16.7 5.5-25.5 5.6zM84.8 74.2c-2 0-3.5-1.6-3.5-3.5 0-5.8-4.8-10.5-10.6-10.5S60.2 65 60.2 70.7c0 2-1.6 3.5-3.6 3.5S53 72.6 53 70.7C53 61 61 53 70.8 53s17.6 8 17.6 17.7c0 2-1.6 3.5-3.5 3.5zm58.6 0c-2 0-3.6-1.6-3.6-3.5 0-5.8-4.7-10.5-10.5-10.5s-10.6 4.7-10.6 10.5c0 2-1.5 3.5-3.5 3.5s-3.5-1.6-3.5-3.5c0-9.7 8-17.6 17.6-17.6 9.7 0 17.7 8 17.7 18 0 2-1.8 3.6-3.7 3.6z" fill-rule="evenodd"/></symbol><symbol id="eyeball" viewBox="0 0 100 100"><path d="M50 63.7c7.6 0 13.7-6 13.7-13.7 0-7.6-6-13.7-13.7-13.7-7.6 0-13.7 6-13.7 13.7 0 7.6 6 13.7 13.7 13.7zm5.6-16.3c1.6 0 3-1.3 3-3 0-1.6-1.4-3-3-3-1.7 0-3 1.4-3 3 0 1.7 1.3 3 3 3zm-42.2 2h18v1h-18v-1zM16 36.3l17 6.3-.4 1-16.7-6.4.4-1zm7.4-11.4l13.3 12-.7.8-13.3-12 .7-.8zm11-8l7.8 16-1 .5-7.8-16 1-.5zm13-3.5L49 31l-1 .2-1.6-17.8h1zM61 14.7L56 32l-1-.4 5-17.2 1 .3zM73 21L62 35l-.7-.6L72 20.3l1 .6zm9 10l-15.3 9.5-.6-1 15.3-9.4.6 1zm4.6 12.7L69 47l-.2-1 17.6-3.4.2 1zm-.2 13.6L68.8 54l.2-1 17.6 3.3-.2 1zm-5 12.6L66 60.3l.7-1L82 69l-.7 1zM72 79.6L61.3 65.4l.8-.6L73 79l-1 .7zm-12 6l-5-17.3 1-.3 5 17.3-1 .3zm-13.6 1l1.6-18 1 .2-1.6 17.7h-1zm-13-4l8-16 .8.5-7.8 16-1-.4zm-10.7-8.3l13.3-12 .7.8-13.3 12-.7-.8zM50 100c27.6 0 50-22.4 50-50S77.6 0 50 0 0 22.4 0 50s22.4 50 50 50zm0-3.2c26 0 46.8-21 46.8-46.8 0-26-21-46.8-46.8-46.8-26 0-46.8 21-46.8 46.8 0 26 21 46.8 46.8 46.8z" fill-rule="evenodd"/></symbol><symbol id="followed_by" viewBox="0 0 60 60"><path d="M39.3 35c6 0 10.7-5 10.7-11s-4.8-10.8-10.7-10.8S28.6 18 28.6 24c0 6 4.8 11 10.7 11zm-2.5 14.6c1.4 2.4 3.6 2.4 5 0L46 42c1.5-2.4.3-4.4-2.4-4.4H35c-2.7 0-3.8 2-2.5 4.4l4.3 7.6zM18.8 36c5.4 0 9.8-4.5 9.8-10 0-5.7-4.4-10.2-9.8-10.2S9 20.3 9 25.8c0 5.7 4.4 10.3 9.8 10.3zm-2.3 13.7c1.3 2.2 3.3 2.2 4.6 0l4-7c1.3-2.3.2-4-2.3-4H15c-2.6 0-3.7 1.7-2.4 4l4 7z" fill="#CECECF"/><path d="M28.6 33C36 33 42 27 42 19.8c0-7.3-6-13.3-13.4-13.3s-13.4 6-13.4 13.3c0 7.4 6 13.4 13.4 13.4zm-3 18c1.6 3 4.4 3 6 0l5.5-9.2c1.8-3 .4-5.4-3-5.4H23.3c-3.5 0-5 2.4-3.2 5.4l5.5 9.2z"/></symbol><symbol id="following" viewBox="0 0 60 60"><path d="M15.4 41.5c4-1.3 6.4-5.7 5-10-1.2-4.2-5.6-6.7-9.7-5.4-4 1.4-6.4 5.8-5 10 1.2 4.3 5.6 6.7 9.7 5.5zm1.4 11c1.5 1.3 3 .8 3.5-1.2l1.3-6.2c.5-2-.7-3-2.7-2.5l-6 1.8c-2 .6-2.3 2.2-.8 3.7l4.6 4.4z" fill="#111"/><path d="M39.8 33.2c7.4 0 13.3-6 13.3-13.3C53 12.4 47.3 6.5 40 6.5c-7.4 0-13.4 6-13.4 13.3 0 7.3 6 13.2 13.4 13.2zm-3 18c1.6 3 4.4 3 6 0l5.4-9.2c1.8-3 .4-5.4-3-5.4H34.3c-3.4 0-4.8 2.4-3 5.4l5.3 9.2z"/></symbol><symbol id="follows" viewBox="0 0 60 60"><path d="M15.4 41.5c4-1.3 6.4-5.7 5-10-1.2-4.2-5.6-6.7-9.7-5.4-4 1.4-6.4 5.8-5 10 1.2 4.3 5.6 6.7 9.7 5.5zm1.4 11c1.5 1.3 3 .8 3.5-1.2l1.3-6.2c.5-2-.7-3-2.7-2.5l-6 1.8c-2 .6-2.3 2.2-.8 3.7l4.6 4.4z"/><path d="M39.8 33.2c7.4 0 13.3-6 13.3-13.3C53 12.4 47.3 6.5 40 6.5c-7.4 0-13.4 6-13.4 13.3 0 7.3 6 13.2 13.4 13.2zm-3 18c1.6 3 4.4 3 6 0l5.4-9.2c1.8-3 .4-5.4-3-5.4H34.3c-3.4 0-4.8 2.4-3 5.4l5.3 9.2z" fill="#CECECF"/></symbol><symbol id="geoPicker" viewBox="0 0 200 200"><path d="M100 175c15.56 0 50-71.277 50-99.286C150 47.706 127.614 25 100 25S50 47.706 50 75.714C50 103.724 84.44 175 100 175zm0-75c13.807 0 25-11.193 25-25s-11.193-25-25-25-25 11.193-25 25 11.193 25 25 25z" fill-rule="evenodd"/></symbol><symbol id="instagram" viewBox="0 0 775 300"><path d="M44.4 41c-7 0-16.3 7.5-21.7 12.5C10.7 64 0 83.5 0 99.2c0 22.2 19 30.6 23.6 30.6 1.6 0 3-.8 3-3 0-1.6-1-3-2.2-4.5-4.3-6.7-5.7-13-5.7-21.6 0-18 8.2-34.4 15-42 1.4-1.3 4.2-4.2 5-4.2 1 0 1 .6 1 2.8L39 174.7c0 18.4-5.3 25.7-5.3 30 0 2 1 2.4 2.4 2.4 7.6 0 15-9 17-12.3 6.6-11.2 8-20 8-45.3V50.7c0-2.7-.6-3.8-3-5.5C54 43 50 41 44.3 41zm212.4.3c-3.5 0-5 2-5.2 7.5l-.8 23.4-20.4-.7c-1.3 0-1.8.4-2.4 1.5-1.7 3.2-2.6 5.8-2.6 10 0 3.5 1.6 4 3 4l21.2.5v44.7c0 9.5-6 21.8-16.6 32 0 0 1-3 .8-6.3 0-9.3-6-17.6-13.7-23.5L201 120c4-4.6 10.7-13.8 10.7-21.6 0-6-3.8-8.6-11-8.6-10 0-21.5 9-21.5 22.7 0 5 2.2 9.5 5.6 13-4.7 8.7-11.2 20.2-16 28.4-3.7 6.2-10 16-13.6 16-2.7 0-4-4.4-4-20.8 0-13.6 1-28.4 1.5-42.6 0-3.2-.6-6.2-4.8-9.2-4-2.5-8.8-6-13.7-6-11 0-18.5 10.2-23.6 20-5.4 10.3-8.2 19-12.3 31.5l.5-43.3c0-3-.8-4.2-3.2-5.3-3.2-1.3-8-3-12-3-3.6 0-4 1.6-4 5.3l-.5 51.8v20c0 18 2.2 21 13 21 5.8 0 7.7-.7 7.8-5.7.3-3.2 1.8-11 4-19 6-23.3 13.4-41.8 26-55.8 1.3-1.4 2.3-1 2 1 0 0-2 31.6-2 44.5 0 23 3.6 35 15 35 11.2 0 22.3-14.5 28.3-24.2l19.2-32.3c12.5 10.7 21.2 19 21.2 29 0 6.2-4 12.4-10 12.4-7.4 0-12.2-8-17.2-8-4.2 0-9.6 8.2-9.6 12.8 0 4.3 9.4 10.5 26.4 10.5 25 0 38.6-17.3 46.7-36.4 1.6 22.7 10.7 36 24.7 36 9.3 0 20-11.7 24.8-26 0 0 .5 3.7 4.2 11.3 5 10 12.8 14.4 22.4 14.4 12 0 22.2-7.2 28.4-19.3 1 9.2 8.7 19.3 21 19.3 8 0 15-6 19.7-15.8 0 0 6 16.2 23.6 16.2 9.8 0 21.4-9 24.2-15.7l.3 9.6-25.8 24c-7.6 7.3-15.6 17.8-15.6 29.4 0 14.8 14 23.3 26.3 23.3 12.6 0 21-8 25.7-15 6-8.6 8.3-25.2 8.3-41.4l-.5-24.3c17.4-19.2 31-45.7 37.2-64.5l13.2-.4c2.5-.2 2.4 1 2 2.4-2.3 9.8-4.3 21-4.3 32 0 18.4 4.2 26.4 10.3 33 5.2 5.4 10.5 7.3 16 7.3 10.8 0 17.6-8.8 19.8-14.5 5 10 12.5 14.5 22 14.5 12 0 22.3-7.2 28.5-19.3 1 9.2 8.6 19.3 21 19.3 9.3 0 14.7-5.4 19-15.4 0 3.2 0 6.7.2 10 .2 1.6 1.5 2.6 2.7 3 4 1.6 7.4 2.3 10.5 2.3 8 0 10-1.7 10-7 0-8.8 0-22.6 2.6-33.7 2.6-11 6.6-23.6 12-32.3.6-1 1.8-.6 2 .5.7 18.6 2 50 6.8 58.3 2.5 3.8 6.2 6.7 11.8 6.7 2.6 0 5.8-1 6.7-1.8.8-.7 1.2-1.4 1.2-2.7 0-23.8 7.4-47 14.8-62.4.2-.4.8-.5.8 0l-.5 17.3c0 28 2 45.8 16 54.4 2.3 1.2 5.3 2.3 9.2 2.3 7.2 0 13.7-4 17-10.4 2.5-5 5-14.7 5-20.2 0-2 0-5.5-3.4-5.5-2 0-3 1.4-3.6 3.6-1 4.6-2 8.6-3.7 13-1.6 4.5-4 7-7 7-3.4 0-5-2.7-6-4.3-4.5-6.7-4.8-22-4.8-34.7l1-32.8c0-2.7-1-6-5.3-8.3-2.8-1.8-10-4.8-14.2-4.8-4 0-6 2.3-7.5 5.6-2.7 6-11.8 29.7-14.3 49 0 .5-.7.6-.8 0-1.2-13.7-2-30-2-41 0-3.5-.7-8.2-7.8-11.3-3.4-1.5-6.3-2.3-9.7-2.3-4.5 0-5.4 2-7 5-4.8 9-8.2 20.7-13.3 35.6v-34c0-1.6-1-3.7-3.7-4.3-7-1.6-10-2.3-12.8-2.3-2 0-3 1.6-3 3.3l-.5 58c-1.3 7-6.7 24-14.4 24-6.3 0-9.3-6.4-9.3-33l1.2-43.6c0-3-1.8-4-4.5-5.2-3.7-1.5-6.7-2-10.5-2-4.8 0-6.5 2.2-5.5 7.7-5.3-7-10.5-11-19.8-11-18.8 0-33 22.4-33 55 0 9.3 2 18.4 2 18.4-1.6 7.5-5.5 13.7-11 13.7-7 0-11.4-9.8-11.4-26.8s6.5-36.3 6.5-41.5c0-6-3.8-10-11-10-3.4 0-16.4 3-23 4 0 0 .7-3.2.6-5.7 0-6-2.8-9.7-9.7-9.7-8.6 0-15 6.2-15 16.5 0 4.7 2.8 9 6.3 11.3-4.5 19-12 33.4-23 49.3l1-64.4c0-2-.6-3.4-4.7-5-2.2-1-5.7-2-10.2-2-6.5 0-6 4.6-5.7 8-3-5.2-9.4-11.4-19.4-11.4-27.2 0-35.5 41.5-31.4 71 0 3.6-3.7 16.3-11.6 16.3-6.3 0-9.2-6.4-9.2-33l1-43.6c0-3-1.7-4-4.3-5.2-4-1.5-7-2-10.7-2-4.8 0-6.4 2.2-5.4 7.7-5.4-7-10.7-11-20-11-18.7 0-33 20.5-33 53.2 0 12.5-10.7 31.5-18.2 31.5-4.2 0-8.6-7.7-8.6-27.3 0-13.5 1.8-59 1.8-59l26.3-.5c1.2 0 2-1.3 2.4-2.2 1.2-2.4 1.8-4 1.8-7 0-2.6-.5-3.6-4-3.8l-26-1.6 1-24.5c0-1.5-.8-2.5-2.5-3.3-5-2-11.3-4-15.2-4zm79.5 64c7 0 14 6.4 14 29 0 28.6-10.3 42-18.3 42-7.5 0-13.2-10.7-13.2-31.5 0-21 5.6-39.5 17.5-39.5zm252.2 0c7 0 14 6.4 14 29 0 28.6-10.3 42-18.3 42-7.5 0-13.2-10.7-13.2-31.5 0-21 5.6-39.5 17.5-39.5zm-160 0c9.2 0 13.2 9.5 13.2 27.8 0 27.7-8.2 43.4-18 43.4-6.5 0-13.8-10.5-13.4-31 0-13 4.3-40 18.2-40zm15.5 92.3v11c0 36-9.6 42-17.3 42-3 0-10-2.2-10-11 0-12.5 13-26.7 17-31l10.3-11z" fill="#3F5D87"/></symbol><symbol id="like" viewBox="0 0 26 26"><path d="M13 7.12C11.875 4.84 9.75 4 8.125 4 5.625 4 3 5.8 3 9.64c0 2.76 1.625 5.76 4.875 8.64 2.375 2.16 4.75 3.48 4.875 3.6.125 0 .125.12.25.12s.25 0 .25-.12c.125 0 2.5-1.44 4.875-3.6 3.25-3 4.875-5.88 4.875-8.64C23 5.8 20.375 4 17.875 4c-1.625 0-3.75.84-4.875 3.12z" fill-rule="evenodd"/></symbol><symbol id="link" viewBox="0 0 100 100"><path d="M62 37c0-13.8-11.2-25-25-25S12 23.2 12 37s11.2 25 25 25c0 13.8 11.2 25 25 25s25-11.2 25-25-11.2-25-25-25zm0 0c0 13.8-11.2 25-25 25 0-13.8 11.2-25 25-25z" fill="none"/></symbol><symbol id="location" viewBox="0 0 60 60"><path d="M44 20.2C44 12.358 37.732 6 30 6s-14 6.358-14 14.2C16 28.043 25.644 48 30 48s14-19.957 14-27.8zM37 23a7 7 0 1 0-14 0 7 7 0 0 0 14 0zm7 28.15c0-1.574-6.268-2.85-14-2.85s-14 1.276-14 2.85S22.268 54 30 54s14-1.276 14-2.85z" fill-rule="evenodd"/></symbol><symbol id="locked" viewBox="0 0 40 40"><path d="M20 31c-2.2 0-4-1.8-4-4s1.8-4 4-4 4 1.8 4 4-1.8 4-4 4zm10-13h-2v-6c0-4.4-3.6-8-8-8s-8 3.6-8 8v6h-2c-1 0-2 1-2 2v14c0 1 1 2 2 2h20c1 0 2-1 2-2V20c0-1-1-2-2-2zm-6 0h-8v-6c0-2.2 1.8-4 4-4s4 1.8 4 4v6z"/></symbol><symbol id="mentions" viewBox="0 0 26 26"><path d="M13 22a8.966 8.966 0 0 0 4.292-1.087m3.688-3.747A9 9 0 1 0 13 22m0-5.25c2.07 0 3.75-1.68 3.75-3.75 0-2.07-1.68-3.75-3.75-3.75-2.07 0-3.75 1.68-3.75 3.75 0 2.07 1.68 3.75 3.75 3.75" stroke="#000" stroke-width="3" stroke-linecap="round" stroke-linejoin="round" fill="none"/></symbol><symbol id="menu_deckard" viewBox="0 0 200 200"><g fill="none" fill-rule="evenodd"><circle fill="#F1F1F1" transform="rotate(-90 100 100)" cx="100" cy="100" r="100"/><g transform="translate(140 80)"><path d="M13.232 22.036c1.19-2.06 3.117-2.058 4.305 0l3.69 6.39c1.188 2.058.223 3.728-2.154 3.728h-7.377c-2.378 0-3.34-1.67-2.153-3.73l3.69-6.388z" fill="#000"/><circle stroke="#000" stroke-width="3" cx="15.385" cy="24.615" r="15.385"/><path d="M15.385 18.462a9.23 9.23 0 0 0 9.23-9.23 9.23 9.23 0 1 0-18.46-.002 9.23 9.23 0 0 0 9.23 9.232z" fill="#000"/></g><g transform="translate(29 80)"><circle stroke="#2AA9E0" stroke-width="3" cx="15.385" cy="24.615" r="15.385"/><path d="M15.385 18.462a9.23 9.23 0 0 0 9.23-9.23 9.23 9.23 0 1 0-18.46-.002 9.23 9.23 0 0 0 9.23 9.232z" fill="#3F5D87"/><path d="M13.232 30.887c1.19 2.06 3.117 2.058 4.305 0l3.69-6.39c1.188-2.058.223-3.728-2.154-3.728h-7.377c-2.378 0-3.34 1.67-2.153 3.728l3.69 6.39z" fill="#E6162D"/></g><path d="M114 100.486c-1.903.968-3.535 2.162-4.893 3.582a16.557 16.557 0 0 0-3.243 4.903h-.28v-3.548H99.64V95.55h5.94V92h.282c.814 1.87 1.9 3.514 3.26 4.928 1.358 1.414 2.984 2.6 4.876 3.558zm-15.2 4.936h-2.508V95.55H98.8v9.872zm-3.73 0h-1.815V95.55h1.815v9.872zm-3.713 0h-1.155V95.55h1.155v9.872zm-3.548 0H87V95.55h.81v9.872z" fill="#000"/></g></symbol><symbol id="menu_profile" viewBox="0 0 200 200"><path d="M100 200c55.2 0 100-44.8 100-100S155.2 0 100 0 0 44.8 0 100s44.8 100 100 100zm0-91c20.7 0 37.5-16.6 37.5-37S120.7 35 100 35 62.5 51.6 62.5 72s16.8 37 37.5 37zm-8.7 49.8c4.8 8.3 12.6 8.3 17.4 0l15-25.6c5-8.3 1-15-8.7-15H85c-9.6 0-13.6 6.7-8.7 15l15 25.6z" fill-rule="evenodd"/></symbol><symbol id="menu_rachael" viewBox="0 0 200 200"><g fill="none" fill-rule="evenodd"><circle fill="#F1F1F1" transform="rotate(-90 100 100)" cx="100" cy="100" r="100"/><g transform="translate(140 80)"><path d="M13.232 22.036c1.19-2.06 3.117-2.058 4.305 0l3.69 6.39c1.188 2.058.223 3.728-2.154 3.728h-7.377c-2.378 0-3.34-1.67-2.153-3.73l3.69-6.388z" fill="#E6162D"/><circle stroke="#2AA9E0" stroke-width="3" cx="15.385" cy="24.615" r="15.385"/><path d="M15.385 18.462a9.23 9.23 0 0 0 9.23-9.23 9.23 9.23 0 1 0-18.46-.002 9.23 9.23 0 0 0 9.23 9.232z" fill="#3F5D87"/></g><g transform="translate(29 80)"><circle stroke="#000" stroke-width="3" cx="15.385" cy="24.615" r="15.385"/><path d="M15.385 18.462a9.23 9.23 0 0 0 9.23-9.23 9.23 9.23 0 1 0-18.46-.002 9.23 9.23 0 0 0 9.23 9.232zm-2.153 12.425c1.19 2.06 3.117 2.058 4.305 0l3.69-6.39c1.188-2.058.223-3.728-2.154-3.728h-7.377c-2.378 0-3.34 1.67-2.153 3.728l3.69 6.39z" fill="#000"/></g><path d="M114 100.486c-1.903.968-3.535 2.162-4.893 3.582a16.557 16.557 0 0 0-3.243 4.903h-.28v-3.548H99.64V95.55h5.94V92h.282c.814 1.87 1.9 3.514 3.26 4.928 1.358 1.414 2.984 2.6 4.876 3.558zm-15.2 4.936h-2.508V95.55H98.8v9.872zm-3.73 0h-1.815V95.55h1.815v9.872zm-3.713 0h-1.155V95.55h1.155v9.872zm-3.548 0H87V95.55h.81v9.872z" fill="#000"/></g></symbol><symbol id="menu_search" viewBox="0 0 200 200"><path d="M6 54.003C6 27.493 27.497 6 54.003 6h92.594c26.51 0 48.003 21.497 48.003 48.003v92.594c0 26.51-21.497 48.003-48.003 48.003H54.003C27.493 194.6 6 173.103 6 146.597V54.003zM121.875 112.5h-4.938l-1.75-1.688C121.314 103.69 125 94.44 125 84.376c0-22.438-18.188-40.625-40.625-40.625-22.438 0-40.625 18.188-40.625 40.625S61.938 125 84.375 125c10.063 0 19.313-3.688 26.438-9.813l1.687 1.75v4.938l31.25 31.188 9.313-9.313-31.188-31.25zm-37.5 0c-15.563 0-28.125-12.563-28.125-28.125 0-15.563 12.563-28.125 28.125-28.125 15.563 0 28.125 12.563 28.125 28.125 0 15.563-12.563 28.125-28.125 28.125z" fill-rule="evenodd"/></symbol><symbol id="menu_tweet" viewBox="0 0 200 200"><path d="M77.08 25.087c12.493-22.782 32.75-22.778 45.242 0l68.91 125.66c12.494 22.783 1.553 41.25-24.407 41.25H32.575c-25.972 0-36.897-18.472-24.406-41.25l68.91-125.66zM138 75.997s-.108 5.597-6.828 11.408c-5.42 4.734-10.946 7.317-14.848 11.944 3.902.214 10.838-1.507 16.04-4.305-.867 2.475-1.625 4.197-3.25 6.456-4.878 6.566-9.972 8.933-18.317 11.516-4.77 1.506-7.803 5.488-7.803 5.488 5.094.215 10.08-.754 15.064-2.583-1.95 8.825-17.34 14.743-24.493 15.604 0 0 0 .108-.11.108-9.644 1.614-18.423 10.976-25.793 22.705-3.576 5.704-6.394 9.9-8.453 13.02-3.144 4.95-6.287 9.04-7.48 8.61-1.19-.43-1.083-4.52 1.518-11.19 1.41-3.66 8.128-19.156 19.508-35.835 14.63-21.737 36.307-46.38 65.244-52.944z" fill-rule="evenodd"/></symbol><symbol id="post" viewBox="0 0 60 60"><path d="M48.7 2H11.3C6.3 2 2 6.2 2 11.3v37.4c0 5 4.2 9.3 9.3 9.3h37.4c5 0 9.3-4.2 9.3-9.3V11.3c0-5-4.2-9.3-9.3-9.3zM20 26.5h20c.5 1 .7 2.3.7 3.5 0 6-4.8 10.7-10.7 10.7S19.3 36 19.3 30c0-1.2.2-2.4.6-3.5zm31 0v21c0 2-1.6 3.5-3.5 3.5h-35c-2 0-3.5-1.6-3.5-3.5v-21h5.5c-.3 1-.4 2.3-.4 3.5 0 8.8 7.2 16 16 16s16-7.2 16-16c0-1.2-.2-2.4-.5-3.5H51zm0-12.3c0 1-.8 1.8-1.8 1.8h-3.5c-1 0-1.7-.8-1.7-1.8v-3.4c0-1 .8-1.8 1.7-1.8h3.5c1 0 1.8.8 1.8 1.8v3.4z"/></symbol><symbol id="reply" viewBox="0 0 26 26"><path d="M11.333 3c4.603 0 8.334 3.397 8.334 7.587 0 4.19-3.73 7.587-8.334 7.587-.442 0-.875-.032-1.3-.092-1.79 2.005-3.856 2.365-5.922 2.418v-.49c1.117-.613 2.015-1.73 2.015-3.004 0-.177-.012-.352-.035-.523C4.205 15.093 3 12.968 3 10.587 3 6.397 6.73 3 11.333 3zm8.96 17.006c0 1.092.63 2.048 1.596 2.573V23c-1.79-.045-3.435-.354-4.986-2.073-.367.052-.743.08-1.126.08-1.658 0-3.184-.504-4.403-1.35 2.51-.01 4.883-.914 6.68-2.55a9.035 9.035 0 0 0 2.126-2.88 8.566 8.566 0 0 0 .784-4.25C22.224 11.15 23 12.745 23 14.504c0 2.04-1.044 3.862-2.678 5.054-.02.146-.03.296-.03.45z" fill-rule="evenodd"/></symbol><symbol id="retweet" viewBox="0 0 34 26"><path d="M19.23 17.597a.45.45 0 0 0-.363-.153h-8.4V12.11h2.8c.252 0 .47-.087.656-.263a.833.833 0 0 0 .277-.625.807.807 0 0 0-.22-.57L9.316 5.32c-.185-.204-.423-.306-.715-.306s-.53.1-.715.305L3.22 10.652a.803.803 0 0 0-.22.57c0 .24.093.448.277.624a.92.92 0 0 0 .656.264h2.8v8.334c0 .028.005.082.015.16.01.08.024.132.044.16.02.028.046.065.08.11.034.047.078.08.13.098.054.02.12.028.198.028h14a.46.46 0 0 0 .328-.132.42.42 0 0 0 .14-.312.531.531 0 0 0-.103-.292l-2.334-2.667zm10.837-3.708h-2.8V5.555c0-.028-.005-.08-.015-.16a.379.379 0 0 0-.044-.16c-.02-.028-.046-.065-.08-.11a.262.262 0 0 0-.13-.098.576.576 0 0 0-.198-.028h-14a.46.46 0 0 0-.328.132.423.423 0 0 0-.036.59L14.77 8.39c.086.11.208.166.363.166h8.4v5.333h-2.8a.925.925 0 0 0-.656.262.84.84 0 0 0-.277.626c0 .222.073.412.22.57l4.666 5.332c.194.214.432.32.714.32s.52-.106.715-.32l4.666-5.333a.803.803 0 0 0 .22-.57.833.833 0 0 0-.277-.624.919.919 0 0 0-.656-.264z" fill-rule="evenodd"/></symbol><symbol id="search" viewBox="0 0 26 26"><path d="M17.294 15.58h-.903l-.32-.31a7.405 7.405 0 0 0 1.796-4.837 7.435 7.435 0 0 0-14.867 0 7.433 7.433 0 0 0 7.433 7.433c1.84 0 3.533-.675 4.837-1.796l.31.32v.904L21.295 23 23 21.296l-5.706-5.717zm-6.77-.093a5.138 5.138 0 0 1-5.145-5.146 5.137 5.137 0 0 1 5.144-5.144 5.138 5.138 0 0 1 5.146 5.145 5.138 5.138 0 0 1-5.146 5.147z" fill-rule="evenodd"/></symbol><symbol id="sensitive" viewBox="0 0 200 200"><path d="M87.575 77.347l22.466-9.24c5.086-2.09 10.883.234 12.988 5.28 1.54 3.7 1.402 8.486-1.69 9.76-1.767.724-1.76 1.73-1.353 2.71.127.307.326.45.555.535l27.894-11.476c4.534-1.868 9.734.273 11.61 4.775 1.88 4.51-.342 9.517-4.808 11.54-1.948.885-14.09 6.134-26.825 11.62.998.984 1.824 2.164 2.34 3.562 1.476 4 .18 8.328-2.905 10.94l-40.27-40.005zm-1.955-1.94c4.568-1.945 9.794-4.095 9.794-4.095-3.267-7.835-11.862-8.86-19.986-6.03L85.62 75.405zM62.518 73.95a21.368 21.368 0 0 0-2.528 3.65c-6.076 11.204-8.776 17.064-8.782 17.076-.64 1.23-.927 2.45-1.07 3.826-.105.98-1.035 12.183 4.73 26.007 3.43 8.22 7.478 13.533 10.492 16.72-6.093-.2-11.818-5.395-15.655-14.598-5.467-13.11-5.578-25.223-5.578-25.223s-.262-.022-.404-.023c-2.012.006-4.33 1.057-4.41 3.438-.02.56-.653 9.805 5.237 23.926 3 7.195 7.152 12.466 12.01 15.25 4.008 2.297 9.026 2.643 13.48 1.4 2.792 2.056 6.348 2.07 9.797 1.267a116.241 116.241 0 0 0 6.646-1.775c5.265-1.488 12.855-3.94 22.394-7.866 2.197-.904 7.588-3.19 12.018-5.085L62.518 73.95zm103.3 79.928c27.357-33.167 25.452-82.187-5.714-113.147-31.166-30.96-80.513-32.85-113.9-5.675l4.253 4.226c30.707-24.552 75.75-22.67 104.258 5.65 28.508 28.32 30.404 73.065 5.688 103.568l5.415 5.38zM35.278 45.696C6.78 78.87 8.32 128.776 39.895 160.143c31.576 31.367 81.814 32.896 115.21 4.588l-5.405-5.37c-30.724 25.68-76.657 24.157-105.576-4.57-28.92-28.728-30.454-74.357-4.603-104.878l-4.243-4.216z" fill-rule="evenodd"/></symbol><symbol id="share" viewBox="0 0 34 26"><path d="M3 22c0-2.43 5.25-7.286 17.5-7.286v4.857L31 12.287 20.5 5v4.857C10.85 9.857 3 15.305 3 22z" fill-rule="evenodd"/></symbol><symbol id="sidebar_cancel" viewBox="0 0 200 200"><path d="M100.4 105.8l-28 28c-1.6 1.6-4 1.6-5.5 0-1.6-1.4-1.6-3.8 0-5.3l28-28-29-29c-1.4-1.5-1.4-4 0-5.4 1.6-1.4 4-1.4 5.5 0l29 29 28-28c1.5-1.6 4-1.6 5.4 0 1.4 1.4 1.4 3.8 0 5.3l-28.2 28 27.3 27.4c1.6 1.5 1.6 4 0 5.4-1.4 1.6-3.8 1.6-5.3 0L100.4 106zM100 200c55.2 0 100-44.8 100-100S155.2 0 100 0 0 44.8 0 100s44.8 100 100 100z" fill="#E6162D" fill-rule="evenodd"/></symbol><symbol id="sidebar_go" viewBox="0 0 200 200"><g fill-rule="evenodd"><circle fill="#F1F1F1" cx="100" cy="100" r="100"/><path d="M66.5 92.183c-8.667 4.753-8.666 12.46 0 17.212l47.807 26.217c8.667 4.753 15.693.59 15.693-9.286V75.252c0-9.88-7.028-14.038-15.693-9.286L66.5 92.183z"/></g></symbol><symbol id="sidebar_menu" viewBox="0 0 200 200"><g fill-rule="evenodd"><circle fill="#F1F1F1" cx="100" cy="100" r="100"/><path d="M96.63 30.143c1.862-3.393 4.88-3.392 6.74 0l10.26 18.714c1.862 3.393.232 6.143-3.634 6.143H90.004c-3.868 0-5.495-2.75-3.635-6.143l10.26-18.714z"/><circle cx="100" cy="100" r="15"/><rect x="86" y="145" width="28" height="28" rx="7"/></g></symbol><symbol id="sidebar_ok" viewBox="0 0 200 200"><path d="M100 200c55.2 0 100-44.8 100-100S155.2 0 100 0 0 44.8 0 100s44.8 100 100 100zm-22-63l68.2-68c1.4-1.4 3.6-1.4 5 0s1.4 3.6 0 5l-70.7 70.7c-.7.7-1.6 1-2.5 1-1 0-1.8-.3-2.5-1L50 119c-1.3-1.3-1.3-3.6 0-5s3.7-1.3 5 0l23 23z" fill="#59DE5D" fill-rule="evenodd"/></symbol><symbol id="sidebar_replicant" viewBox="0 0 200 200"><g fill="none" fill-rule="evenodd"><circle fill="#F1F1F1" transform="rotate(-90 100 100)" cx="100" cy="100" r="100"/><path d="M76.296 112.798H73.3V87.202h2.996v25.596zm-9.2 0H65V87.202h2.097v25.596z" fill="#000"/><path d="M85.923 112.798h-4.707V87.202h4.707v25.596z" fill="#E6162D"/><path d="M95.593 112.798H89.09V87.202h6.503v25.596z" fill="#3F5D87"/><path d="M135 100c-4.935 2.51-9.164 5.607-12.686 9.288-3.523 3.68-6.326 7.918-8.408 12.712h-.728v-9.202H97.775V87.202h15.403V78h.728c2.11 4.85 4.928 9.11 8.45 12.776 3.523 3.667 7.738 6.74 12.644 9.224z" fill="#2AA9E0"/></g></symbol><symbol id="sidebar_settings" viewBox="0 0 200 200"><g fill="none"><circle fill="#F1F1F1" cx="100" cy="100" r="100"/><circle fill="#2AA9E0" cx="100" cy="42.5" r="15"/><circle fill="#3F5D87" cx="100" cy="100" r="15"/><circle fill="#E6162D" cx="100" cy="157.5" r="15"/></g></symbol><symbol id="source" viewBox="0 0 26 26"><path d="M20.07 20.07C21.96 18.183 23 15.67 23 13s-1.04-5.182-2.93-7.07C18.183 4.04 15.67 3 13 3S7.818 4.04 5.93 5.93C4.04 7.817 3 10.33 3 13s1.04 5.182 2.93 7.07C7.817 21.96 10.33 23 13 23s5.182-1.04 7.07-2.93zm-.883-13.257a8.684 8.684 0 0 1 2.388 4.435c-.263-.388-.515-.532-.67.336-.16 1.414-1.46.51-2.276 1.013-.86-.58-2.792 1.126-2.464-.798.506-.868 2.735 1.16 1.624-.675-.71-1.282-2.59-4.12-2.346-5.59.03-2.145-2.19-.448-2.955.263-.516 1.424-.177 3.913-1.523 4.61-1.46.064-2.715.197-3.28 1.83-.342 1.17.362 2.908 1.614 3.177 1.834 1.15 2.49-1.35 4.208-1.395.534.558 1.988.736 2.11 1.362-1.13.2 1.43.948-.11 1.375-.848-.1-1.395-.88-.944-1.543-1.645-.383-1.698 2.38-3.28 1.51-.04-1.38-2.582-.448-.88-.168.586.256-.953.996-.12.862.407.022 1.782.504 1.41.828.766.475 1.41-1.14 2.16.037.54.903-.228 1.07-.906.612-.382.428.675 1.353 1.608 1.753.31.133.608.206.835.185.47-.543 1.34-.637 1.385.065a8.706 8.706 0 0 1-3.775.852 8.682 8.682 0 0 1-5.22-1.726c.402-.185.63-.415.243-.71-.302-.9-1.527-2.106-2.602-1.935a8.67 8.67 0 0 1-1.082-3.137c.9-.298 1.108-.887.914-1.085-.46-.4-.74-.967-.886-1.588a8.678 8.678 0 0 1 2.447-4.757C8.465 5.16 10.663 4.25 13 4.25s4.535.91 6.187 2.563z" fill-rule="evenodd"/></symbol><symbol id="star" viewBox="0 0 26 26"><path d="M23.73 11.103c.24-.22.33-.572.23-.89a.809.809 0 0 0-.7-.566l-6.387-.5a.795.795 0 0 1-.672-.5l-2.536-6.144a.798.798 0 0 0-.74-.503.797.797 0 0 0-.73.517L9.765 8.71a.802.802 0 0 1-.664.514l-6.38.62a.806.806 0 0 0-.685.58c-.097.32 0 .67.245.886l4.888 4.326c.226.2.327.516.262.82l-1.405 6.528a.854.854 0 0 0 .316.862.77.77 0 0 0 .882.03l5.448-3.52a.77.77 0 0 1 .827-.01l5.51 3.415a.765.765 0 0 0 .88-.046.852.852 0 0 0 .3-.867l-1.52-6.5a.859.859 0 0 1 .248-.825l4.81-4.42z" fill-rule="evenodd"/></symbol><symbol id="tags" viewBox="0 0 61 61"><path d="M36.46 37.243V25.346H24.564v11.898H36.46zm0 5.876v8.873c0 1.1.9 2.006 2.01 2.006h-.495c1.12 0 2.16-.878 2.344-1.96l1.26-9.594 10.187-1.338c1.09-.19 1.97-1.244 1.97-2.353v.494a2 2 0 0 0-2.007-2.008h-9.466l.624-4.743c.05-1.11.04-2.888.006-3.983l-.417-3.173h9.256c1.1 0 2.006-.9 2.006-2.008v.493c0-1.12-.88-2.16-1.96-2.344l-9.983-1.312-1.47-11.204C40.137 7.88 39.084 7 37.974 7h.494c-1.12 0-2.01.9-2.01 2.008v10.465l-4.22-.555c-1.11-.05-2.888-.04-3.983-.006l-3.694.485V9.007A1.998 1.998 0 0 0 22.556 7h.494c-1.11 0-2.166.88-2.354 1.97l-1.46 11.127-10.527 1.38c-1.09.19-1.97 1.244-1.97 2.353v-.493a2 2 0 0 0 2.006 2.008h9.8l-.417 3.173c-.034 1.095-.046 2.874.005 3.982l.624 4.743H8.743c-1.1 0-2.005.9-2.005 2.008v-.492c0 1.12.875 2.158 1.957 2.343l10.755 1.416 1.252 9.526C20.89 53.124 21.93 54 23.05 54h-.495a2.01 2.01 0 0 0 2.008-2.006v-8.807l3.676.483c1.106.05 2.885.04 3.98.005l4.24-.556z" fill-rule="evenodd"/></symbol><symbol id="trash" viewBox="0 0 26 26"><path d="M18.764 6.312c.665 0 1.158.54 1.1 1.203l-1.67 14.28c-.1.666-.574 1.205-1.058 1.205H8.348c-.485 0-.96-.54-1.057-1.204L5.62 7.516a1.087 1.087 0 0 1 1.1-1.204h12.044zM13.26 3.115c-.01-.064-.055-.115-.1-.115h-.84c-.045 0-.09.05-.1.115l-.112.962H5.515a.516.516 0 1 0 0 1.033h14.45a.515.515 0 0 0 0-1.033h-6.593l-.112-.962z" fill-rule="evenodd"/></symbol><symbol id="triangle" viewBox="0 0 150 150"><path d="M63.3 35.834c6.465-11.78 16.943-11.777 23.4 0l35.625 64.977c6.465 11.782.806 21.33-12.617 21.33H40.293c-13.43 0-19.08-9.548-12.62-21.33l35.623-64.976h.003z" stroke="#666" fill="#F1F1F1" fill-rule="evenodd"/></symbol><symbol id="tweet" viewBox="0 0 60 60"><path d="M57 6s-.4 3-4.5 5.7C49.2 14 46 15 43.5 17c2.2.5 6 0 9.2-1-.7 1-1.2 2-2.2 3-3 3.3-6 4.2-10.8 5-2.7.6-4.6 2.5-4.6 2.5 2.8.5 5.6.3 8.5-.4-1.7 4.7-10.5 7-14.4 7-5.4.2-10.8 4.6-15.6 10.4-2.3 2.8-4 5-5.5 6.4-2 2.5-4 4.5-4.7 4.2-.6-.3-.3-2.5 1.6-6 1-1.8 5.6-9.7 13-18C27.2 19.5 40.7 7.7 57 6z"/></symbol><symbol id="twitter" viewBox="0 0 300 300"><path d="M243 92.8c-6.8 3-14.2 5-22 6 8-4.8 14-12.2 17-21-7.5 4.3-15.7 7.5-24.4 9.2-7-7.4-16.8-12-27.8-12-21 0-38.2 17-38.2 38 0 2.8.4 5.7 1 8.5C117 120 88.8 104.8 70 82c-3.3 5.5-5.2 12-5.2 19 0 13 6.7 24.7 17 31.5-6.3-.2-12.2-2-17.3-4.7v.4c0 18.4 13 33.7 30.6 37.2-3 .8-6.5 1.3-10 1.3-2.4 0-4.8-.3-7.2-.7 5 15 19 26 35.7 26.3-13 10.2-29.5 16.2-47.4 16.2-3 0-6-.2-9-.5 17 10.7 37 17 58.5 17 70.2 0 108.6-57.7 108.6-107.7v-5c7.4-5.3 14-12 19-19.5z" fill="#2AA9E0"/></symbol><symbol id="unsplash" viewBox="0 0 775 300"><path d="M30.418 110.18v41.32c0 7.322 1.278 12.524 3.832 15.605 2.555 3.082 6.808 4.622 12.76 4.622s10.22-1.554 12.8-4.66c2.58-3.11 3.87-8.297 3.87-15.566v-41.32h-1.263c-2.79 0-4.912-.738-6.36-2.213-1.45-1.475-2.173-3.635-2.173-6.48 0-3.107.75-5.345 2.252-6.715 1.5-1.37 4.016-2.054 7.545-2.054h19.754c3.58 0 6.123.685 7.624 2.054 1.5 1.37 2.252 3.608 2.252 6.716 0 2.844-.725 5.004-2.173 6.48-1.45 1.474-3.57 2.21-6.36 2.21h-1.343v41.007c0 13.273-2.858 22.873-8.573 28.8-5.714 5.924-14.918 8.887-27.613 8.887-13.273 0-22.794-2.91-28.56-8.73-5.77-5.82-8.653-15.473-8.653-28.957V110.18H8.69c-2.843 0-5.003-.738-6.478-2.213C.737 106.492 0 104.332 0 101.487c0-3.107.777-5.345 2.33-6.715 1.555-1.37 4.122-2.054 7.704-2.054h20.384c3.53 0 6.084.685 7.664 2.054 1.58 1.37 2.37 3.608 2.37 6.716 0 2.844-.75 5.004-2.25 6.48-1.502 1.474-3.675 2.21-6.52 2.21H30.42zm146.562 58.78h1.027c2.95 0 5.162.724 6.637 2.173 1.475 1.448 2.212 3.62 2.212 6.518 0 3.108-.75 5.346-2.25 6.716-1.502 1.368-4.044 2.053-7.626 2.053h-19.436c-3.53 0-6.07-.685-7.624-2.054-1.554-1.37-2.33-3.61-2.33-6.717 0-2.897.75-5.07 2.25-6.518 1.502-1.45 3.754-2.173 6.756-2.173h.948v-22.834c0-6.32-.882-10.81-2.647-13.47-1.764-2.66-4.7-3.99-8.81-3.99-4.37 0-7.94 1.593-10.705 4.78-2.765 3.186-4.148 7.413-4.148 12.68v22.834h.948c3.003 0 5.24.724 6.716 2.173 1.475 1.448 2.212 3.62 2.212 6.518 0 3.108-.764 5.346-2.29 6.716-1.53 1.368-4.057 2.053-7.586 2.053H111.64c-3.53 0-6.058-.685-7.585-2.054-1.528-1.37-2.29-3.61-2.29-6.717 0-2.897.736-5.07 2.21-6.518 1.476-1.45 3.714-2.173 6.717-2.173h.948v-38.24h-1.343c-2.845 0-5.004-.725-6.48-2.173-1.474-1.45-2.21-3.57-2.21-6.362 0-3.107.762-5.346 2.29-6.715 1.527-1.37 4.108-2.055 7.743-2.055h13.43c1.476 0 2.595.29 3.36.87.763.58 1.145 1.422 1.145 2.528v6.163c2.423-3.794 5.517-6.65 9.283-8.574 3.767-1.922 8.125-2.884 13.076-2.884 8.428 0 14.71 2.555 18.844 7.664 4.135 5.11 6.202 12.905 6.202 23.387v26.39zm43.06 16.355c-1.37 1.053-2.778 1.856-4.227 2.41-1.448.553-2.936.83-4.464.83-2.266 0-3.86-.607-4.78-1.818-.923-1.213-1.383-3.477-1.383-6.796v-10.508c0-3.476.58-5.94 1.738-7.387 1.16-1.45 3.16-2.174 6.004-2.174 3.107 0 5.635 1.5 7.584 4.503 1.16 1.632 2.134 2.844 2.924 3.634 2.58 2.317 5.583 4.056 9.007 5.214 3.423 1.16 7.32 1.74 11.693 1.74 3.792 0 6.82-.74 9.086-2.214 2.265-1.475 3.397-3.397 3.397-5.767 0-4.267-6.082-7.217-18.25-8.85-2.686-.315-4.793-.605-6.32-.868-9.165-1.266-15.986-3.754-20.464-7.468-4.477-3.713-6.715-8.704-6.715-14.972 0-7.427 2.687-13.168 8.06-17.224 5.372-4.056 13.036-6.084 22.99-6.084 3.425 0 6.94.277 10.55.83 3.607.553 7.307 1.41 11.1 2.568 1.106-1.317 2.278-2.292 3.515-2.924 1.238-.632 2.62-.948 4.148-.948 2.16 0 3.806.672 4.94 2.015 1.13 1.343 1.697 3.358 1.697 6.044v9.718c0 2.265-.58 4.017-1.738 5.254-1.16 1.237-2.792 1.856-4.9 1.856-2.158 0-5.858-1.883-11.1-5.65-5.24-3.765-10.494-5.648-15.762-5.648-4.108 0-7.295.67-9.56 2.015-2.265 1.343-3.397 3.2-3.397 5.57 0 3.687 4.74 6.162 14.222 7.427 2.74.316 4.898.58 6.478.79 11.904 1.738 20.082 4.332 24.533 7.782 4.45 3.45 6.676 8.572 6.676 15.367 0 7.953-2.937 14.102-8.81 18.448-5.873 4.345-14.208 6.518-25.006 6.518-4.214 0-8.27-.276-12.167-.83a81.706 81.706 0 0 1-11.3-2.41zm102.95-6.32v21.49h10.033c3.582 0 6.15.684 7.704 2.054 1.553 1.37 2.33 3.61 2.33 6.716 0 3.056-.763 5.24-2.29 6.558-1.528 1.317-4.11 1.975-7.744 1.975h-33.5c-3.634 0-6.19-.646-7.663-1.936-1.475-1.29-2.213-3.49-2.213-6.598 0-3.107.75-5.346 2.252-6.715 1.5-1.37 4.042-2.054 7.623-2.054h4.662V130.72h-1.264c-2.79 0-4.924-.736-6.4-2.21-1.474-1.476-2.21-3.635-2.21-6.48 0-3.107.736-5.32 2.21-6.636 1.476-1.317 4.03-1.976 7.665-1.976h12.167c1.528 0 2.66.277 3.398.83.737.553 1.106 1.356 1.106 2.41v5.69c2.686-3.583 5.94-6.283 9.757-8.1 3.82-1.817 8.125-2.726 12.918-2.726 10.8 0 19.754 3.45 26.865 10.35 7.11 6.9 10.666 15.592 10.666 26.073 0 10.956-3.45 20.03-10.35 27.22-6.9 7.19-15.59 10.784-26.072 10.784-4.267 0-8.257-.594-11.97-1.78-3.714-1.184-6.94-2.91-9.68-5.174zm18.25-50.646c-5.214 0-9.507 1.924-12.878 5.77-3.37 3.844-5.057 8.77-5.057 14.774s1.686 10.93 5.057 14.774c3.37 3.845 7.664 5.768 12.878 5.768 5.215 0 9.52-1.936 12.918-5.807 3.398-3.873 5.096-8.784 5.096-14.736 0-6.005-1.685-10.93-5.056-14.775-3.37-3.846-7.69-5.77-12.958-5.77zm103.58 40.77h16.988c3.634 0 6.19.658 7.664 1.975 1.475 1.317 2.212 3.503 2.212 6.558 0 3.108-.75 5.346-2.252 6.716-1.5 1.368-4.042 2.053-7.624 2.053H408.24c-3.53 0-6.044-.685-7.545-2.054-1.502-1.37-2.252-3.61-2.252-6.717 0-3.108.724-5.307 2.173-6.597 1.448-1.29 3.99-1.936 7.624-1.936h16.987v-68.58h-8.69c-3.583 0-6.15-.698-7.705-2.094-1.553-1.396-2.33-3.62-2.33-6.676 0-3.108.763-5.346 2.29-6.716 1.528-1.37 4.11-2.054 7.744-2.054h23.624c1.474 0 2.62.303 3.436.91.817.604 1.225 1.434 1.225 2.487v82.723zm119.62 0h1.265c2.844 0 5.017.75 6.518 2.252 1.5 1.5 2.252 3.647 2.252 6.44 0 3.054-.777 5.253-2.33 6.596-1.555 1.343-4.122 2.015-7.704 2.015h-7.426c-2.634 0-4.596-.5-5.886-1.5-1.29-1.002-2.357-2.82-3.2-5.453-4.372 2.897-9.007 5.11-13.906 6.637-4.898 1.527-9.85 2.29-14.853 2.29-8.482 0-15.145-2.106-19.99-6.32-4.847-4.213-7.27-9.98-7.27-17.303 0-7.9 3.134-14.037 9.403-18.41 6.268-4.37 15.064-6.556 26.39-6.556 2.527 0 5.213.13 8.058.395 2.845.263 6.032.684 9.56 1.264v-1.5c0-4.742-1.145-8.35-3.436-10.826-2.292-2.474-5.676-3.712-10.153-3.712-3.475 0-7.913 1.29-13.312 3.87-5.4 2.582-9.363 3.873-11.89 3.873-2.476 0-4.478-.723-6.006-2.172-1.527-1.448-2.29-3.358-2.29-5.728 0-4.267 3.12-7.65 9.362-10.153 6.242-2.502 14.735-3.753 25.48-3.753 11.22 0 19.252 2.16 24.098 6.48 4.846 4.318 7.27 11.64 7.27 21.964v29.312zm-19.12-15.25c-2.633-.578-5.056-1.013-7.268-1.303-2.212-.29-4.267-.434-6.163-.434-5.795 0-10.338.974-13.63 2.923-3.292 1.95-4.938 4.635-4.938 8.06 0 3.054 1.053 5.385 3.16 6.992 2.107 1.606 5.136 2.41 9.086 2.41 3.635 0 7.058-.527 10.272-1.58 3.213-1.054 6.373-2.687 9.48-4.9V153.87zm63.13 31.447c-1.37 1.053-2.78 1.856-4.228 2.41-1.45.553-2.937.83-4.464.83-2.265 0-3.858-.607-4.78-1.818-.922-1.213-1.383-3.477-1.383-6.796v-10.508c0-3.476.58-5.94 1.738-7.387 1.16-1.45 3.16-2.174 6.005-2.174 3.108 0 5.636 1.5 7.585 4.503 1.16 1.632 2.133 2.844 2.923 3.634 2.58 2.317 5.584 4.056 9.007 5.214 3.424 1.16 7.322 1.74 11.694 1.74 3.792 0 6.82-.74 9.086-2.214 2.265-1.475 3.397-3.397 3.397-5.767 0-4.267-6.084-7.217-18.25-8.85-2.687-.315-4.794-.605-6.322-.868-9.165-1.266-15.986-3.754-20.463-7.468-4.477-3.713-6.716-8.704-6.716-14.972 0-7.427 2.685-13.168 8.058-17.224 5.373-4.056 13.037-6.084 22.992-6.084 3.423 0 6.94.277 10.547.83 3.61.553 7.31 1.41 11.1 2.568 1.107-1.317 2.28-2.292 3.517-2.924 1.238-.632 2.62-.948 4.148-.948 2.16 0 3.806.672 4.938 2.015 1.133 1.343 1.7 3.358 1.7 6.044v9.718c0 2.265-.58 4.017-1.74 5.254-1.158 1.237-2.79 1.856-4.898 1.856-2.16 0-5.86-1.883-11.1-5.65-5.242-3.765-10.496-5.648-15.763-5.648-4.11 0-7.296.67-9.56 2.015-2.266 1.343-3.4 3.2-3.4 5.57 0 3.687 4.742 6.162 14.223 7.427 2.74.316 4.9.58 6.48.79 11.903 1.738 20.08 4.332 24.53 7.782 4.452 3.45 6.677 8.572 6.677 15.367 0 7.953-2.936 14.102-8.81 18.448-5.872 4.345-14.207 6.518-25.005 6.518-4.214 0-8.27-.276-12.168-.83a81.709 81.709 0 0 1-11.298-2.41zm105.24-63.92c1.843-3.212 4.45-5.66 7.82-7.346 3.372-1.685 7.4-2.528 12.09-2.528 8.322 0 14.734 2.423 19.238 7.27 4.503 4.845 6.755 11.798 6.755 20.858v29.47h1.343c2.792 0 4.912.724 6.36 2.173 1.45 1.448 2.173 3.568 2.173 6.36 0 3.108-.75 5.346-2.252 6.716-1.502 1.368-4.043 2.053-7.625 2.053H740c-3.53 0-6.045-.685-7.546-2.054-1.502-1.37-2.252-3.61-2.252-6.717 0-2.844.71-4.978 2.133-6.4 1.422-1.422 3.555-2.133 6.4-2.133H740v-22.992c0-6.742-.83-11.417-2.49-14.024-1.66-2.607-4.49-3.91-8.493-3.91-4.214 0-7.822 1.698-10.825 5.095-3.002 3.397-4.503 7.676-4.503 12.838v22.992h1.263c2.844 0 4.99.724 6.44 2.173 1.448 1.448 2.172 3.568 2.172 6.36 0 3.108-.764 5.346-2.29 6.716-1.53 1.368-4.057 2.053-7.586 2.053h-19.595c-3.635 0-6.19-.672-7.664-2.015-1.474-1.343-2.21-3.595-2.21-6.755 0-2.792.723-4.912 2.17-6.36 1.45-1.45 3.57-2.173 6.362-2.173h1.343v-68.58h-1.343c-2.792 0-4.94-.75-6.44-2.252-1.5-1.5-2.25-3.674-2.25-6.518 0-3.108.762-5.346 2.29-6.716 1.527-1.37 4.108-2.054 7.743-2.054h14.853c1.79 0 3.03.37 3.714 1.106.685.738 1.027 2.107 1.027 4.11v33.182z" fill="#FFF" fill-rule="evenodd"/></symbol><symbol id="user" viewBox="0 0 26 26"><path d="M12.623 14.374a5.664 5.664 0 0 0 5.666-5.666C18.245 5.513 15.817 3 12.707 3 9.556 3 7 5.556 7 8.666c0 3.11 2.556 5.623 5.708 5.623l-.085.084zm-1.278 7.668c.682 1.277 1.874 1.277 2.556 0l2.3-3.92c.768-1.277.172-2.3-1.277-2.3H10.28c-1.448 0-2.045 1.023-1.278 2.3l2.258 3.92h.085z" fill-rule="evenodd"/></symbol><symbol id="users_in_photo" viewBox="0 0 100 117"><path d="M66.292 19.714C85.908 26.472 100 45.09 100 67c0 27.614-22.386 50-50 50S0 94.614 0 67c0-21.91 14.093-40.528 33.708-47.286l7.546-12.897c4.83-8.252 12.662-8.255 17.492 0l7.546 12.897zM50 71.418c10.162 0 18.4-8.13 18.4-18.155 0-10.027-8.238-18.155-18.4-18.155-10.162 0-18.4 8.128-18.4 18.155 0 10.026 8.238 18.155 18.4 18.155zm-4.29 24.437c2.37 4.05 6.212 4.05 8.58 0l7.353-12.565c2.37-4.05.447-7.334-4.29-7.334H42.647c-4.74 0-6.66 3.285-4.29 7.334l7.35 12.565z" fill="#3F5D87" fill-rule="evenodd"/></symbol><symbol id="wand" viewBox="0 0 26 26"><path d="M21.44 13.73c.063-.115.164-.115.226 0l.344.626c.062.113.008.205-.122.205h-.67c-.13 0-.183-.09-.12-.204l.343-.627zm-3.766-5.65c2.06-1.824 2.25-1.633.426.426L8.035 19.868c-1.824 2.06-3.5 3.53-3.746 3.287L3.027 21.89c-.245-.243 1.226-1.92 3.286-3.745l11.36-10.063zm3.88.74a1.447 1.447 0 1 0 0-2.891 1.447 1.447 0 0 0 0 2.89zm-7.232 0a.965.965 0 1 0-.963-.964c0 .532.432.964.965.964zm-1.447-2.89a.483.483 0 1 0-.002-.964.483.483 0 0 0 .002.963zm5.304-1.423c0-.28.22-.507.507-.507h.915c.28 0 .507.22.507.507v.915c0 .28-.22.507-.507.507h-.915a.505.505 0 0 1-.507-.508v-.915zm-2.893 9.644c0-.28.22-.506.507-.506h.915c.28 0 .507.22.507.507v.916c0 .28-.222.507-.507.507h-.915a.504.504 0 0 1-.507-.507v-.915z" fill-rule="evenodd"/></symbol><symbol id="weibo" viewBox="0 0 300 300"><g fill="none"><path d="M70.6 178c0 21.7 28.3 39 63.3 39s63.2-17.3 63.2-39c0-21.4-28.4-39-63.3-39s-63.4 17.6-63.4 39" fill="#fff"/><path d="M135.4 214c-31 3-57.7-11-59.7-31s21.5-38.8 52.4-41.8c31-3 57.7 10.8 59.7 31 2 20-21.4 38.7-52.3 41.7m61.8-66.8c-2.6-.8-4.4-1.3-3-4.7 3-7.4 3.3-14 0-18.4-6-8.5-22.6-8-41.6-.2 0 0-6 2.6-4.5-2 3-9.4 2.6-17.2-2-21.7-10.3-10-37.7.5-61.3 23.8-17.6 17.5-27.8 36-27.8 52 0 30.5 39.5 49 78.3 49 50.8 0 84.6-29 84.6-52.3 0-14-12-22-22.8-25.3" fill="#E6162D"/><path d="M231 91.3c-12.3-13.5-30.4-18.6-47-15-4 .7-6.4 4.5-5.6 8.3.8 3.8 4.6 6.2 8.5 5.4 11.8-2.5 24.6 1.2 33.4 10.7 8.7 9.6 11 22.7 7.3 34-1.2 3.8 1 7.8 4.6 9 3.8 1.2 7.8-.8 9-4.5 5.3-16.2 2-34.5-10.3-48m-19 17c-5.8-6.7-14.6-9.2-22.8-7.4-3.3.7-5.4 4-4.7 7.2.7 3.3 4 5.4 7.3 4.7 4-1 8.3.4 11.2 3.6 3 3.2 3.7 7.5 2.4 11.4-1 3.2.8 6.6 4 7.6 3.3 1 6.7-.7 7.8-4 2.5-7.7 1-16.7-5-23.2" fill="#f93"/><path d="M137 177.5c-1 2-3.4 2.8-5.3 2-1.8-.8-2.4-2.8-1.3-4.6 1-2 3.3-2.8 5.2-2 1.8.6 2.5 2.7 1.5 4.5m-9.8 12.6c-3 4.8-9.4 7-14.2 4.7-4.8-2.2-6.2-7.7-3.2-12.3 3-4.5 9.2-6.6 14-4.6 4.8 2 6.4 7.5 3.4 12.3m11.3-33.4c-14.8-3.8-31.4 3.5-37.8 16.3-6.5 13-.2 27.6 14.7 32.3 15.4 5 33.5-2.6 39.8-16.7 6.3-14-1.5-28-16.7-32" fill="#000"/></g></symbol><symbol id="writing" viewBox="0 0 113 72"><path d="M112.7 1S111 6 103 9.7c-6.7 3-12.8 3.8-17.8 7 3.6 1.4 10.8 1.8 16.6.7-1.6 2-2.8 3.5-5 5.2-6.6 4.8-12.2 5.6-21 5.7-5 0-9 3-9 3 4.8 1.6 10 2 15.2 2-4.5 7.7-21 9-28 7.6-10-.9-21 5.4-31.5 14.5-5 4.4-9 7.6-12 10C6.3 69 2 72 1 71.2c-1-.8.3-4.7 4.7-10.3C8 58 19 45 34.7 32.5 55.3 16 83.2-1.3 112.8 1z"/></symbol></svg>