<?xml version="1.0" encoding="UTF-8"?><!DOCTYPE svg PUBLIC "-//W3C//DTD SVG 1.1//EN" "http://www.w3.org/Graphics/SVG/1.1/DTD/svg11.dtd"><svg xmlns="http://www.w3.org/2000/svg"><symbol id="2" viewBox="0 0 77 77"><path d="M77 38c-5.428 2.74-10.08 6.118-13.955 10.133C59.17 52.15 56.087 56.77 53.795 62h-.8V51.963h-16.94V24.04h16.942V14h.8c2.322 5.293 5.42 9.94 9.296 13.94 3.875 4 8.51 7.353 13.908 10.06zM33.652 51.963h-7.154V24.04h7.154v27.922zm-10.637 0h-5.177V24.04h5.177v27.922zm-10.59 0H9.13V24.04h3.295v27.922zm-10.12 0H0V24.04h2.306v27.922z" fill-rule="evenodd"/></symbol><symbol id="2Reply" viewBox="0 0 283 150"><path d="M77 99c-5.4 2.7-10 6-14 10-3.8 4-7 8.8-9.2 14H53v-10H36V85h17V75h.8c2.3 5.3 5.4 10 9.3 14 4 4 8.6 7.3 14 10zm-43.3 14h-7.2V85h7.2v28zM23 113h-5.2V85H23v28zm-10.6 0H9V85h3.4v28zm-10 0H0V85h2.3v28zm219.3-63c24.2 0 43.8 17 43.8 38s-19.6 38-43.8 38c-2.3 0-4.6-.3-6.8-.6-9.5 10-20.3 11.8-31.2 12V135c6-3 10.6-8.6 10.6-15 0-1 0-1.7-.2-2.6-10-7-16.2-17.6-16.2-29.5 0-21 19.6-38 43.8-38zm47 85c0 5.5 3.4 10.3 8.5 13v2c-9.4-.2-18-1.8-26.2-10.4-2 .3-4 .4-6 .4-8.6 0-16.6-2.5-23-6.7 13.2 0 25.6-4.6 35-12.8 4.8-4 8.6-9 11.2-14.4 2.8-5.6 4.2-11.7 4.2-18v-3c6.5 5.7 10.6 13.7 10.6 22.5 0 10.2-5.5 19.3-14 25.3-.2.7-.2 1.5-.2 2.2zM133.6 85.4c23.7 0 43-19 43-42.7 0-23.6-19.3-42.7-43-42.7s-43 19-43 42.7c0 23.6 19.3 42.7 43 42.7zm-10 57.5c5.5 9.4 14.5 9.4 20 0l17.2-29.7c5.5-9.5 1-17.2-10-17.2h-34.4c-11 0-15.6 7.8-10 17.3l17.2 29.6z" fill="#3CAF36" fill-rule="evenodd"/></symbol><symbol id="2Retweet" viewBox="0 0 283 150"><path d="M77 99c-5.4 2.7-10 6-14 10-3.8 4-7 8.8-9.2 14H53v-10H36V85h17V75h.8c2.3 5.3 5.4 10 9.3 14 4 4 9 7.3 14 10zm-43.3 14h-7.2V85h7.2v28zM23 113h-5.2V85H23v28zm-10.6 0H9V85h3.4v28zm-10 0H0V85h2.3v28zM234 135c-.3-.3-.8-.6-1.5-.6H198V111h11.5c1 0 2-.3 2.8-1 .7-.8 1-1.7 1-2.8 0-1-.2-1.8-.8-2.5l-19.3-23.3c-.8-1-1.8-1.3-3-1.3s-2.2 1-3 2L168 105c-.7.7-1 1.6-1 2.5 0 1 .4 2 1 2.8 1 .8 1.8 1 3 1h11.5v37.5l.2.7.3.7.6.4h58.8c.5 0 1 0 1.4-.5.3 0 .5-1 .5-1s0-.5-.4-1l-10-12zm45-16h-11.7V81.6l-.2-.7v-2h-59c-.4 0-1 0-1.3.4L206 81c0 .4 0 .8.5 1l9.5 12c.2.6.7 1 1.4 1H252v24h-11.5c-1 0-2 .2-2.8 1-.7.7-1 1.6-1 2.7 0 1 .2 1.8.8 2.5l19.3 23.3c.8 1 1.8 1.4 3 1.4s2.2-1 3-2l19.2-23c1-.8 1-1.7 1-2.6 0-1 0-2-1-2.8-1-.8-1.3-1-3-1zM133.4 85.3c23.7 0 43-19 43-42.7C176.4 19 157 0 133.4 0s-43 19-43 42.6 19.3 42.7 43 42.7zm-10 57.5c5.5 9.4 14.5 9.4 20 0l17.2-29.7c5.5-9 1-17-10-17h-34.4c-11 0-15.5 8-10 18l17.2 29.7z" fill="#2AA9E0" fill-rule="evenodd"/></symbol><symbol id="2Twitter" viewBox="0 0 283 150"><path d="M77 99c-5.4 2.6-10 6-14 10-3.8 4-7 8.7-9.2 14H53v-10H36V85h17V75h.8c2.2 5 5.4 9.7 9.2 13.7 4 4 8.6 7.4 14 10zm-43.3 14h-7.2V85h7.2v28zM23 113h-5.2V85H23v28zm-10.6 0H9V85h3.4v28zm-10 0H0V85h2.3v28zM283 17.7c-6.8 3-14.2 5-22 6 8-4.8 14-12.2 17-21-7.5 4.3-15.7 7.5-24.4 9.2-7-7.6-16.8-12-27.8-12-21 0-38.2 17-38.2 38 0 2.6.4 5.5 1 8.3C157 45 128.8 29.8 110 7c-3.3 5.5-5.2 12-5.2 19 0 13 6.7 24.7 17 31.5-6.3-.2-12.2-2-17.3-4.7v.4c0 18.4 13 33.7 30.6 37.2-3 .8-6.3 1.3-10 1.3-2.2 0-4.6-.3-7-.7 5 15 19 26 35.7 26.3-13 10.2-29.5 16.2-47.4 16.2-3 0-6-.2-9-.5 17 10.7 37 17 58.5 17 70 0 108.3-57.7 108.3-107.7v-5c7.5-5.3 14-12 19-19.5z" fill="#2AA9E0"/></symbol><symbol id="2Weibo" viewBox="0 0 283 150"><path d="M174.4 139c-31 3-57.7-11-59.7-31s21.5-38.8 52.4-41.8c31-3 58 10.8 60 31 2 20-21 38.7-52 41.7m62-67c-2-1-4-2-3-5 3-8 4-14 0-19-6-9-22-8-41-1 0 0-6 2-4-2 3-10 3-17-2-22-10-10-37 0-61 24-18 17-28 36-28 52 0 30 40 49 79 49 50.8 0 84.8-29 84.8-52 0-14-12-22-23-26zm33-56C258 3 240-3 223 1c-4 .8-6.4 4.6-5.6 8.4.8 3.8 4.6 6.2 8.5 5.4 11-2 24 2 33 11 8 10 11 23 7 34-1 4 1 8 4 9 4 1 8-1 9-4 5-16 2-34.4-11-48zm-19 17c-5-7-14-10-22-8-3 0-5 4-4 7s4 5 8 4 8.3 0 11 3c3 4 4 8 2.6 12-1 3 .8 6.6 4 7.6 3.3 1 6.7-.6 7.8-4 2.7-7.6 1-16.6-5-23zm-75 69c-1 2-3 2-5 2-2-1-2-3-1-5s4-3 5-2c2 0 3 2 2 4zm-9 12c-3 4-9 7-14 4-4-2-6-8-3-13s9-7 14-5 7 7.2 4 12m11-33c-14.2-3.4-31 4-37.2 17-6.5 13-.2 27.4 14.7 32 15 5 33.3-2.5 39.6-16.6C201 99 193 85 178 81zM77 99c-5.4 2.7-10 6-14 10-3.8 4-7 8.8-9.2 14H53v-10H36V85h17V75h.8c2.3 5.3 5.4 10 9.3 14 4 4 9 7.3 14 10zm-43.3 14h-7.2V85h7.2v28zM23 113h-5.2V85H23v28zm-10.6 0H9V85h3.4v28zm-10 0H0V85h2.3v28z" fill="#E6162D"/></symbol><symbol id="2Write" viewBox="0 0 283 150"><path d="M77 90c-5.4 2.7-10 6-14 10-3.8 4.2-7 8.8-9.2 14H53v-10H36V76h17V66h.8c2.3 5.3 5.4 10 9.3 14 4 4 9 7.3 14 10zm-43.3 14h-7.2V76h7.2v28zM23 104h-5.2V76H23v28zm-10.6 0H9V76h3.4v28zm-10 0H0V76h2.3v28zM283 30s-2.5 8.8-15.4 15c-10.5 5-20.2 6.8-28.2 12.4 6 2 17.6 2.2 26.8 0-2.3 3.5-4.2 6-7.7 8.7-10.5 9-19.3 10-33.5 11-8 .4-14 5.4-14 5.4 8 2.5 16 3 24.7 2.3-6.7 13-33.2 15.8-44.8 14 0 0 0 .3-.6.3-16-1.7-33.6 9.3-50 24.3-8 7.5-14 12.8-18.6 16.8-7 6.6-13.6 11.7-15.3 10.5-1.7-1 .2-7.5 7-17 3.8-5 20.7-26.2 45.4-47.5 32-27.8 76-57 124-55.3z" fill-rule="evenodd"/></symbol><symbol id="camera" viewBox="0 0 200 200"><path d="M62.4 111.5c0 20.7 17 37.5 37.6 37.5 20.7 0 37.6-16.8 37.6-37.5S120.6 74 100 74c-20.7 0-37.6 16.8-37.6 37.5zM181 48h-40.5c-3-11.5-5.8-23-17.4-23H77c-11.7 0-14.6 11.5-17.5 23H19c-6.3 0-11.5 5.3-11.5 11.6v104c0 6.2 5.2 11.4 11.6 11.4h162c6.5 0 11.7-5.2 11.7-11.5v-104c0-6.2-5.2-11.4-11.6-11.4zm-81 114.7c-28.3 0-51.3-23-51.3-51.2 0-28.2 23-51.2 51.3-51.2 28.3 0 51.3 23 51.3 51.2 0 28.3-23 51.2-51.3 51.2zm72.6-84.3c5 0 9-4 9-9s-4-9-9-9-9 4-9 9 4 9 9 9z" fill-rule="evenodd"/></symbol><symbol id="cancel" viewBox="0 0 200 200"><path d="M100.4 105.8l-28 28c-1.6 1.6-4 1.6-5.5 0-1.6-1.4-1.6-3.8 0-5.3l28-28-29-29c-1.4-1.5-1.4-4 0-5.4 1.6-1.4 4-1.4 5.5 0l29 29 28-28c1.5-1.6 4-1.6 5.4 0 1.4 1.4 1.4 3.8 0 5.3l-28.2 28 27.3 27.4c1.6 1.5 1.6 4 0 5.4-1.4 1.6-3.8 1.6-5.3 0L100.4 106zM100 200c55.2 0 100-44.8 100-100S155.2 0 100 0 0 44.8 0 100s44.8 100 100 100z" fill="#E6162D" fill-rule="evenodd"/></symbol><symbol id="deckard" viewBox="0 0 200 200"><g fill="none" fill-rule="evenodd"><circle fill="#F1F1F1" transform="rotate(-90 100 100)" cx="100" cy="100" r="100"/><g transform="translate(140 80)"><path d="M13.232 22.036c1.19-2.06 3.117-2.058 4.305 0l3.69 6.39c1.188 2.058.223 3.728-2.154 3.728h-7.377c-2.378 0-3.34-1.67-2.153-3.73l3.69-6.388z" fill="#000"/><circle stroke="#000" stroke-width="3" cx="15.385" cy="24.615" r="15.385"/><path d="M15.385 18.462c5.098 0 9.23-4.133 9.23-9.23 0-5.1-4.132-9.232-9.23-9.232-5.098 0-9.23 4.133-9.23 9.23 0 5.1 4.132 9.232 9.23 9.232z" fill="#000"/></g><g transform="translate(29 80)"><circle stroke="#2AA9E0" stroke-width="3" cx="15.385" cy="24.615" r="15.385"/><path d="M15.385 18.462c5.098 0 9.23-4.133 9.23-9.23 0-5.1-4.132-9.232-9.23-9.232-5.098 0-9.23 4.133-9.23 9.23 0 5.1 4.132 9.232 9.23 9.232z" fill="#3F5D87"/><path d="M13.232 30.887c1.19 2.06 3.117 2.058 4.305 0l3.69-6.39c1.188-2.058.223-3.728-2.154-3.728h-7.377c-2.378 0-3.34 1.67-2.153 3.727l3.69 6.39z" fill="#E6162D"/></g><path d="M114 100.486c-1.903.968-3.535 2.162-4.893 3.582-1.36 1.42-2.44 3.054-3.243 4.903h-.28v-3.547H99.64V95.55h5.94V92h.282c.814 1.87 1.9 3.514 3.26 4.928 1.358 1.414 2.984 2.6 4.876 3.558zm-15.2 4.936h-2.508V95.55H98.8v9.872zm-3.73 0h-1.815V95.55h1.815v9.872zm-3.713 0h-1.155V95.55h1.155v9.872zm-3.548 0H87V95.55h.81v9.872z" fill="#000"/></g></symbol><symbol id="direct_msg" viewBox="0 0 28 23"><g fill="none" fill-rule="evenodd"><path d="M14 3H2.998C2.448 3 2 3.444 2 4.004v12.353l12-7.42 12 7.42V4.004C26 3.444 25.553 3 25.002 3H14z" fill="#000"/><path d="M10.98 12.196L2 6.643v12.353c0 .56.447 1.004.998 1.004h22.004c.55 0 .998-.444.998-1.004V6.643l-8.98 5.553-3.02-1.91-3.02 1.91z" fill="#666"/></g></symbol><symbol id="emotions" viewBox="0 0 200 200"><path d="M100 175c41.4 0 75-33.6 75-75s-33.6-75-75-75-75 33.6-75 75 33.6 75 75 75zm0-9.4c-8.8 0-17.6-2-25.4-5.6-8-3.7-15.2-9-20.8-15.2-5.7-6.2-10.2-13.8-13-22-2.8-8-4-16.6-3-24.7 0-2.5 2.6-5 5.5-5h.5c2.8.5 5 2.7 5.2 5 1.3 14 7.2 26.6 16.6 35.7 9.3 9 21.7 14.4 34 14.4h.8c12.3 0 24.7-5.3 34-14.4 9.5-9.2 15.3-21.7 16.6-35.3.3-3 2.7-5 5.7-5h.5c2.7.2 5 2.4 5 5 1 8.2-.2 16.8-3 25-2.8 8-7.3 15.6-13 21.8-5.6 6.3-12.7 11.6-20.7 15.3-8 3.6-16.7 5.5-25.5 5.6zM84.8 74.2c-2 0-3.5-1.6-3.5-3.5 0-5.8-4.8-10.5-10.6-10.5S60.2 65 60.2 70.7c0 2-1.6 3.5-3.6 3.5S53 72.6 53 70.7C53 61 61 53 70.8 53s17.6 8 17.6 17.7c0 2-1.6 3.5-3.5 3.5zm58.6 0c-2 0-3.6-1.6-3.6-3.5 0-5.8-4.7-10.5-10.5-10.5s-10.6 4.7-10.6 10.5c0 2-1.5 3.5-3.5 3.5s-3.5-1.6-3.5-3.5c0-9.7 8-17.6 17.6-17.6 9.7 0 17.7 8 17.7 18 0 2-1.8 3.6-3.7 3.6z" fill-rule="evenodd"/></symbol><symbol id="eyeball" viewBox="0 0 100 100"><path d="M50 63.7c7.6 0 13.7-6 13.7-13.7 0-7.6-6-13.7-13.7-13.7-7.6 0-13.7 6-13.7 13.7 0 7.6 6 13.7 13.7 13.7zm5.6-16.3c1.6 0 3-1.3 3-3 0-1.6-1.4-3-3-3-1.7 0-3 1.4-3 3 0 1.7 1.3 3 3 3zm-42.2 2h18v1h-18v-1zM16 36.3l17 6.3-.4 1-16.7-6.4.4-1zm7.4-11.4l13.3 12-.7.8-13.3-12 .7-.8zm11-8l7.8 16-1 .5-7.8-16 1-.5zm13-3.5L49 31l-1 .2-1.6-17.8h1zM61 14.7L56 32l-1-.4 5-17.2 1 .3zM73 21L62 35l-.7-.6L72 20.3l1 .6zm9 10l-15.3 9.5-.6-1 15.3-9.4.6 1zm4.6 12.7L69 47l-.2-1 17.6-3.4.2 1zm-.2 13.6L68.8 54l.2-1 17.6 3.3-.2 1zm-5 12.6L66 60.3l.7-1L82 69l-.7 1zM72 79.6L61.3 65.4l.8-.6L73 79l-1 .7zm-12 6l-5-17.3 1-.3 5 17.3-1 .3zm-13.6 1l1.6-18 1 .2-1.6 17.7h-1zm-13-4l8-16 .8.5-7.8 16-1-.4zm-10.7-8.3l13.3-12 .7.8-13.3 12-.7-.8zM50 100c27.6 0 50-22.4 50-50S77.6 0 50 0 0 22.4 0 50s22.4 50 50 50zm0-3.2c26 0 46.8-21 46.8-46.8 0-26-21-46.8-46.8-46.8-26 0-46.8 21-46.8 46.8 0 26 21 46.8 46.8 46.8z" fill-rule="evenodd"/></symbol><symbol id="favorite" viewBox="0 0 26 26"><path d="M13 7.3C12 5 9.7 4 8 4c-2.4 0-5 2-5 6 0 3 1.6 6 5 9 2.3 2.4 4.6 3.7 4.8 4h.5s2.4-1.6 4.8-4c3.4-3 5-6 5-9 0-4-2.6-6-5-6-1.8 0-4 1-5 3.3z"/></symbol><symbol id="followed_by" viewBox="0 0 60 60"><path d="M39.3 35c6 0 10.7-5 10.7-11s-4.8-10.8-10.7-10.8S28.6 18 28.6 24c0 6 4.8 11 10.7 11zm-2.5 14.6c1.4 2.4 3.6 2.4 5 0L46 42c1.5-2.4.3-4.4-2.4-4.4H35c-2.7 0-3.8 2-2.5 4.4l4.3 7.6zM18.8 36c5.4 0 9.8-4.5 9.8-10 0-5.7-4.4-10.2-9.8-10.2S9 20.3 9 25.8c0 5.7 4.4 10.3 9.8 10.3zm-2.3 13.7c1.3 2.2 3.3 2.2 4.6 0l4-7c1.3-2.3.2-4-2.3-4H15c-2.6 0-3.7 1.7-2.4 4l4 7z" fill="#CECECF"/><path d="M28.6 33C36 33 42 27 42 19.8c0-7.3-6-13.3-13.4-13.3s-13.4 6-13.4 13.3c0 7.4 6 13.4 13.4 13.4zm-3 18c1.6 3 4.4 3 6 0l5.5-9.2c1.8-3 .4-5.4-3-5.4H23.3c-3.5 0-5 2.4-3.2 5.4l5.5 9.2z"/></symbol><symbol id="following" viewBox="0 0 60 60"><path d="M15.4 41.5c4-1.3 6.4-5.7 5-10-1.2-4.2-5.6-6.7-9.7-5.4-4 1.4-6.4 5.8-5 10 1.2 4.3 5.6 6.7 9.7 5.5zm1.4 11c1.5 1.3 3 .8 3.5-1.2l1.3-6.2c.5-2-.7-3-2.7-2.5l-6 1.8c-2 .6-2.3 2.2-.8 3.7l4.6 4.4z" fill="#111"/><path d="M39.8 33.2c7.4 0 13.3-6 13.3-13.3C53 12.4 47.3 6.5 40 6.5c-7.4 0-13.4 6-13.4 13.3 0 7.3 6 13.2 13.4 13.2zm-3 18c1.6 3 4.4 3 6 0l5.4-9.2c1.8-3 .4-5.4-3-5.4H34.3c-3.4 0-4.8 2.4-3 5.4l5.3 9.2z"/></symbol><symbol id="follows" viewBox="0 0 60 60"><path d="M15.4 41.5c4-1.3 6.4-5.7 5-10-1.2-4.2-5.6-6.7-9.7-5.4-4 1.4-6.4 5.8-5 10 1.2 4.3 5.6 6.7 9.7 5.5zm1.4 11c1.5 1.3 3 .8 3.5-1.2l1.3-6.2c.5-2-.7-3-2.7-2.5l-6 1.8c-2 .6-2.3 2.2-.8 3.7l4.6 4.4z"/><path d="M39.8 33.2c7.4 0 13.3-6 13.3-13.3C53 12.4 47.3 6.5 40 6.5c-7.4 0-13.4 6-13.4 13.3 0 7.3 6 13.2 13.4 13.2zm-3 18c1.6 3 4.4 3 6 0l5.4-9.2c1.8-3 .4-5.4-3-5.4H34.3c-3.4 0-4.8 2.4-3 5.4l5.3 9.2z" fill="#CECECF"/></symbol><symbol id="geoPicker" viewBox="0 0 200 200"><path d="M100 175c15.56 0 50-71.277 50-99.286C150 47.706 127.614 25 100 25S50 47.706 50 75.714C50 103.724 84.44 175 100 175zm0-75c13.807 0 25-11.193 25-25s-11.193-25-25-25-25 11.193-25 25 11.193 25 25 25z" fill-rule="evenodd"/></symbol><symbol id="instagram" viewBox="0 0 775 300"><path d="M44.4 41c-7 0-16.3 7.5-21.7 12.5C10.7 64 0 83.5 0 99.2c0 22.2 19 30.6 23.6 30.6 1.6 0 3-.8 3-3 0-1.6-1-3-2.2-4.5-4.3-6.7-5.7-13-5.7-21.6 0-18 8.2-34.4 15-42 1.4-1.3 4.2-4.2 5-4.2 1 0 1 .6 1 2.8L39 174.7c0 18.4-5.3 25.7-5.3 30 0 2 1 2.4 2.4 2.4 7.6 0 15-9 17-12.3 6.6-11.2 8-20 8-45.3V50.7c0-2.7-.6-3.8-3-5.5C54 43 50 41 44.3 41zm212.4.3c-3.5 0-5 2-5.2 7.5l-.8 23.4-20.4-.7c-1.3 0-1.8.4-2.4 1.5-1.7 3.2-2.6 5.8-2.6 10 0 3.5 1.6 4 3 4l21.2.5v44.7c0 9.5-6 21.8-16.6 32 0 0 1-3 .8-6.3 0-9.3-6-17.6-13.7-23.5L201 120c4-4.6 10.7-13.8 10.7-21.6 0-6-3.8-8.6-11-8.6-10 0-21.5 9-21.5 22.7 0 5 2.2 9.5 5.6 13-4.7 8.7-11.2 20.2-16 28.4-3.7 6.2-10 16-13.6 16-2.7 0-4-4.4-4-20.8 0-13.6 1-28.4 1.5-42.6 0-3.2-.6-6.2-4.8-9.2-4-2.5-8.8-6-13.7-6-11 0-18.5 10.2-23.6 20-5.4 10.3-8.2 19-12.3 31.5l.5-43.3c0-3-.8-4.2-3.2-5.3-3.2-1.3-8-3-12-3-3.6 0-4 1.6-4 5.3l-.5 51.8v20c0 18 2.2 21 13 21 5.8 0 7.7-.7 7.8-5.7.3-3.2 1.8-11 4-19 6-23.3 13.4-41.8 26-55.8 1.3-1.4 2.3-1 2 1 0 0-2 31.6-2 44.5 0 23 3.6 35 15 35 11.2 0 22.3-14.5 28.3-24.2l19.2-32.3c12.5 10.7 21.2 19 21.2 29 0 6.2-4 12.4-10 12.4-7.4 0-12.2-8-17.2-8-4.2 0-9.6 8.2-9.6 12.8 0 4.3 9.4 10.5 26.4 10.5 25 0 38.6-17.3 46.7-36.4 1.6 22.7 10.7 36 24.7 36 9.3 0 20-11.7 24.8-26 0 0 .5 3.7 4.2 11.3 5 10 12.8 14.4 22.4 14.4 12 0 22.2-7.2 28.4-19.3 1 9.2 8.7 19.3 21 19.3 8 0 15-6 19.7-15.8 0 0 6 16.2 23.6 16.2 9.8 0 21.4-9 24.2-15.7l.3 9.6-25.8 24c-7.6 7.3-15.6 17.8-15.6 29.4 0 14.8 14 23.3 26.3 23.3 12.6 0 21-8 25.7-15 6-8.6 8.3-25.2 8.3-41.4l-.5-24.3c17.4-19.2 31-45.7 37.2-64.5l13.2-.4c2.5-.2 2.4 1 2 2.4-2.3 9.8-4.3 21-4.3 32 0 18.4 4.2 26.4 10.3 33 5.2 5.4 10.5 7.3 16 7.3 10.8 0 17.6-8.8 19.8-14.5 5 10 12.5 14.5 22 14.5 12 0 22.3-7.2 28.5-19.3 1 9.2 8.6 19.3 21 19.3 9.3 0 14.7-5.4 19-15.4 0 3.2 0 6.7.2 10 .2 1.6 1.5 2.6 2.7 3 4 1.6 7.4 2.3 10.5 2.3 8 0 10-1.7 10-7 0-8.8 0-22.6 2.6-33.7 2.6-11 6.6-23.6 12-32.3.6-1 1.8-.6 2 .5.7 18.6 2 50 6.8 58.3 2.5 3.8 6.2 6.7 11.8 6.7 2.6 0 5.8-1 6.7-1.8.8-.7 1.2-1.4 1.2-2.7 0-23.8 7.4-47 14.8-62.4.2-.4.8-.5.8 0l-.5 17.3c0 28 2 45.8 16 54.4 2.3 1.2 5.3 2.3 9.2 2.3 7.2 0 13.7-4 17-10.4 2.5-5 5-14.7 5-20.2 0-2 0-5.5-3.4-5.5-2 0-3 1.4-3.6 3.6-1 4.6-2 8.6-3.7 13-1.6 4.5-4 7-7 7-3.4 0-5-2.7-6-4.3-4.5-6.7-4.8-22-4.8-34.7l1-32.8c0-2.7-1-6-5.3-8.3-2.8-1.8-10-4.8-14.2-4.8-4 0-6 2.3-7.5 5.6-2.7 6-11.8 29.7-14.3 49 0 .5-.7.6-.8 0-1.2-13.7-2-30-2-41 0-3.5-.7-8.2-7.8-11.3-3.4-1.5-6.3-2.3-9.7-2.3-4.5 0-5.4 2-7 5-4.8 9-8.2 20.7-13.3 35.6v-34c0-1.6-1-3.7-3.7-4.3-7-1.6-10-2.3-12.8-2.3-2 0-3 1.6-3 3.3l-.5 58c-1.3 7-6.7 24-14.4 24-6.3 0-9.3-6.4-9.3-33l1.2-43.6c0-3-1.8-4-4.5-5.2-3.7-1.5-6.7-2-10.5-2-4.8 0-6.5 2.2-5.5 7.7-5.3-7-10.5-11-19.8-11-18.8 0-33 22.4-33 55 0 9.3 2 18.4 2 18.4-1.6 7.5-5.5 13.7-11 13.7-7 0-11.4-9.8-11.4-26.8s6.5-36.3 6.5-41.5c0-6-3.8-10-11-10-3.4 0-16.4 3-23 4 0 0 .7-3.2.6-5.7 0-6-2.8-9.7-9.7-9.7-8.6 0-15 6.2-15 16.5 0 4.7 2.8 9 6.3 11.3-4.5 19-12 33.4-23 49.3l1-64.4c0-2-.6-3.4-4.7-5-2.2-1-5.7-2-10.2-2-6.5 0-6 4.6-5.7 8-3-5.2-9.4-11.4-19.4-11.4-27.2 0-35.5 41.5-31.4 71 0 3.6-3.7 16.3-11.6 16.3-6.3 0-9.2-6.4-9.2-33l1-43.6c0-3-1.7-4-4.3-5.2-4-1.5-7-2-10.7-2-4.8 0-6.4 2.2-5.4 7.7-5.4-7-10.7-11-20-11-18.7 0-33 20.5-33 53.2 0 12.5-10.7 31.5-18.2 31.5-4.2 0-8.6-7.7-8.6-27.3 0-13.5 1.8-59 1.8-59l26.3-.5c1.2 0 2-1.3 2.4-2.2 1.2-2.4 1.8-4 1.8-7 0-2.6-.5-3.6-4-3.8l-26-1.6 1-24.5c0-1.5-.8-2.5-2.5-3.3-5-2-11.3-4-15.2-4zm79.5 64c7 0 14 6.4 14 29 0 28.6-10.3 42-18.3 42-7.5 0-13.2-10.7-13.2-31.5 0-21 5.6-39.5 17.5-39.5zm252.2 0c7 0 14 6.4 14 29 0 28.6-10.3 42-18.3 42-7.5 0-13.2-10.7-13.2-31.5 0-21 5.6-39.5 17.5-39.5zm-160 0c9.2 0 13.2 9.5 13.2 27.8 0 27.7-8.2 43.4-18 43.4-6.5 0-13.8-10.5-13.4-31 0-13 4.3-40 18.2-40zm15.5 92.3v11c0 36-9.6 42-17.3 42-3 0-10-2.2-10-11 0-12.5 13-26.7 17-31l10.3-11z" fill="#3F5D87"/></symbol><symbol id="link" viewBox="0 0 100 100"><path d="M62 37c0-13.8-11.2-25-25-25S12 23.2 12 37s11.2 25 25 25c0 13.8 11.2 25 25 25s25-11.2 25-25-11.2-25-25-25zm0 0c0 13.8-11.2 25-25 25 0-13.8 11.2-25 25-25z" fill="none"/></symbol><symbol id="location" viewBox="0 0 60 60"><path d="M44 20.2C44 12.358 37.732 6 30 6s-14 6.358-14 14.2C16 28.043 25.644 48 30 48s14-19.957 14-27.8zM37 23c0-3.866-3.134-7-7-7s-7 3.134-7 7 3.134 7 7 7 7-3.134 7-7zm7 28.15c0-1.574-6.268-2.85-14-2.85s-14 1.276-14 2.85S22.268 54 30 54s14-1.276 14-2.85z" fill-rule="evenodd"/></symbol><symbol id="locked" viewBox="0 0 40 40"><path d="M20 31c-2.2 0-4-1.8-4-4s1.8-4 4-4 4 1.8 4 4-1.8 4-4 4zm10-13h-2v-6c0-4.4-3.6-8-8-8s-8 3.6-8 8v6h-2c-1 0-2 1-2 2v14c0 1 1 2 2 2h20c1 0 2-1 2-2V20c0-1-1-2-2-2zm-6 0h-8v-6c0-2.2 1.8-4 4-4s4 1.8 4 4v6z"/></symbol><symbol id="mentions" viewBox="0 0 26 26"><path d="M13 22c1.554 0 3.016-.394 4.292-1.087m3.688-3.747C21.63 15.92 22 14.503 22 13c0-4.97-4.03-9-9-9s-9 4.03-9 9 4.03 9 9 9m0-5.25c2.07 0 3.75-1.68 3.75-3.75 0-2.07-1.68-3.75-3.75-3.75-2.07 0-3.75 1.68-3.75 3.75 0 2.07 1.68 3.75 3.75 3.75" stroke="#000" stroke-width="3" stroke-linecap="round" stroke-linejoin="round" fill="none"/></symbol><symbol id="menu" viewBox="0 0 200 200"><g fill-rule="evenodd"><circle fill="#F1F1F1" cx="100" cy="100" r="100"/><path d="M96.63 30.143c1.862-3.393 4.88-3.392 6.74 0l10.26 18.714c1.862 3.393.232 6.143-3.634 6.143H90.004c-3.868 0-5.495-2.75-3.635-6.143l10.26-18.714z"/><circle cx="100" cy="100" r="15"/><rect x="86" y="145" width="28" height="28" rx="7"/></g></symbol><symbol id="newTweet" viewBox="0 0 200 200"><path d="M77.08 25.087c12.493-22.782 32.75-22.778 45.242 0l68.91 125.66c12.494 22.783 1.553 41.25-24.407 41.25H32.575c-25.972 0-36.897-18.472-24.406-41.25l68.91-125.66zM138 75.997s-.108 5.597-6.828 11.408c-5.42 4.734-10.946 7.317-14.848 11.944 3.902.213 10.838-1.508 16.04-4.306-.867 2.475-1.625 4.197-3.25 6.456-4.878 6.566-9.972 8.933-18.317 11.516-4.77 1.506-7.803 5.488-7.803 5.488 5.094.215 10.08-.754 15.064-2.583-1.95 8.826-17.34 14.744-24.493 15.605 0 0 0 .108-.11.108-9.644 1.614-18.423 10.976-25.793 22.705-3.576 5.704-6.394 9.9-8.453 13.02-3.145 4.95-6.288 9.04-7.48 8.61-1.19-.43-1.084-4.52 1.517-11.19 1.41-3.66 8.128-19.156 19.508-35.835C87.385 107.206 109.062 82.563 138 76z" fill-rule="evenodd"/></symbol><symbol id="notification" viewBox="0 0 200 200"><path d="M6.4 53.703C6.4 27.193 27.897 5.7 54.403 5.7h92.594C173.507 5.7 195 27.197 195 53.703v92.594c0 26.51-21.497 48.003-48.003 48.003H54.403c-26.51 0-48.003-21.497-48.003-48.003V53.703zm120 70.502c11.084-17.487 17-27.838 17-42.253 0-23.336-19.028-42.254-42.5-42.254S58.4 58.616 58.4 81.952c0 14.468 5.847 24.762 17 42.253h51zm-44 9.993c0-1.38 1.128-2.5 2.5-2.5h32c1.38 0 2.5 1.11 2.5 2.5 0 1.38-1.128 2.5-2.5 2.5h-32c-1.38 0-2.5-1.11-2.5-2.5zm-1 7.974c0-1.38 1.125-2.5 2.5-2.5h34c1.38 0 2.5 1.11 2.5 2.5 0 1.38-1.125 2.5-2.5 2.5h-34c-1.38 0-2.5-1.11-2.5-2.5zm4 7.974c0-1.38 1.12-2.5 2.506-2.5h24.988c1.384 0 2.506 1.11 2.506 2.5 0 1.38-1.12 2.5-2.506 2.5H87.906c-1.384 0-2.506-1.11-2.506-2.5zm5 8.026c0-1.38 1.118-2.5 2.493-2.5h15.014c1.377 0 2.493 1.11 2.493 2.5 0 1.38-1.118 2.5-2.493 2.5H92.893c-1.377 0-2.493-1.11-2.493-2.5z" fill-rule="evenodd"/></symbol><symbol id="ok" viewBox="0 0 200 200"><path d="M100 200c55.2 0 100-44.8 100-100S155.2 0 100 0 0 44.8 0 100s44.8 100 100 100zm-22-63l68.2-68c1.4-1.4 3.6-1.4 5 0s1.4 3.6 0 5l-70.7 70.7c-.7.7-1.6 1-2.5 1-1 0-1.8-.3-2.5-1L50 119c-1.3-1.3-1.3-3.6 0-5s3.7-1.3 5 0l23 23z" fill="#59DE5D" fill-rule="evenodd"/></symbol><symbol id="play" viewBox="0 0 100 100"><path d="M28 82c-3.3 2-6 .5-6-3.4V23.4c0-4 2.7-5.5 6-3.5l48 27.5c3.3 2 3.3 5 0 7L28 82z" stroke="#CECECF" stroke-linecap="round" stroke-linejoin="round" fill="#F1F1F1"/></symbol><symbol id="post" viewBox="0 0 60 60"><path d="M48.7 2H11.3C6.3 2 2 6.2 2 11.3v37.4c0 5 4.2 9.3 9.3 9.3h37.4c5 0 9.3-4.2 9.3-9.3V11.3c0-5-4.2-9.3-9.3-9.3zM20 26.5h20c.5 1 .7 2.3.7 3.5 0 6-4.8 10.7-10.7 10.7S19.3 36 19.3 30c0-1.2.2-2.4.6-3.5zm31 0v21c0 2-1.6 3.5-3.5 3.5h-35c-2 0-3.5-1.6-3.5-3.5v-21h5.5c-.3 1-.4 2.3-.4 3.5 0 8.8 7.2 16 16 16s16-7.2 16-16c0-1.2-.2-2.4-.5-3.5H51zm0-12.3c0 1-.8 1.8-1.8 1.8h-3.5c-1 0-1.7-.8-1.7-1.8v-3.4c0-1 .8-1.8 1.7-1.8h3.5c1 0 1.8.8 1.8 1.8v3.4z"/></symbol><symbol id="profile" viewBox="0 0 200 200"><path d="M100 200c55.2 0 100-44.8 100-100S155.2 0 100 0 0 44.8 0 100s44.8 100 100 100zm0-91c20.7 0 37.5-16.6 37.5-37S120.7 35 100 35 62.5 51.6 62.5 72s16.8 37 37.5 37zm-8.7 49.8c4.8 8.3 12.6 8.3 17.4 0l15-25.6c5-8.3 1-15-8.7-15H85c-9.6 0-13.6 6.7-8.7 15l15 25.6z" fill-rule="evenodd"/></symbol><symbol id="rachael" viewBox="0 0 200 200"><g fill="none" fill-rule="evenodd"><circle fill="#F1F1F1" transform="rotate(-90 100 100)" cx="100" cy="100" r="100"/><g transform="translate(140 80)"><path d="M13.232 22.036c1.19-2.06 3.117-2.058 4.305 0l3.69 6.39c1.188 2.058.223 3.728-2.154 3.728h-7.377c-2.378 0-3.34-1.67-2.153-3.73l3.69-6.388z" fill="#E6162D"/><circle stroke="#2AA9E0" stroke-width="3" cx="15.385" cy="24.615" r="15.385"/><path d="M15.385 18.462c5.098 0 9.23-4.133 9.23-9.23 0-5.1-4.132-9.232-9.23-9.232-5.098 0-9.23 4.133-9.23 9.23 0 5.1 4.132 9.232 9.23 9.232z" fill="#3F5D87"/></g><g transform="translate(29 80)"><circle stroke="#000" stroke-width="3" cx="15.385" cy="24.615" r="15.385"/><path d="M15.385 18.462c5.098 0 9.23-4.133 9.23-9.23 0-5.1-4.132-9.232-9.23-9.232-5.098 0-9.23 4.133-9.23 9.23 0 5.1 4.132 9.232 9.23 9.232zm-2.153 12.425c1.19 2.06 3.117 2.058 4.305 0l3.69-6.39c1.188-2.058.223-3.728-2.154-3.728h-7.377c-2.378 0-3.34 1.67-2.153 3.727l3.69 6.39z" fill="#000"/></g><path d="M114 100.486c-1.903.968-3.535 2.162-4.893 3.582-1.36 1.42-2.44 3.054-3.243 4.903h-.28v-3.547H99.64V95.55h5.94V92h.282c.814 1.87 1.9 3.514 3.26 4.928 1.358 1.414 2.984 2.6 4.876 3.558zm-15.2 4.936h-2.508V95.55H98.8v9.872zm-3.73 0h-1.815V95.55h1.815v9.872zm-3.713 0h-1.155V95.55h1.155v9.872zm-3.548 0H87V95.55h.81v9.872z" fill="#000"/></g></symbol><symbol id="replicant" viewBox="0 0 200 200"><g fill="none" fill-rule="evenodd"><circle fill="#F1F1F1" transform="rotate(-90 100 100)" cx="100" cy="100" r="100"/><path d="M76.296 112.798H73.3V87.202h2.996v25.596zm-9.2 0H65V87.202h2.097v25.596z" fill="#000"/><path d="M85.923 112.798h-4.707V87.202h4.707v25.596z" fill="#E6162D"/><path d="M95.593 112.798H89.09V87.202h6.503v25.596z" fill="#3F5D87"/><path d="M135 100c-4.935 2.51-9.164 5.607-12.686 9.288-3.523 3.68-6.326 7.918-8.408 12.712h-.728v-9.202H97.775V87.202h15.403V78h.728c2.11 4.85 4.928 9.11 8.45 12.776 3.523 3.667 7.738 6.74 12.644 9.224z" fill="#2AA9E0"/></g></symbol><symbol id="reply" viewBox="0 0 26 26"><path d="M11.8 3c4.8 0 8.7 3.4 8.7 7.6 0 4.2-4 7.6-8.8 7.6h-1.3c-2 2-4 2.2-6.2 2.3V20c1-.6 2-1.7 2-3v-.5C4.2 15 3 13 3 10.5 3 6.6 7 3 11.8 3zM21 20c0 1 .6 2 1.6 2.6v.4c-1.8 0-3.6-.4-5.2-2h-1.2c-1.7 0-3.3-.5-4.6-1.3 2.6 0 5-1 7-2.6 1-.7 1.7-1.7 2.2-2.8.6-1 1-2.3 1-3.6V10c1.2 1 2 2.7 2 4.5 0 2-1 4-2.8 5v.5z"/></symbol><symbol id="retweet" viewBox="0 0 34 26"><path d="M19.2 18.4l-.3-.2h-8.5v-5.6h2.8c.2 0 .4 0 .6-.3l.2-.7c0-.2 0-.4-.2-.6L9.3 5.3C9 5 9 5 8.6 5S8 5 8 5.3L3 11l-.2.6c0 .3 0 .5.3.7l.6.3h2.7v9.2H7v.2h14.5l.2-.5v-.3L19 18.4zm11-4h-3V5H12.4l-.2.5v.3L15 8.6l.3.2h8.5v5.6H21c-.2 0-.4 0-.6.3l-.2.7c0 .2 0 .4.2.6l4.7 5.7c.2.2.4.3.7.3.3 0 .5 0 .7-.3L31 16l.2-.6c0-.3 0-.5-.3-.7l-.6-.3z"/></symbol><symbol id="sensitive" viewBox="0 0 200 200"><path d="M87.575 77.347l22.466-9.24c5.087-2.09 10.884.234 12.99 5.28 1.54 3.7 1.4 8.486-1.69 9.76-1.768.724-1.76 1.73-1.354 2.71.127.307.326.45.555.535l27.895-11.476c4.534-1.868 9.734.273 11.61 4.775 1.88 4.51-.342 9.518-4.808 11.54-1.948.886-14.09 6.135-26.825 11.62.998.985 1.824 2.165 2.34 3.563 1.476 4 .18 8.328-2.905 10.94l-40.27-40.005zm-1.955-1.94c4.568-1.945 9.794-4.095 9.794-4.095-3.267-7.835-11.862-8.86-19.986-6.03L85.62 75.405zM62.518 73.95c-.984 1.155-1.838 2.378-2.528 3.65-6.076 11.204-8.776 17.064-8.782 17.076-.64 1.23-.927 2.45-1.07 3.826-.105.98-1.035 12.183 4.73 26.007 3.43 8.22 7.478 13.532 10.492 16.72-6.093-.2-11.818-5.396-15.655-14.6-5.467-13.11-5.578-25.222-5.578-25.222s-.262-.022-.404-.023c-2.012.006-4.33 1.057-4.41 3.438-.02.56-.653 9.805 5.237 23.926 3 7.194 7.152 12.465 12.01 15.25 4.008 2.296 9.026 2.642 13.48 1.4 2.792 2.055 6.348 2.07 9.797 1.266 2.103-.488 4.346-1.094 6.646-1.775 5.265-1.487 12.855-3.94 22.394-7.865 2.197-.904 7.588-3.19 12.018-5.085L62.518 73.95zm103.3 79.928c27.357-33.167 25.452-82.187-5.714-113.147-31.166-30.96-80.513-32.85-113.9-5.674l4.253 4.226c30.707-24.552 75.75-22.67 104.258 5.65 28.508 28.32 30.404 73.065 5.688 103.568l5.415 5.38zM35.278 45.696C6.78 78.87 8.32 128.776 39.895 160.143c31.576 31.367 81.814 32.896 115.21 4.588l-5.405-5.37c-30.724 25.68-76.657 24.158-105.576-4.57-28.92-28.727-30.454-74.356-4.603-104.877l-4.242-4.216z" fill-rule="evenodd"/></symbol><symbol id="settings" viewBox="0 0 200 200"><g fill="none"><circle fill="#F1F1F1" cx="100" cy="100" r="100"/><circle fill="#2AA9E0" cx="100" cy="42.5" r="15"/><circle fill="#3F5D87" cx="100" cy="100" r="15"/><circle fill="#E6162D" cx="100" cy="157.5" r="15"/></g></symbol><symbol id="show" viewBox="0 0 200 100"><path d="M24.5 74.5l75-50 75 50" fill="none"/></symbol><symbol id="source" viewBox="0 0 26 26"><path d="M20 20c2-1.8 3-4.3 3-7s-1-5.2-3-7c-1.8-2-4.3-3-7-3S7.8 4 6 6c-2 1.8-3 4.3-3 7s1 5.2 3 7c1.8 2 4.3 3 7 3s5.2-1 7-3zm-.7-13c1.2 1.2 2 2.8 2.4 4.4-.3-.3-.5-.5-.7.4-.3 1.4-1.6.5-2.4 1-.8-.6-2.8 1-2.4-.8.5-1 2.7 1.2 1.6-.7-.7-1.2-2.6-4-2.4-5.5 0-2-2-.4-3 .3-.4 1.4 0 4-1.4 4.6-1.5 0-2.7.2-3.3 1.8-.4 1.2.3 3 1.6 3.2 1.8 1.2 2.5-1.3 4.2-1.4.5.6 2 .8 2 1.4-1 .2 1.5 1 0 1.4-.8 0-1.4-1-1-1.6-1.6-.4-1.6 2.4-3.2 1.5 0-1.4-2.6-.4-1 0 .7 0-.8 1 0 .7.4 0 1.8.5 1.4.8.8.5 1.4-1 2.2 0 .4 1-.4 1.2-1 .7-.4.3.6 1.2 1.6 1.6.3.2.6.3.8.2.5-.5 1.3-.6 1.4 0-1.2.7-2.5 1-3.8 1-2 0-3.7-.7-5.2-1.8.4-.2.6-.4.2-.7-.3-1-1.5-2-2.6-2-.5-1-1-2-1-3 .8-.4 1-1 1-1-.6-.5-1-1-1-1.7.3-1.8 1-3.5 2.4-4.8 1.7-1.6 4-2.5 6.2-2.5s4.5 1 6.2 2.5z"/></symbol><symbol id="star" viewBox="0 0 26 26"><path d="M13.5 19.7l-7 4.3L8 15.6 2 9.8l8.2-1L13.5 1l3.3 8 8.2.8-6 5.8 1.6 8.4z"/></symbol><symbol id="tags" viewBox="0 0 61 61"><path d="M36.46 37.243V25.346H24.564v11.898H36.46zm0 5.876v8.873c0 1.1.9 2.006 2.01 2.006h-.495c1.12 0 2.16-.878 2.344-1.96l1.26-9.594 10.187-1.338c1.09-.19 1.97-1.244 1.97-2.353v.494c0-1.12-.898-2.008-2.007-2.008h-9.466l.624-4.743c.05-1.11.04-2.888.006-3.983l-.417-3.173h9.256c1.1 0 2.006-.9 2.006-2.008v.493c0-1.12-.88-2.16-1.96-2.344l-9.983-1.312-1.47-11.204C40.137 7.88 39.084 7 37.974 7h.494c-1.12 0-2.01.9-2.01 2.008v10.465l-4.22-.555c-1.11-.05-2.888-.04-3.983-.006l-3.694.485V9.007C24.564 7.9 23.674 7 22.556 7h.494c-1.11 0-2.166.88-2.354 1.97l-1.46 11.127-10.527 1.38c-1.09.19-1.97 1.244-1.97 2.353v-.493c0 1.12.897 2.008 2.006 2.008h9.8l-.417 3.173c-.034 1.095-.046 2.874.005 3.982l.624 4.743H8.743c-1.1 0-2.005.9-2.005 2.008v-.492c0 1.12.875 2.158 1.957 2.343l10.755 1.416 1.252 9.526C20.89 53.124 21.93 54 23.05 54h-.495c1.11 0 2.008-.905 2.008-2.006v-8.807l3.676.483c1.106.05 2.885.04 3.98.005l4.24-.556z" fill-rule="evenodd"/></symbol><symbol id="trash" viewBox="0 0 26 26"><path d="M18.764 6.312c.665 0 1.158.54 1.1 1.203l-1.67 14.28c-.1.666-.574 1.205-1.058 1.205H8.348c-.485 0-.96-.54-1.057-1.204L5.62 7.516c-.058-.665.436-1.204 1.1-1.204h12.044zM13.26 3.115c-.01-.064-.055-.115-.1-.115h-.84c-.045 0-.09.05-.1.115l-.112.962H5.515c-.284 0-.515.23-.515.516 0 .285.23.517.515.517h14.45c.284 0 .515-.23.515-.517 0-.285-.23-.516-.515-.516h-6.593l-.112-.962z" fill-rule="evenodd"/></symbol><symbol id="tweet" viewBox="0 0 60 60"><path d="M57 6s-.4 3-4.5 5.7C49.2 14 46 15 43.5 17c2.2.5 6 0 9.2-1-.7 1-1.2 2-2.2 3-3 3.3-6 4.2-10.8 5-2.7.6-4.6 2.5-4.6 2.5 2.8.5 5.6.3 8.5-.4-1.7 4.7-10.5 7-14.4 7-5.4.2-10.8 4.6-15.6 10.4-2.3 2.8-4 5-5.5 6.4-2 2.5-4 4.5-4.7 4.2-.6-.3-.3-2.5 1.6-6 1-1.8 5.6-9.7 13-18C27.2 19.5 40.7 7.7 57 6z"/></symbol><symbol id="twitter" viewBox="0 0 300 300"><path d="M243 92.8c-6.8 3-14.2 5-22 6 8-4.8 14-12.2 17-21-7.5 4.3-15.7 7.5-24.4 9.2-7-7.4-16.8-12-27.8-12-21 0-38.2 17-38.2 38 0 2.8.4 5.7 1 8.5C117 120 88.8 104.8 70 82c-3.3 5.5-5.2 12-5.2 19 0 13 6.7 24.7 17 31.5-6.3-.2-12.2-2-17.3-4.7v.4c0 18.4 13 33.7 30.6 37.2-3 .8-6.5 1.3-10 1.3-2.4 0-4.8-.3-7.2-.7 5 15 19 26 35.7 26.3-13 10.2-29.5 16.2-47.4 16.2-3 0-6-.2-9-.5 17 10.7 37 17 58.5 17 70.2 0 108.6-57.7 108.6-107.7v-5c7.4-5.3 14-12 19-19.5z" fill="#2AA9E0"/></symbol><symbol id="users_in_photo" viewBox="0 0 100 117"><path d="M66.292 19.714C85.908 26.472 100 45.09 100 67c0 27.614-22.386 50-50 50S0 94.614 0 67c0-21.91 14.093-40.528 33.708-47.286l7.546-12.897c4.83-8.252 12.662-8.255 17.492 0l7.546 12.897zM50 71.418c10.162 0 18.4-8.13 18.4-18.155 0-10.027-8.238-18.155-18.4-18.155-10.162 0-18.4 8.128-18.4 18.155 0 10.026 8.238 18.155 18.4 18.155zm-4.29 24.437c2.37 4.05 6.212 4.05 8.58 0l7.353-12.565c2.37-4.05.447-7.334-4.29-7.334H42.647c-4.74 0-6.66 3.285-4.29 7.334l7.35 12.565z" fill="#3F5D87" fill-rule="evenodd"/></symbol><symbol id="weibo" viewBox="0 0 300 300"><g fill="none"><path d="M70.6 178c0 21.7 28.3 39 63.3 39s63.2-17.3 63.2-39c0-21.4-28.4-39-63.3-39s-63.4 17.6-63.4 39" fill="#fff"/><path d="M135.4 214c-31 3-57.7-11-59.7-31s21.5-38.8 52.4-41.8c31-3 57.7 10.8 59.7 31 2 20-21.4 38.7-52.3 41.7m61.8-66.8c-2.6-.8-4.4-1.3-3-4.7 3-7.4 3.3-14 0-18.4-6-8.5-22.6-8-41.6-.2 0 0-6 2.6-4.5-2 3-9.4 2.6-17.2-2-21.7-10.3-10-37.7.5-61.3 23.8-17.6 17.5-27.8 36-27.8 52 0 30.5 39.5 49 78.3 49 50.8 0 84.6-29 84.6-52.3 0-14-12-22-22.8-25.3" fill="#E6162D"/><path d="M231 91.3c-12.3-13.5-30.4-18.6-47-15-4 .7-6.4 4.5-5.6 8.3.8 3.8 4.6 6.2 8.5 5.4 11.8-2.5 24.6 1.2 33.4 10.7 8.7 9.6 11 22.7 7.3 34-1.2 3.8 1 7.8 4.6 9 3.8 1.2 7.8-.8 9-4.5 5.3-16.2 2-34.5-10.3-48m-19 17c-5.8-6.7-14.6-9.2-22.8-7.4-3.3.7-5.4 4-4.7 7.2.7 3.3 4 5.4 7.3 4.7 4-1 8.3.4 11.2 3.6 3 3.2 3.7 7.5 2.4 11.4-1 3.2.8 6.6 4 7.6 3.3 1 6.7-.7 7.8-4 2.5-7.7 1-16.7-5-23.2" fill="#f93"/><path d="M137 177.5c-1 2-3.4 2.8-5.3 2-1.8-.8-2.4-2.8-1.3-4.6 1-2 3.3-2.8 5.2-2 1.8.6 2.5 2.7 1.5 4.5m-9.8 12.6c-3 4.8-9.4 7-14.2 4.7-4.8-2.2-6.2-7.7-3.2-12.3 3-4.5 9.2-6.6 14-4.6 4.8 2 6.4 7.5 3.4 12.3m11.3-33.4c-14.8-3.8-31.4 3.5-37.8 16.3-6.5 13-.2 27.6 14.7 32.3 15.4 5 33.5-2.6 39.8-16.7 6.3-14-1.5-28-16.7-32" fill="#000"/></g></symbol><symbol id="writing" viewBox="0 0 113 72"><path d="M112.7 1S111 6 103 9.7c-6.7 3-12.8 3.8-17.8 7 3.6 1.4 10.8 1.8 16.6.7-1.6 2-2.8 3.5-5 5.2-6.6 4.8-12.2 5.6-21 5.7-5 0-9 3-9 3 4.8 1.6 10 2 15.2 2-4.5 7.7-21 9-28 7.6-10-.9-21 5.4-31.5 14.5-5 4.4-9 7.6-12 10C6.3 69 2 72 1 71.2c-1-.8.3-4.7 4.7-10.3C8 58 19 45 34.7 32.5 55.3 16 83.2-1.3 112.8 1z"/></symbol></svg>