<svg viewBox="0 0 283 150" xmlns="http://www.w3.org/2000/svg">
  <path d="M77 99c-5.4 2.7-10 6-14 10-3.8 4-7 8.8-9.2 14H53v-10H36V85h17V75h.8c2.3 5.3 5.4 10 9.3 14 4 4 8.6 7.3 14 10zm-43.3 14h-7.2V85h7.2v28zM23 113h-5.2V85H23v28zm-10.6 0H9V85h3.4v28zm-10 0H0V85h2.3v28zm219.3-63c24.2 0 43.8 17 43.8 38s-19.6 38-43.8 38c-2.3 0-4.6-.3-6.8-.6-9.5 10-20.3 11.8-31.2 12V135c6-3 10.6-8.6 10.6-15 0-1 0-1.7-.2-2.6-10-7-16.2-17.6-16.2-29.5 0-21 19.6-38 43.8-38zm47 85c0 5.5 3.4 10.3 8.5 13v2c-9.4-.2-18-1.8-26.2-10.4-2 .3-4 .4-6 .4-8.6 0-16.6-2.5-23-6.7 13.2 0 25.6-4.6 35-12.8 4.8-4 8.6-9 11.2-14.4 2.8-5.6 4.2-11.7 4.2-18v-3c6.5 5.7 10.6 13.7 10.6 22.5 0 10.2-5.5 19.3-14 25.3-.2.7-.2 1.5-.2 2.2zM133.6 85.4c23.7 0 43-19 43-42.7 0-23.6-19.3-42.7-43-42.7s-43 19-43 42.7c0 23.6 19.3 42.7 43 42.7zm-10 57.5c5.5 9.4 14.5 9.4 20 0l17.2-29.7c5.5-9.5 1-17.2-10-17.2h-34.4c-11 0-15.6 7.8-10 17.3l17.2 29.6z" fill="#3CAF36" fill-rule="evenodd"/>
</svg>
