<svg viewBox="0 0 283 150" xmlns="http://www.w3.org/2000/svg">
  <path d="M77 99c-5.4 2.7-10 6-14 10-3.8 4-7 8.8-9.2 14H53v-10H36V85h17V75h.8c2.3 5.3 5.4 10 9.3 14 4 4 9 7.3 14 10zm-43.3 14h-7.2V85h7.2v28zM23 113h-5.2V85H23v28zm-10.6 0H9V85h3.4v28zm-10 0H0V85h2.3v28zM234 135c-.3-.3-.8-.6-1.5-.6H198V111h11.5c1 0 2-.3 2.8-1 .7-.8 1-1.7 1-2.8 0-1-.2-1.8-.8-2.5l-19.3-23.3c-.8-1-1.8-1.3-3-1.3s-2.2 1-3 2L168 105c-.7.7-1 1.6-1 2.5 0 1 .4 2 1 2.8 1 .8 1.8 1 3 1h11.5v37.5l.2.7.3.7.6.4h58.8c.5 0 1 0 1.4-.5.3 0 .5-1 .5-1s0-.5-.4-1l-10-12zm45-16h-11.7V81.6l-.2-.7v-2h-59c-.4 0-1 0-1.3.4L206 81c0 .4 0 .8.5 1l9.5 12c.2.6.7 1 1.4 1H252v24h-11.5c-1 0-2 .2-2.8 1-.7.7-1 1.6-1 2.7 0 1 .2 1.8.8 2.5l19.3 23.3c.8 1 1.8 1.4 3 1.4s2.2-1 3-2l19.2-23c1-.8 1-1.7 1-2.6 0-1 0-2-1-2.8-1-.8-1.3-1-3-1zM133.4 85.3c23.7 0 43-19 43-42.7C176.4 19 157 0 133.4 0s-43 19-43 42.6 19.3 42.7 43 42.7zm-10 57.5c5.5 9.4 14.5 9.4 20 0l17.2-29.7c5.5-9 1-17-10-17h-34.4c-11 0-15.5 8-10 18l17.2 29.7z" fill="#2AA9E0" fill-rule="evenodd"/>
</svg>
