<svg viewBox="0 0 283 150" xmlns="http://www.w3.org/2000/svg">
  <path d="M77 99c-5.4 2.6-10 6-14 10-3.8 4-7 8.7-9.2 14H53v-10H36V85h17V75h.8c2.2 5 5.4 9.7 9.2 13.7 4 4 8.6 7.4 14 10zm-43.3 14h-7.2V85h7.2v28zM23 113h-5.2V85H23v28zm-10.6 0H9V85h3.4v28zm-10 0H0V85h2.3v28zM283 17.7c-6.8 3-14.2 5-22 6 8-4.8 14-12.2 17-21-7.5 4.3-15.7 7.5-24.4 9.2-7-7.6-16.8-12-27.8-12-21 0-38.2 17-38.2 38 0 2.6.4 5.5 1 8.3C157 45 128.8 29.8 110 7c-3.3 5.5-5.2 12-5.2 19 0 13 6.7 24.7 17 31.5-6.3-.2-12.2-2-17.3-4.7v.4c0 18.4 13 33.7 30.6 37.2-3 .8-6.3 1.3-10 1.3-2.2 0-4.6-.3-7-.7 5 15 19 26 35.7 26.3-13 10.2-29.5 16.2-47.4 16.2-3 0-6-.2-9-.5 17 10.7 37 17 58.5 17 70 0 108.3-57.7 108.3-107.7v-5c7.5-5.3 14-12 19-19.5z" fill="#2AA9E0"/>
</svg>
