<svg viewBox="0 0 283 150" xmlns="http://www.w3.org/2000/svg">
  <path d="M174.4 139c-31 3-57.7-11-59.7-31s21.5-38.8 52.4-41.8c31-3 58 10.8 60 31 2 20-21 38.7-52 41.7m62-67c-2-1-4-2-3-5 3-8 4-14 0-19-6-9-22-8-41-1 0 0-6 2-4-2 3-10 3-17-2-22-10-10-37 0-61 24-18 17-28 36-28 52 0 30 40 49 79 49 50.8 0 84.8-29 84.8-52 0-14-12-22-23-26zm33-56C258 3 240-3 223 1c-4 .8-6.4 4.6-5.6 8.4.8 3.8 4.6 6.2 8.5 5.4 11-2 24 2 33 11 8 10 11 23 7 34-1 4 1 8 4 9 4 1 8-1 9-4 5-16 2-34.4-11-48zm-19 17c-5-7-14-10-22-8-3 0-5 4-4 7s4 5 8 4 8.3 0 11 3c3 4 4 8 2.6 12-1 3 .8 6.6 4 7.6 3.3 1 6.7-.6 7.8-4 2.7-7.6 1-16.6-5-23zm-75 69c-1 2-3 2-5 2-2-1-2-3-1-5s4-3 5-2c2 0 3 2 2 4zm-9 12c-3 4-9 7-14 4-4-2-6-8-3-13s9-7 14-5 7 7.2 4 12m11-33c-14.2-3.4-31 4-37.2 17-6.5 13-.2 27.4 14.7 32 15 5 33.3-2.5 39.6-16.6C201 99 193 85 178 81zM77 99c-5.4 2.7-10 6-14 10-3.8 4-7 8.8-9.2 14H53v-10H36V85h17V75h.8c2.3 5.3 5.4 10 9.3 14 4 4 9 7.3 14 10zm-43.3 14h-7.2V85h7.2v28zM23 113h-5.2V85H23v28zm-10.6 0H9V85h3.4v28zm-10 0H0V85h2.3v28z" fill="#E6162D"/>
</svg>
