<svg viewBox="0 0 283 150" xmlns="http://www.w3.org/2000/svg">
  <path d="M77 90c-5.4 2.7-10 6-14 10-3.8 4.2-7 8.8-9.2 14H53v-10H36V76h17V66h.8c2.3 5.3 5.4 10 9.3 14 4 4 9 7.3 14 10zm-43.3 14h-7.2V76h7.2v28zM23 104h-5.2V76H23v28zm-10.6 0H9V76h3.4v28zm-10 0H0V76h2.3v28zM283 30s-2.5 8.8-15.4 15c-10.5 5-20.2 6.8-28.2 12.4 6 2 17.6 2.2 26.8 0-2.3 3.5-4.2 6-7.7 8.7-10.5 9-19.3 10-33.5 11-8 .4-14 5.4-14 5.4 8 2.5 16 3 24.7 2.3-6.7 13-33.2 15.8-44.8 14 0 0 0 .3-.6.3-16-1.7-33.6 9.3-50 24.3-8 7.5-14 12.8-18.6 16.8-7 6.6-13.6 11.7-15.3 10.5-1.7-1 .2-7.5 7-17 3.8-5 20.7-26.2 45.4-47.5 32-27.8 76-57 124-55.3z" fill-rule="evenodd"/>
</svg>
