<svg viewBox="0 0 201 200" xmlns="http://www.w3.org/2000/svg">
  <path d="M62.922 111.538c0 20.698 16.838 37.5 37.578 37.5 20.74 0 37.578-16.802 37.578-37.5 0-20.697-16.838-37.5-37.578-37.5-20.74 0-37.578 16.803-37.578 37.5zm118.516-63.46h-40.47C138.08 36.538 135.19 25 123.626 25h-46.25C65.812 25 62.922 36.538 60.03 48.077H19.563C13.203 48.077 8 53.27 8 59.615v103.847C8 169.808 13.203 175 19.563 175h161.875c6.36 0 11.562-5.192 11.562-11.538V59.615c0-6.346-5.203-11.538-11.563-11.538zM100.5 162.74c-28.328 0-51.31-22.932-51.31-51.202s22.982-51.2 51.31-51.2c28.328 0 51.31 22.93 51.31 51.2 0 28.27-22.982 51.202-51.31 51.202zm72.627-84.375c4.986 0 9.033-4.038 9.033-9.014 0-4.972-4.047-9.01-9.033-9.01s-9.033 4.038-9.033 9.014c0 4.977 4.047 9.015 9.033 9.015z" fill-rule="evenodd"/>
</svg>
