<svg viewBox="0 0 200 200" xmlns="http://www.w3.org/2000/svg">
  <g fill="none" fill-rule="evenodd">
    <circle fill="#F1F1F1" cx="100" cy="100" r="100"/>
    <path d="M100.5 90c1.933 0 3.5-1.567 3.5-3.5s-1.567-3.5-3.5-3.5-3.5 1.567-3.5 3.5 1.567 3.5 3.5 3.5zm0 13.417c1.933 0 3.5-1.567 3.5-3.5s-1.567-3.5-3.5-3.5-3.5 1.567-3.5 3.5 1.567 3.5 3.5 3.5zm0 13.416c1.933 0 3.5-1.567 3.5-3.5s-1.567-3.5-3.5-3.5-3.5 1.567-3.5 3.5 1.567 3.5 3.5 3.5z" fill="#000"/>
    <g transform="translate(84 133)">
      <path d="M15.385 18.462c5.098 0 9.23-4.133 9.23-9.23 0-5.1-4.132-9.232-9.23-9.232-5.098 0-9.23 4.133-9.23 9.23 0 5.1 4.132 9.232 9.23 9.232zm-2.153 3.574c1.19-2.06 3.117-2.058 4.305 0l3.69 6.39c1.188 2.058.223 3.728-2.154 3.728h-7.377c-2.378 0-3.34-1.67-2.153-3.73l3.69-6.388z" fill="#000"/>
      <circle stroke="#000" stroke-width="3" cx="15.385" cy="24.615" r="15.385"/>
    </g>
    <g transform="translate(84 26)">
      <circle stroke="#2AA9E0" stroke-width="3" cx="15.385" cy="24.615" r="15.385"/>
      <path d="M15.385 18.462c5.098 0 9.23-4.133 9.23-9.23 0-5.1-4.132-9.232-9.23-9.232-5.098 0-9.23 4.133-9.23 9.23 0 5.1 4.132 9.232 9.23 9.232z" fill="#3F5D87"/>
      <path d="M13.232 30.887c1.19 2.06 3.117 2.058 4.305 0l3.69-6.39c1.188-2.058.223-3.728-2.154-3.728h-7.377c-2.378 0-3.34 1.67-2.153 3.728l3.69 6.39z" fill="#E6162D"/>
    </g>
  </g>
</svg>
