<svg viewBox="0 0 26 26" xmlns="http://www.w3.org/2000/svg">
  <path d="M13 15.74c1.52 0 2.74-1.2 2.74-2.74 0-1.52-1.2-2.74-2.74-2.74-1.52 0-2.74 1.2-2.74 2.74 0 1.52 1.2 2.74 2.74 2.74zm1.12-3.26c.32 0 .6-.26.6-.6 0-.32-.28-.6-.6-.6-.34 0-.6.28-.6.6 0 .34.26.6.6.6zm-8.44.4h3.6v.2h-3.6v-.2zm.52-2.62l3.4 1.26-.08.2-3.34-1.28.08-.2-.06.02zm1.48-2.28l2.66 2.4-.14.16-2.66-2.4.14-.16zm2.2-1.6l1.56 3.2-.2.1-1.56-3.2.2-.1zm2.6-.7l.32 3.52-.2.04-.32-3.56h.2zm2.72.26l-1 3.46-.2-.08 1-3.44.2.06zm2.4 1.26L15.4 10l-.14-.12 2.14-2.82.2.12v.02zm1.8 2l-3.06 1.9-.12-.2 3.06-1.88.12.2V9.2zm.92 2.54l-3.52.66-.04-.2 3.52-.68.04.2v.02zm-.04 2.72l-3.52-.66.04-.2 3.52.66-.04.2zm-1 2.52l-3.08-1.92.14-.2 3.06 1.94-.14.2.02-.02zm-1.88 1.94l-2.14-2.84.16-.12 2.18 2.84-.2.14v-.02zm-2.4 1.2l-1-3.46.2-.06 1 3.46-.2.06zm-2.72.2l.32-3.6.2.04-.32 3.54h-.2v.02zm-2.6-.8l1.6-3.2.16.1-1.56 3.2-.2-.08v-.02zm-2.14-1.66l2.66-2.4.14.16-2.66 2.4-.14-.16zM13 23c5.52 0 10-4.48 10-10S18.52 3 13 3 3 7.48 3 13s4.48 10 10 10zm0-.64c5.2 0 9.36-4.2 9.36-9.36 0-5.2-4.2-9.36-9.36-9.36-5.2 0-9.36 4.2-9.36 9.36 0 5.2 4.2 9.36 9.36 9.36z" fill-rule="evenodd"/>
</svg>
