<svg viewBox="0 0 100 100" xmlns="http://www.w3.org/2000/svg">
    <path d="M50 63.684c7.558 0 13.684-6.126 13.684-13.684 0-7.558-6.126-13.684-13.684-13.684-7.558 0-13.684 6.126-13.684 13.684 0 7.558 6.126 13.684 13.684 13.684zm5.56-16.25c1.652 0 2.993-1.34 2.993-2.993 0-1.652-1.34-2.993-2.994-2.993-1.654 0-2.994 1.34-2.994 2.994 0 1.654 1.34 2.994 2.993 2.994zm-42.133 2.04h17.895v1.052H13.427v-1.052zm2.667-13.25L32.8 42.64l-.377.983-16.706-6.412.377-.983zm7.264-11.395l13.298 11.973-.704.783-13.298-11.974.704-.783zm11.028-8.073L42.23 32.84l-.945.462L33.44 17.22l.946-.463zm13.054-3.492L49 31.092l-1.05.09-1.558-17.825 1.048-.092zm13.435 1.45l-4.932 17.2-1.012-.29 4.934-17.2 1.01.29zm12.01 6.196l-10.77 14.292-.84-.634 10.77-14.29.84.633zm8.968 10.11l-15.176 9.483-.558-.893 15.175-9.482.558.892zm4.72 12.664l-17.566 3.414-.2-1.033L86.37 42.65l.2 1.034zm-.2 13.666l-17.567-3.415.2-1.033 17.567 3.414-.2 1.034zm-5.078 12.522L66.12 60.39l.557-.893 15.176 9.483-.558.892zm-9.25 9.85l-10.77-14.29.84-.634 10.77 14.29-.84.635zm-12.18 5.854L54.93 68.374l1.013-.29 4.932 17.202-1.01.29zM46.39 86.643l1.56-17.826 1.048.09-1.56 17.828-1.048-.092zM33.44 82.78L41.285 66.7l.946.46-7.844 16.085-.946-.462zM22.654 74.39l13.298-11.974.704.783L23.358 75.17l-.704-.782zM50 100c27.614 0 50-22.386 50-50S77.614 0 50 0 0 22.386 0 50s22.386 50 50 50zm0-3.158c25.87 0 46.842-20.972 46.842-46.842C96.842 24.13 75.87 3.158 50 3.158 24.13 3.158 3.158 24.13 3.158 50 3.158 75.87 24.13 96.842 50 96.842z" fill-rule="evenodd"/>
</svg>