<svg viewBox="0 0 60 60" xmlns="http://www.w3.org/2000/svg">
    <g fill="none">
        <path d="M41 35.524c6.627 0 12-5.48 12-12.239s-5.373-12.239-12-12.239-12 5.48-12 12.239 5.373 12.239 12 12.239zm-2.798 16.475c1.546 2.73 4.052 2.729 5.598 0l4.795-8.471c1.546-2.73.291-4.944-2.798-4.944h-9.59c-3.091 0-4.344 2.214-2.798 4.944l4.795 8.471h-.001z" fill="#CECECF"/>
        <path d="M18 36.816c6.075 0 11-5.098 11-11.385 0-6.288-4.925-11.385-11-11.385s-11 5.098-11 11.385c0 6.288 4.925 11.385 11 11.385zm-2.565 15.325c1.417 2.54 3.714 2.539 5.131 0l4.396-7.88c1.417-2.54.267-4.599-2.565-4.599h-8.791c-2.834 0-3.982 2.06-2.565 4.599l4.396 7.88h-.001z" fill="#CECECF"/>
        <path d="M29 33.464c8.284 0 15-6.716 15-15 0-8.284-6.716-15-15-15-8.284 0-15 6.716-15 15 0 8.284 6.716 15 15 15zm-3.498 20.191c1.932 3.346 5.065 3.345 6.997 0l5.994-10.382c1.932-3.346.364-6.059-3.498-6.059h-11.988c-3.864 0-5.43 2.714-3.498 6.059l5.994 10.382h-.001z" fill="#000"/>
    </g>
</svg>