<svg viewBox="0 0 60 60" xmlns="http://www.w3.org/2000/svg">
  <path d="M39.3 35c6 0 10.7-5 10.7-11s-4.8-10.8-10.7-10.8S28.6 18 28.6 24c0 6 4.8 11 10.7 11zm-2.5 14.6c1.4 2.4 3.6 2.4 5 0L46 42c1.5-2.4.3-4.4-2.4-4.4H35c-2.7 0-3.8 2-2.5 4.4l4.3 7.6zM18.8 36c5.4 0 9.8-4.5 9.8-10 0-5.7-4.4-10.2-9.8-10.2S9 20.3 9 25.8c0 5.7 4.4 10.3 9.8 10.3zm-2.3 13.7c1.3 2.2 3.3 2.2 4.6 0l4-7c1.3-2.3.2-4-2.3-4H15c-2.6 0-3.7 1.7-2.4 4l4 7z" fill="#CECECF"/>
  <path d="M28.6 33C36 33 42 27 42 19.8c0-7.3-6-13.3-13.4-13.3s-13.4 6-13.4 13.3c0 7.4 6 13.4 13.4 13.4zm-3 18c1.6 3 4.4 3 6 0l5.5-9.2c1.8-3 .4-5.4-3-5.4H23.3c-3.5 0-5 2.4-3.2 5.4l5.5 9.2z"/>
</svg>
