<svg viewBox="0 0 60 60" xmlns="http://www.w3.org/2000/svg">
    <path d="M15.38 41.49c4.119-1.259 6.405-5.728 5.105-9.98-1.3-4.252-5.694-6.678-9.813-5.419-4.119 1.259-6.405 5.728-5.105 9.98 1.3 4.252 5.694 6.678 9.813 5.419zm1.429 10.896c1.486 1.424 3.044.947 3.479-1.064l1.351-6.24c.436-2.011-.77-3.165-2.69-2.578l-5.961 1.823c-1.921.587-2.274 2.219-.789 3.642l4.61 4.418z"/>
    <path d="M39.771 33.244c7.384 0 13.37-5.97 13.37-13.333 0-7.364-5.986-13.333-13.37-13.333-7.384 0-13.37 5.97-13.37 13.333 0 7.364 5.986 13.333 13.37 13.333zm-3.118 17.948c1.722 2.974 4.514 2.973 6.236 0l5.342-9.228c1.722-2.974.324-5.386-3.118-5.386h-10.685c-3.444 0-4.84 2.412-3.118 5.386l5.342 9.228h-.001z" fill="#CECECF"/>
</svg>