<svg viewBox="0 0 60 60" xmlns="http://www.w3.org/2000/svg">
    <g fill="none">
        <path d="M44.882 35.205c4.483 0 8.118-3.943 8.118-8.806 0-4.863-3.635-8.806-8.118-8.806-4.483 0-8.118 3.943-8.118 8.806 0 4.863 3.635 8.806 8.118 8.806zm-1.893 11.853c1.046 1.964 2.741 1.964 3.787 0l3.244-6.095c1.046-1.964.197-3.557-1.893-3.557h-6.488c-2.091 0-2.939 1.593-1.893 3.557l3.244 6.095h-.001zM30 25.876c4.483 0 8.118-3.855 8.118-8.61 0-4.755-3.635-8.61-8.118-8.61-4.483 0-8.118 3.855-8.118 8.61 0 4.755 3.635 8.61 8.118 8.61zm-1.893 11.59c1.046 1.921 2.741 1.92 3.787 0l3.244-5.959c1.046-1.921.197-3.478-1.893-3.478h-6.488c-2.091 0-2.939 1.558-1.893 3.478l3.244 5.959h-.001zM15.118 35.205c4.483 0 8.118-3.943 8.118-8.806 0-4.863-3.635-8.806-8.118-8.806-4.483 0-8.118 3.943-8.118 8.806 0 4.863 3.635 8.806 8.118 8.806zm-1.893 11.853c1.046 1.964 2.741 1.964 3.787 0l3.244-6.095c1.046-1.964.197-3.557-1.893-3.557h-6.488c-2.091 0-2.939 1.593-1.893 3.557l3.244 6.095h-.001z" fill="#000"/>
        <path d="M30 43.771c2.989 0 5.412-2.474 5.412-5.526 0-3.052-2.423-5.526-5.412-5.526s-5.412 2.474-5.412 5.526c0 3.052 2.423 5.526 5.412 5.526zm-1.262 2.14c.697-1.233 1.827-1.232 2.524 0l2.163 3.825c.697 1.233.131 2.232-1.262 2.232h-4.325c-1.394 0-1.959-1-1.262-2.232l2.163-3.825z" fill="#CECECF"/>
    </g>
</svg>