<svg viewBox="0 0 60 60" xmlns="http://www.w3.org/2000/svg">
    <path d="M39.304 34.91c5.907 0 10.696-4.871 10.696-10.879 0-6.008-4.789-10.879-10.696-10.879s-10.696 4.871-10.696 10.879c0 6.008 4.789 10.879 10.696 10.879zm-2.494 14.644c1.378 2.427 3.612 2.426 4.989 0l4.274-7.53c1.378-2.427.26-4.394-2.494-4.394h-8.548c-2.755 0-3.872 1.968-2.494 4.394l4.274 7.53h-.001z" fill="#CECECF"/>
    <path d="M18.804 36.059c5.415 0 9.804-4.531 9.804-10.12 0-5.589-4.39-10.12-9.804-10.12-5.415 0-9.804 4.531-9.804 10.12 0 5.589 4.39 10.12 9.804 10.12zm-2.286 13.622c1.263 2.257 3.311 2.257 4.573 0l3.918-7.004c1.263-2.257.238-4.088-2.286-4.088h-7.836c-2.526 0-3.549 1.831-2.286 4.088l3.918 7.004h-.001z" fill="#CECECF"/>
    <path d="M28.609 33.079c7.384 0 13.37-5.97 13.37-13.333 0-7.364-5.986-13.333-13.37-13.333-7.384 0-13.37 5.97-13.37 13.333 0 7.364 5.986 13.333 13.37 13.333zm-3.118 17.948c1.722 2.974 4.514 2.973 6.236 0l5.342-9.228c1.722-2.974.324-5.386-3.118-5.386h-10.685c-3.444 0-4.84 2.412-3.118 5.386l5.342 9.228h-.001z"/>
</svg>