<svg viewBox="0 0 200 200" xmlns="http://www.w3.org/2000/svg">
  <path d="M77.08 25.087c12.493-22.782 32.75-22.778 45.242 0l68.91 125.66c12.494 22.783 1.553 41.25-24.407 41.25H32.575c-25.972 0-36.897-18.472-24.406-41.25l68.91-125.66zM138 75.997s-.108 5.597-6.828 11.408c-5.42 4.734-10.946 7.317-14.848 11.944 3.902.214 10.838-1.507 16.04-4.305-.867 2.475-1.625 4.197-3.25 6.456-4.878 6.566-9.972 8.933-18.317 11.516-4.77 1.506-7.803 5.488-7.803 5.488 5.094.215 10.08-.754 15.064-2.583-1.95 8.825-17.34 14.743-24.493 15.604 0 0 0 .108-.11.108-9.644 1.614-18.423 10.976-25.793 22.705-3.576 5.704-6.394 9.9-8.453 13.02-3.144 4.95-6.287 9.04-7.48 8.61-1.19-.43-1.083-4.52 1.518-11.19 1.41-3.66 8.128-19.156 19.508-35.835 14.63-21.737 36.307-46.38 65.244-52.944z" fill-rule="evenodd"/>
</svg>
