<svg viewBox="0 0 200 200" xmlns="http://www.w3.org/2000/svg">
  <path d="M100 200c55.228 0 100-44.772 100-100S155.228 0 100 0 0 44.772 0 100s44.772 100 100 100zm26-75.746c11.084-17.488 17-27.84 17-42.254 0-23.336-19.028-42.254-42.5-42.254S58 58.664 58 82c0 14.47 5.847 24.762 17 42.254h51zm-44 10.02c0-1.382 1.128-2.5 2.5-2.5h32c1.38 0 2.5 1.108 2.5 2.5 0 1.38-1.128 2.5-2.5 2.5h-32c-1.38 0-2.5-1.11-2.5-2.5zm-1 7.972c0-1.38 1.125-2.5 2.5-2.5h34c1.38 0 2.5 1.11 2.5 2.5 0 1.38-1.125 2.5-2.5 2.5h-34c-1.38 0-2.5-1.11-2.5-2.5zm4 7.974c0-1.38 1.12-2.5 2.506-2.5h24.988c1.384 0 2.506 1.11 2.506 2.5 0 1.38-1.12 2.5-2.506 2.5H87.506c-1.384 0-2.506-1.11-2.506-2.5zm5 8.026c0-1.38 1.118-2.5 2.493-2.5h15.014c1.377 0 2.493 1.11 2.493 2.5 0 1.38-1.118 2.5-2.493 2.5H92.493c-1.377 0-2.493-1.11-2.493-2.5z" fill-rule="evenodd"/>
</svg>
