<svg viewBox="0 0 200 200" xmlns="http://www.w3.org/2000/svg">
  <g  fill-rule="evenodd">
    <circle cx="100" cy="100" r="100"/>
    <path d="M126 124.5c11-17.5 17-27.8 17-42.2C143 59 124 40 100.5 40S58 59 58 82.3c0 14.4 5.8 24.7 17 42.2" stroke="#FFF" stroke-width="7" stroke-linecap="round" stroke-linejoin="round"/>
    <path d="M82 134.5c0-1.4 1-2.5 2.5-2.5h32c1.4 0 2.5 1 2.5 2.5 0 1.4-1 2.5-2.5 2.5h-32c-1.4 0-2.5-1-2.5-2.5zm-1 8c0-1.4 1-2.5 2.5-2.5h34c1.4 0 2.5 1 2.5 2.5 0 1.4-1 2.5-2.5 2.5h-34c-1.4 0-2.5-1-2.5-2.5zm4 8c0-1.4 1-2.5 2.5-2.5h25c1.4 0 2.5 1 2.5 2.5 0 1.4-1 2.5-2.5 2.5h-25c-1.4 0-2.5-1-2.5-2.5zm5 8c0-1.4 1-2.5 2.5-2.5h15c1.4 0 2.5 1 2.5 2.5 0 1.4-1 2.5-2.5 2.5h-15c-1.4 0-2.5-1-2.5-2.5z" fill="#FFF"/>
  </g>
</svg>
