<svg viewBox="0 0 200 200" xmlns="http://www.w3.org/2000/svg">
  <path d="M6.4 53.703C6.4 27.193 27.897 5.7 54.403 5.7h92.594C173.507 5.7 195 27.197 195 53.703v92.594c0 26.51-21.497 48.003-48.003 48.003H54.403c-26.51 0-48.003-21.497-48.003-48.003V53.703zm120 70.502c11.084-17.487 17-27.838 17-42.253 0-23.336-19.028-42.254-42.5-42.254S58.4 58.616 58.4 81.952c0 14.468 5.847 24.762 17 42.253h51zm-44 9.993c0-1.38 1.128-2.5 2.5-2.5h32c1.38 0 2.5 1.11 2.5 2.5 0 1.38-1.128 2.5-2.5 2.5h-32c-1.38 0-2.5-1.11-2.5-2.5zm-1 7.974c0-1.38 1.125-2.5 2.5-2.5h34c1.38 0 2.5 1.11 2.5 2.5 0 1.38-1.125 2.5-2.5 2.5h-34c-1.38 0-2.5-1.11-2.5-2.5zm4 7.974c0-1.38 1.12-2.5 2.506-2.5h24.988c1.384 0 2.506 1.11 2.506 2.5 0 1.38-1.12 2.5-2.506 2.5H87.906c-1.384 0-2.506-1.11-2.506-2.5zm5 8.026c0-1.38 1.118-2.5 2.493-2.5h15.014c1.377 0 2.493 1.11 2.493 2.5 0 1.38-1.118 2.5-2.493 2.5H92.893c-1.377 0-2.493-1.11-2.493-2.5z" fill-rule="evenodd"/>
</svg>
