<svg viewBox="0 0 60 60" xmlns="http://www.w3.org/2000/svg">
    <path d="M48.703 2h-37.406c-5.113 0-9.297 4.184-9.297 9.297v37.406c0 5.113 4.184 9.297 9.297 9.297h37.406c5.113 0 9.297-4.184 9.297-9.297v-37.406c0-5.113-4.184-9.297-9.297-9.297zm-28.777 24.5h20.147c.382 1.097.591 2.274.591 3.5 0 5.88-4.784 10.664-10.664 10.664s-10.664-4.784-10.664-10.664c0-1.226.208-2.403.591-3.5zm31.073.003v20.997c0 1.925-1.575 3.5-3.5 3.5h-35c-1.925 0-3.5-1.575-3.5-3.5v-21h5.475c-.254 1.127-.389 2.298-.389 3.5 0 8.775 7.139 15.914 15.914 15.914 8.775 0 15.914-7.139 15.914-15.914 0-1.202-.135-2.373-.389-3.5l5.475.003zm0-12.253c0 .963-.788 1.75-1.75 1.75h-3.5c-.962 0-1.75-.787-1.75-1.75v-3.5c0-.963.788-1.75 1.75-1.75h3.5c.962 0 1.75.787 1.75 1.75v3.5z"/>
</svg>