<svg viewBox="0 0 200 200" xmlns="http://www.w3.org/2000/svg">
  <g fill="none" fill-rule="evenodd">
    <circle fill="#F1F1F1" transform="rotate(-90 100 100)" cx="100" cy="100" r="100"/>
    <g transform="translate(140 80)">
      <path d="M13.232 22.036c1.19-2.06 3.117-2.058 4.305 0l3.69 6.39c1.188 2.058.223 3.728-2.154 3.728h-7.377c-2.378 0-3.34-1.67-2.153-3.73l3.69-6.388z" fill="#E6162D"/>
      <circle stroke="#2AA9E0" stroke-width="3" cx="15.385" cy="24.615" r="15.385"/>
      <path d="M15.385 18.462c5.098 0 9.23-4.133 9.23-9.23 0-5.1-4.132-9.232-9.23-9.232-5.098 0-9.23 4.133-9.23 9.23 0 5.1 4.132 9.232 9.23 9.232z" fill="#3F5D87"/>
    </g>
    <g transform="translate(29 80)">
      <circle stroke="#000" stroke-width="3" cx="15.385" cy="24.615" r="15.385"/>
      <path d="M15.385 18.462c5.098 0 9.23-4.133 9.23-9.23 0-5.1-4.132-9.232-9.23-9.232-5.098 0-9.23 4.133-9.23 9.23 0 5.1 4.132 9.232 9.23 9.232zM13.232 30.887c1.19 2.06 3.117 2.058 4.305 0l3.69-6.39c1.188-2.058.223-3.728-2.154-3.728h-7.377c-2.378 0-3.34 1.67-2.153 3.728l3.69 6.39z" fill="#000"/>
    </g>
    <path d="M114 100.486c-1.903.968-3.535 2.162-4.893 3.582-1.36 1.42-2.44 3.054-3.243 4.903h-.28v-3.548H99.64V95.55h5.94V92h.282c.814 1.87 1.9 3.514 3.26 4.928 1.358 1.414 2.984 2.6 4.876 3.558zm-15.2 4.936h-2.508V95.55H98.8v9.872zm-3.73 0h-1.815V95.55h1.815v9.872zm-3.713 0h-1.155V95.55h1.155v9.872zm-3.548 0H87V95.55h.81v9.872z" fill="#000"/>
  </g>
</svg>
