<?xml version="1.0" encoding="UTF-8" standalone="no"?>
<svg width="200px" height="200px" viewBox="0 0 200 200" version="1.1" xmlns="http://www.w3.org/2000/svg" xmlns:xlink="http://www.w3.org/1999/xlink" xmlns:sketch="http://www.bohemiancoding.com/sketch/ns">
    <!-- Generator: Sketch 3.4.3 (16044) - http://www.bohemiancoding.com/sketch -->
    <title>Oval 1 + Rachael Copy</title>
    <desc>Created with Sketch.</desc>
    <defs></defs>
    <g id="Page-1" stroke="none" stroke-width="1" fill="none" fill-rule="evenodd" sketch:type="MSPage">
        <g id="Oval-1-+-Rachael-Copy" sketch:type="MSLayerGroup">
            <circle id="Oval-1" fill="#F1F1F1" sketch:type="MSShapeGroup" cx="100" cy="100" r="100"></circle>
            <g id="Rachael-Copy" transform="translate(61.000000, 49.000000)" sketch:type="MSShapeGroup">
                <path d="M39.5,47.4 C52.5891486,47.4 63.2,36.7891486 63.2,23.7 C63.2,10.6108514 52.5891486,-3.55271368e-15 39.5,-3.55271368e-15 C26.4108514,-3.55271368e-15 15.8,10.6108514 15.8,23.7 C15.8,36.7891486 26.4108514,47.4 39.5,47.4 L39.5,47.4 Z M33.97273,56.5785124 C37.0253569,51.2912075 41.9757707,51.2931606 45.02727,56.5785124 L54.4975321,72.9814876 C57.550159,78.2687925 55.0732607,82.555 48.9702622,82.555 L30.0297378,82.555 C23.924484,82.555 21.4509686,78.2668394 24.5024679,72.9814876 L33.97273,56.5785124 L33.97273,56.5785124 Z" id="Oval-1" fill="#000000"></path>
                <circle id="Oval-2" stroke="#000000" stroke-width="3" cx="39.5" cy="63.2" r="39.5"></circle>
            </g>
        </g>
    </g>
</svg>