<svg viewBox="0 0 26 26" xmlns="http://www.w3.org/2000/svg">
  <path d="M11.333 3c4.603 0 8.334 3.397 8.334 7.587 0 4.19-3.73 7.587-8.334 7.587-.442 0-.875-.032-1.3-.092-1.79 2.005-3.856 2.365-5.922 2.418v-.49c1.117-.613 2.015-1.73 2.015-3.004 0-.177-.012-.352-.035-.523C4.205 15.093 3 12.968 3 10.587 3 6.397 6.73 3 11.333 3zm8.96 17.006c0 1.092.63 2.048 1.596 2.573V23c-1.79-.045-3.435-.354-4.986-2.073-.367.052-.743.08-1.126.08-1.658 0-3.184-.504-4.403-1.35 2.51-.01 4.883-.914 6.68-2.55.907-.827 1.622-1.795 2.126-2.88.535-1.15.806-2.374.806-3.64 0-.204-.008-.407-.022-.61C22.224 11.15 23 12.745 23 14.504c0 2.04-1.044 3.862-2.678 5.054-.02.146-.03.296-.03.45z" fill-rule="evenodd"/>
</svg>
