<svg viewBox="0 0 34 26" xmlns="http://www.w3.org/2000/svg">
  <path d="M19.23 17.597c-.086-.102-.208-.153-.363-.153h-8.4V12.11h2.8c.252 0 .47-.087.656-.263.185-.176.277-.384.277-.625 0-.222-.073-.412-.22-.57L9.316 5.32c-.185-.204-.423-.306-.715-.306s-.53.1-.715.305L3.22 10.652c-.147.157-.22.347-.22.57 0 .24.093.448.277.624.185.176.404.264.656.264h2.8v8.334c0 .028.005.082.015.16.01.08.024.132.044.16.02.028.046.065.08.11.034.047.078.08.13.098.054.02.12.028.198.028h14c.126 0 .236-.044.328-.132.092-.088.14-.192.14-.312 0-.093-.035-.19-.103-.292l-2.334-2.667zm10.837-3.708h-2.8V5.555c0-.028-.005-.08-.015-.16-.01-.08-.024-.132-.044-.16-.02-.028-.046-.065-.08-.11-.034-.047-.077-.08-.13-.098-.054-.02-.12-.028-.198-.028h-14c-.126 0-.236.044-.328.132-.092.088-.138.192-.138.312 0 .102.033.195.102.278L14.77 8.39c.086.11.208.166.363.166h8.4v5.333h-2.8c-.252 0-.47.087-.656.262-.184.177-.277.385-.277.626 0 .222.073.412.22.57l4.666 5.332c.194.214.432.32.714.32s.52-.106.715-.32l4.666-5.333c.147-.157.22-.347.22-.57 0-.24-.092-.448-.277-.624-.185-.176-.403-.264-.656-.264z" fill-rule="evenodd"/>
</svg>
