<svg viewBox="0 0 201 201" xmlns="http://www.w3.org/2000/svg">
  <path d="M89.464 80.008L109.42 71.8c4.515-1.857 9.664.208 11.534 4.69 1.368 3.287 1.246 7.538-1.5 8.67-1.57.642-1.564 1.536-1.203 2.406.12.273.29.4.5.476l24.78-10.194c4.03-1.66 8.65.243 10.32 4.242 1.67 4.005-.305 8.452-4.272 10.25-1.73.785-12.514 5.447-23.825 10.32.886.874 1.62 1.922 2.077 3.164 1.31 3.552.16 7.398-2.58 9.716L89.47 80.008zm-1.736-1.725c4.057-1.726 8.7-3.636 8.7-3.636-2.903-6.96-10.538-7.87-17.753-5.357l9.053 8.993zm-20.52-1.293c-.875 1.026-1.633 2.112-2.246 3.243-5.397 9.95-7.795 15.156-7.8 15.166-.57 1.09-.824 2.17-.952 3.39-.093.87-.918 10.82 4.202 23.1 3.046 7.3 6.642 12.02 9.32 14.85-5.412-.18-10.498-4.79-13.906-12.97-4.856-11.646-4.954-22.405-4.954-22.405s-.233-.02-.36-.02c-1.786.005-3.846.94-3.915 3.053-.018.497-.58 8.71 4.65 21.25 2.664 6.39 6.353 11.073 10.67 13.545 3.558 2.04 8.015 2.35 11.97 1.243 2.48 1.823 5.64 1.835 8.704 1.123 1.87-.437 3.86-.975 5.91-1.58 4.68-1.32 11.42-3.5 19.89-6.987 1.95-.802 6.74-2.832 10.68-4.516L67.21 76.99zm91.754 70.995c24.3-29.46 22.607-73.002-5.075-100.5-27.683-27.5-71.515-29.18-101.17-5.043l3.777 3.754c27.275-21.81 67.284-20.136 92.606 5.018 25.322 25.154 27.006 64.898 5.052 91.993l4.81 4.778zm-115.95-96.09C17.7 81.36 19.066 125.69 47.112 153.55c28.048 27.86 72.672 29.22 102.335 4.075l-4.8-4.77c-27.29 22.81-68.092 21.457-93.778-4.06-25.69-25.517-27.05-66.047-4.09-93.156l-3.77-3.75z" fill-rule="evenodd"/>
</svg>
