<svg viewBox="0 0 200 200" xmlns="http://www.w3.org/2000/svg">
  <path d="M89 79.5l20-8.2c4.4-2 9.6.2 11.5 4.7 1.3 3.3 1.2 7.5-1.5 8.6-1.6.7-1.6 1.6-1.2 2.4 0 .3.2.4.4.5L143 77.3c4-1.6 8.7.3 10.3 4.3 1.7 4-.3 8.4-4.2 10.2L126 102c1 1 1.7 2 2 3.3 1.4 3.6.3 7.4-2.5 9.7L89 79.5zm-1.8-1.7L96 74c-3-6.7-10.7-7.6-18-5l9 9zm-20.5-1.3c-1 1-1.6 2-2.2 3.2C59 89.7 56.7 95 56.7 95c-.6 1-1 2-1 3.3 0 1-1 10.8 4.2 23 3 7.4 6 12 9 15-6-.2-11-5-14-13-5-11.7-5-22.3-5-22.3l-1-.4c-2 0-4 1-4 3 0 .6-.8 8.8 4.4 21.3 2.7 6 6.4 11 10.7 13 3.7 2 8 2 12 1 2.6 1.6 5.7 1.6 8.8 1l6-1.7c4.7-1.3 11.4-3.5 20-7l10.6-4.5L66 76zm91.8 71c24.3-29.5 22.6-73-5-100.5-28-27.5-71.7-29.2-101.5-5l3.8 3.7C83 24 123 25.5 148.4 50.7c25.3 25.2 27 65 5 92l5 4.8zm-116-96c-25.3 29.3-24 73.7 4 101.5 28.2 28 72.8 29.3 102.4 4l-5-4.7c-27 22.8-68 21.5-94-4s-27-66-4-93.2l-4-3z" fill-rule="evenodd"/>
</svg>
