<svg viewBox="0 0 200 200" xmlns="http://www.w3.org/2000/svg">
  <g fill="none" fill-rule="evenodd">
    <circle fill="#F1F1F1" transform="rotate(-90 100 100)" cx="100" cy="100" r="100"/>
    <path d="M76.296 112.798H73.3V87.202h2.996v25.596zm-9.2 0H65V87.202h2.097v25.596z" fill="#000"/>
    <path d="M85.923 112.798h-4.707V87.202h4.707v25.596z" fill="#E6162D"/>
    <path d="M95.593 112.798H89.09V87.202h6.503v25.596z" fill="#3F5D87"/>
    <path d="M135 100c-4.935 2.51-9.164 5.607-12.686 9.288-3.523 3.68-6.326 7.918-8.408 12.712h-.728v-9.202H97.775V87.202h15.403V78h.728c2.11 4.85 4.928 9.11 8.45 12.776 3.523 3.667 7.738 6.74 12.644 9.224z" fill="#2AA9E0"/>
  </g>
</svg>
