<svg viewBox="0 0 26 26" xmlns="http://www.w3.org/2000/svg">
  <path d="M20 20c2-1.8 3-4.3 3-7s-1-5.2-3-7c-1.8-2-4.3-3-7-3S7.8 4 6 6c-2 1.8-3 4.3-3 7s1 5.2 3 7c1.8 2 4.3 3 7 3s5.2-1 7-3zM19.3 7c1.2 1.2 2 2.8 2.4 4.4-.3-.3-.5-.5-.7.4-.3 1.4-1.6.5-2.4 1-.8-.6-2.8 1-2.4-.8.5-1 2.7 1.2 1.6-.7-.7-1.2-2.6-4-2.4-5.5 0-2-2-.4-3 .3-.4 1.4 0 4-1.4 4.6-1.5 0-2.7.2-3.3 1.8-.4 1.2.3 3 1.6 3.2 1.8 1.2 2.5-1.3 4.2-1.4.5.6 2 .8 2 1.4-1 .2 1.5 1 0 1.4-.8 0-1.4-1-1-1.6-1.6-.4-1.6 2.4-3.2 1.5 0-1.4-2.6-.4-1 0 .7 0-.8 1 0 .7.4 0 1.8.5 1.4.8.8.5 1.4-1 2.2 0 .4 1-.4 1.2-1 .7-.4.3.6 1.2 1.6 1.6.3.2.6.3.8.2.5-.5 1.3-.6 1.4 0-1.2.7-2.5 1-3.8 1-2 0-3.7-.7-5.2-1.8.4-.2.6-.4.2-.7-.3-1-1.5-2-2.6-2-.5-1-1-2-1-3 .8-.4 1-1 1-1-.6-.5-1-1-1-1.7.3-1.8 1-3.5 2.4-4.8 1.7-1.6 4-2.5 6.2-2.5s4.5 1 6.2 2.5z"/>
</svg>
