<svg viewBox="0 0 61 61" xmlns="http://www.w3.org/2000/svg">
  <path d="M36.46 37.243V32.5 25.346H24.564V37.244H36.46zm0 5.876v8.874c0 1.1.9 2.006 2.01 2.006h-.495c1.12 0 2.16-.877 2.344-1.96l1.26-9.593 10.188-1.338c1.09-.19 1.97-1.244 1.97-2.353v.494c0-1.118-.898-2.007-2.007-2.007h-9.466l.624-4.743c.05-1.108.04-2.887.006-3.982l-.417-3.173h9.256c1.1 0 2.006-.9 2.006-2.008v.493c0-1.12-.878-2.158-1.96-2.343l-9.982-1.312-1.47-11.204C40.137 7.88 39.084 7 37.974 7h.494c-1.12 0-2.01.9-2.01 2.008v10.465l-4.22-.555c-1.11-.05-2.888-.04-3.983-.006l-3.694.485V9.007C24.563 7.9 23.673 7 22.555 7h.494c-1.11 0-2.165.88-2.353 1.97l-1.46 11.127-10.527 1.38c-1.09.19-1.97 1.244-1.97 2.353v-.493c0 1.12.898 2.008 2.007 2.008h9.8l-.417 3.173c-.033 1.095-.045 2.874.006 3.982l.624 4.743H8.744c-1.1 0-2.005.9-2.005 2.008v-.493c0 1.12.876 2.158 1.958 2.343l10.755 1.415 1.252 9.526C20.89 53.124 21.93 54 23.05 54h-.495c1.11 0 2.008-.905 2.008-2.006v-8.807l3.676.483c1.107.05 2.886.04 3.98.005l4.24-.556z" fill-rule="evenodd"/>
</svg>
