<svg viewBox="0 0 61 61" xmlns="http://www.w3.org/2000/svg">
  <path d="M36.46 37.243V25.346H24.564v11.898H36.46zm0 5.876v8.873c0 1.1.9 2.006 2.01 2.006h-.495c1.12 0 2.16-.878 2.344-1.96l1.26-9.594 10.187-1.338c1.09-.19 1.97-1.244 1.97-2.353v.494c0-1.12-.898-2.008-2.007-2.008h-9.466l.624-4.743c.05-1.11.04-2.888.006-3.983l-.417-3.173h9.256c1.1 0 2.006-.9 2.006-2.008v.493c0-1.12-.88-2.16-1.96-2.344l-9.983-1.312-1.47-11.204C40.137 7.88 39.084 7 37.974 7h.494c-1.12 0-2.01.9-2.01 2.008v10.465l-4.22-.555c-1.11-.05-2.888-.04-3.983-.006l-3.694.485V9.007C24.564 7.9 23.674 7 22.556 7h.494c-1.11 0-2.166.88-2.354 1.97l-1.46 11.127-10.527 1.38c-1.09.19-1.97 1.244-1.97 2.353v-.493c0 1.12.897 2.008 2.006 2.008h9.8l-.417 3.173c-.034 1.095-.046 2.874.005 3.982l.624 4.743H8.743c-1.1 0-2.005.9-2.005 2.008v-.492c0 1.12.875 2.158 1.957 2.343l10.755 1.416 1.252 9.526C20.89 53.124 21.93 54 23.05 54h-.495c1.11 0 2.008-.905 2.008-2.006v-8.807l3.676.483c1.106.05 2.885.04 3.98.005l4.24-.556z" fill-rule="evenodd"/>
</svg>
