<svg viewBox="0 0 60 60" xmlns="http://www.w3.org/2000/svg">
    <path d="M57 6s-.43 3-4.483 5.674c-3.272 2.183-6.46 3.202-8.896 5.428 2.115.376 6.016-.086 9.04-1.243-.637 1.272-1.165 2.147-2.203 3.253-3.097 3.202-6.034 4.135-10.76 4.966-2.703.491-4.623 2.429-4.623 2.429 2.766.456 5.552.268 8.394-.382-1.649 4.612-10.442 6.766-14.403 6.751l-.066.051c-5.372.224-10.784 4.669-15.584 10.481-2.33 2.826-4.146 4.894-5.477 6.433-2.044 2.45-4.03 4.438-4.652 4.127-.622-.311-.292-2.501 1.57-5.913 1.011-1.872 5.706-9.752 13.023-17.956 9.426-10.706 22.891-22.502 39.12-24.099z"/>
</svg>