<svg viewBox="0 0 775 300" xmlns="http://www.w3.org/2000/svg">
  <path d="M30.418 110.18v41.32c0 7.322 1.278 12.524 3.832 15.605 2.555 3.082 6.808 4.622 12.76 4.622s10.22-1.554 12.8-4.66c2.58-3.11 3.87-8.297 3.87-15.566v-41.32h-1.263c-2.79 0-4.912-.738-6.36-2.213-1.45-1.475-2.173-3.635-2.173-6.48 0-3.107.75-5.345 2.252-6.715 1.5-1.37 4.016-2.054 7.545-2.054h19.754c3.58 0 6.123.685 7.624 2.054 1.5 1.37 2.252 3.608 2.252 6.716 0 2.844-.725 5.004-2.173 6.48-1.45 1.474-3.57 2.21-6.36 2.21h-1.343v41.007c0 13.273-2.858 22.873-8.573 28.8-5.714 5.924-14.918 8.887-27.613 8.887-13.273 0-22.794-2.91-28.56-8.73-5.77-5.82-8.653-15.473-8.653-28.957V110.18H8.69c-2.843 0-5.003-.738-6.478-2.213C.737 106.492 0 104.332 0 101.487c0-3.107.777-5.345 2.33-6.715 1.555-1.37 4.122-2.054 7.704-2.054h20.384c3.53 0 6.084.685 7.664 2.054 1.58 1.37 2.37 3.608 2.37 6.716 0 2.844-.75 5.004-2.25 6.48-1.502 1.474-3.675 2.21-6.52 2.21H30.42zM176.98 168.96h1.027c2.95 0 5.162.724 6.637 2.173 1.475 1.448 2.212 3.62 2.212 6.518 0 3.108-.75 5.346-2.25 6.716-1.502 1.368-4.044 2.053-7.626 2.053h-19.436c-3.53 0-6.07-.685-7.624-2.054-1.554-1.37-2.33-3.61-2.33-6.717 0-2.897.75-5.07 2.25-6.518 1.502-1.45 3.754-2.173 6.756-2.173h.948v-22.834c0-6.32-.882-10.81-2.647-13.47-1.764-2.66-4.7-3.99-8.81-3.99-4.37 0-7.94 1.593-10.705 4.78-2.765 3.186-4.148 7.413-4.148 12.68v22.834h.948c3.003 0 5.24.724 6.716 2.173 1.475 1.448 2.212 3.62 2.212 6.518 0 3.108-.764 5.346-2.29 6.716-1.53 1.368-4.057 2.053-7.586 2.053H111.64c-3.53 0-6.058-.685-7.585-2.054-1.528-1.37-2.29-3.61-2.29-6.717 0-2.897.736-5.07 2.21-6.518 1.476-1.45 3.714-2.173 6.717-2.173h.948v-38.24h-1.343c-2.845 0-5.004-.725-6.48-2.173-1.474-1.45-2.21-3.57-2.21-6.362 0-3.107.762-5.346 2.29-6.715 1.527-1.37 4.108-2.055 7.743-2.055h13.43c1.476 0 2.595.29 3.36.87.763.58 1.145 1.422 1.145 2.528v6.163c2.423-3.794 5.517-6.65 9.283-8.574 3.767-1.922 8.125-2.884 13.076-2.884 8.428 0 14.71 2.555 18.844 7.664 4.135 5.11 6.202 12.905 6.202 23.387v26.39zm43.06 16.355c-1.37 1.053-2.778 1.856-4.227 2.41-1.448.553-2.936.83-4.464.83-2.266 0-3.86-.607-4.78-1.818-.923-1.213-1.383-3.477-1.383-6.796v-10.508c0-3.476.58-5.94 1.738-7.387 1.16-1.45 3.16-2.174 6.004-2.174 3.107 0 5.635 1.5 7.584 4.503 1.16 1.632 2.134 2.844 2.924 3.634 2.58 2.317 5.583 4.056 9.007 5.214 3.423 1.16 7.32 1.74 11.693 1.74 3.792 0 6.82-.74 9.086-2.214 2.265-1.475 3.397-3.397 3.397-5.767 0-4.267-6.082-7.217-18.25-8.85-2.686-.315-4.793-.605-6.32-.868-9.165-1.266-15.986-3.754-20.464-7.468-4.477-3.713-6.715-8.704-6.715-14.972 0-7.427 2.687-13.168 8.06-17.224 5.372-4.056 13.036-6.084 22.99-6.084 3.425 0 6.94.277 10.55.83 3.607.553 7.307 1.41 11.1 2.568 1.106-1.317 2.278-2.292 3.515-2.924 1.238-.632 2.62-.948 4.148-.948 2.16 0 3.806.672 4.94 2.015 1.13 1.343 1.697 3.358 1.697 6.044v9.718c0 2.265-.58 4.017-1.738 5.254-1.16 1.237-2.792 1.856-4.9 1.856-2.158 0-5.858-1.883-11.1-5.65-5.24-3.765-10.494-5.648-15.762-5.648-4.108 0-7.295.67-9.56 2.015-2.265 1.343-3.397 3.2-3.397 5.57 0 3.687 4.74 6.162 14.222 7.427 2.74.316 4.898.58 6.478.79 11.904 1.738 20.082 4.332 24.533 7.782 4.45 3.45 6.676 8.572 6.676 15.367 0 7.953-2.937 14.102-8.81 18.448-5.873 4.345-14.208 6.518-25.006 6.518-4.214 0-8.27-.276-12.167-.83-3.9-.553-7.665-1.356-11.3-2.41zm102.95-6.32v21.49h10.033c3.582 0 6.15.684 7.704 2.054 1.553 1.37 2.33 3.61 2.33 6.716 0 3.056-.763 5.24-2.29 6.558-1.528 1.317-4.11 1.975-7.744 1.975h-33.5c-3.634 0-6.19-.646-7.663-1.936-1.475-1.29-2.213-3.49-2.213-6.598 0-3.107.75-5.346 2.252-6.715 1.5-1.37 4.042-2.054 7.623-2.054h4.662V130.72h-1.264c-2.79 0-4.924-.736-6.4-2.21-1.474-1.476-2.21-3.635-2.21-6.48 0-3.107.736-5.32 2.21-6.636 1.476-1.317 4.03-1.976 7.665-1.976h12.167c1.528 0 2.66.277 3.398.83.737.553 1.106 1.356 1.106 2.41v5.69c2.686-3.583 5.94-6.283 9.757-8.1 3.82-1.817 8.125-2.726 12.918-2.726 10.8 0 19.754 3.45 26.865 10.35 7.11 6.9 10.666 15.592 10.666 26.073 0 10.956-3.45 20.03-10.35 27.22-6.9 7.19-15.59 10.784-26.072 10.784-4.267 0-8.257-.594-11.97-1.78-3.714-1.184-6.94-2.91-9.68-5.174zm18.25-50.646c-5.214 0-9.507 1.924-12.878 5.77-3.37 3.844-5.057 8.77-5.057 14.774s1.686 10.93 5.057 14.774c3.37 3.845 7.664 5.768 12.878 5.768 5.215 0 9.52-1.936 12.918-5.807 3.398-3.873 5.096-8.784 5.096-14.736 0-6.005-1.685-10.93-5.056-14.775-3.37-3.846-7.69-5.77-12.958-5.77zm103.58 40.77h16.988c3.634 0 6.19.658 7.664 1.975 1.475 1.317 2.212 3.503 2.212 6.558 0 3.108-.75 5.346-2.252 6.716-1.5 1.368-4.042 2.053-7.624 2.053H408.24c-3.53 0-6.044-.685-7.545-2.054-1.502-1.37-2.252-3.61-2.252-6.717 0-3.108.724-5.307 2.173-6.597 1.448-1.29 3.99-1.936 7.624-1.936h16.987v-68.58h-8.69c-3.583 0-6.15-.698-7.705-2.094-1.553-1.396-2.33-3.62-2.33-6.676 0-3.108.763-5.346 2.29-6.716 1.528-1.37 4.11-2.054 7.744-2.054h23.624c1.474 0 2.62.303 3.436.91.817.604 1.225 1.434 1.225 2.487v82.723zm119.62 0h1.265c2.844 0 5.017.75 6.518 2.252 1.5 1.5 2.252 3.647 2.252 6.44 0 3.054-.777 5.253-2.33 6.596-1.555 1.343-4.122 2.015-7.704 2.015h-7.426c-2.634 0-4.596-.5-5.886-1.5-1.29-1.002-2.357-2.82-3.2-5.453-4.372 2.897-9.007 5.11-13.906 6.637-4.898 1.527-9.85 2.29-14.853 2.29-8.482 0-15.145-2.106-19.99-6.32-4.847-4.213-7.27-9.98-7.27-17.303 0-7.9 3.134-14.037 9.403-18.41 6.268-4.37 15.064-6.556 26.39-6.556 2.527 0 5.213.13 8.058.395 2.845.263 6.032.684 9.56 1.264v-1.5c0-4.742-1.145-8.35-3.436-10.826-2.292-2.474-5.676-3.712-10.153-3.712-3.475 0-7.913 1.29-13.312 3.87-5.4 2.582-9.363 3.873-11.89 3.873-2.476 0-4.478-.723-6.006-2.172-1.527-1.448-2.29-3.358-2.29-5.728 0-4.267 3.12-7.65 9.362-10.153 6.242-2.502 14.735-3.753 25.48-3.753 11.22 0 19.252 2.16 24.098 6.48 4.846 4.318 7.27 11.64 7.27 21.964v29.312zm-19.12-15.25c-2.633-.578-5.056-1.013-7.268-1.303-2.212-.29-4.267-.434-6.163-.434-5.795 0-10.338.974-13.63 2.923-3.292 1.95-4.938 4.635-4.938 8.06 0 3.054 1.053 5.385 3.16 6.992 2.107 1.606 5.136 2.41 9.086 2.41 3.635 0 7.058-.527 10.272-1.58 3.213-1.054 6.373-2.687 9.48-4.9v-12.167zm63.13 31.447c-1.37 1.053-2.78 1.856-4.228 2.41-1.45.553-2.937.83-4.464.83-2.265 0-3.858-.607-4.78-1.818-.922-1.213-1.383-3.477-1.383-6.796v-10.508c0-3.476.58-5.94 1.738-7.387 1.16-1.45 3.16-2.174 6.005-2.174 3.108 0 5.636 1.5 7.585 4.503 1.16 1.632 2.133 2.844 2.923 3.634 2.58 2.317 5.584 4.056 9.007 5.214 3.424 1.16 7.322 1.74 11.694 1.74 3.792 0 6.82-.74 9.086-2.214 2.265-1.475 3.397-3.397 3.397-5.767 0-4.267-6.084-7.217-18.25-8.85-2.687-.315-4.794-.605-6.322-.868-9.165-1.266-15.986-3.754-20.463-7.468-4.477-3.713-6.716-8.704-6.716-14.972 0-7.427 2.685-13.168 8.058-17.224 5.373-4.056 13.037-6.084 22.992-6.084 3.423 0 6.94.277 10.547.83 3.61.553 7.31 1.41 11.1 2.568 1.107-1.317 2.28-2.292 3.517-2.924 1.238-.632 2.62-.948 4.148-.948 2.16 0 3.806.672 4.938 2.015 1.133 1.343 1.7 3.358 1.7 6.044v9.718c0 2.265-.58 4.017-1.74 5.254-1.158 1.237-2.79 1.856-4.898 1.856-2.16 0-5.86-1.883-11.1-5.65-5.242-3.765-10.496-5.648-15.763-5.648-4.11 0-7.296.67-9.56 2.015-2.266 1.343-3.4 3.2-3.4 5.57 0 3.687 4.742 6.162 14.223 7.427 2.74.316 4.9.58 6.48.79 11.903 1.738 20.08 4.332 24.53 7.782 4.452 3.45 6.677 8.572 6.677 15.367 0 7.953-2.936 14.102-8.81 18.448-5.872 4.345-14.207 6.518-25.005 6.518-4.214 0-8.27-.276-12.168-.83-3.898-.553-7.664-1.356-11.298-2.41zm105.24-63.92c1.843-3.212 4.45-5.66 7.82-7.346 3.372-1.685 7.4-2.528 12.09-2.528 8.322 0 14.734 2.423 19.238 7.27 4.503 4.845 6.755 11.798 6.755 20.858v29.47h1.343c2.792 0 4.912.724 6.36 2.173 1.45 1.448 2.173 3.568 2.173 6.36 0 3.108-.75 5.346-2.252 6.716-1.502 1.368-4.043 2.053-7.625 2.053H740c-3.53 0-6.045-.685-7.546-2.054-1.502-1.37-2.252-3.61-2.252-6.717 0-2.844.71-4.978 2.133-6.4 1.422-1.422 3.555-2.133 6.4-2.133H740v-22.992c0-6.742-.83-11.417-2.49-14.024-1.66-2.607-4.49-3.91-8.493-3.91-4.214 0-7.822 1.698-10.825 5.095-3.002 3.397-4.503 7.676-4.503 12.838v22.992h1.263c2.844 0 4.99.724 6.44 2.173 1.448 1.448 2.172 3.568 2.172 6.36 0 3.108-.764 5.346-2.29 6.716-1.53 1.368-4.057 2.053-7.586 2.053h-19.595c-3.635 0-6.19-.672-7.664-2.015-1.474-1.343-2.21-3.595-2.21-6.755 0-2.792.723-4.912 2.17-6.36 1.45-1.45 3.57-2.173 6.362-2.173h1.343v-68.58h-1.343c-2.792 0-4.94-.75-6.44-2.252-1.5-1.5-2.25-3.674-2.25-6.518 0-3.108.762-5.346 2.29-6.716 1.527-1.37 4.108-2.054 7.743-2.054h14.853c1.79 0 3.03.37 3.714 1.106.685.738 1.027 2.107 1.027 4.11v33.182z" fill="#FFF" fill-rule="evenodd"/>
</svg>
