<svg viewBox="0 0 100 117" xmlns="http://www.w3.org/2000/svg">
  <path d="M66.292 19.714C85.908 26.472 100 45.09 100 67c0 27.614-22.386 50-50 50S0 94.614 0 67c0-21.91 14.093-40.528 33.708-47.286l7.546-12.897c4.83-8.252 12.662-8.255 17.492 0l7.546 12.897zM50 71.418c10.162 0 18.4-8.13 18.4-18.155 0-10.027-8.238-18.155-18.4-18.155-10.162 0-18.4 8.128-18.4 18.155 0 10.026 8.238 18.155 18.4 18.155zm-4.29 24.437c2.37 4.05 6.212 4.05 8.58 0l7.353-12.565c2.37-4.05.447-7.334-4.29-7.334H42.647c-4.74 0-6.66 3.285-4.29 7.334l7.35 12.565z" fill="#3F5D87" fill-rule="evenodd"/>
</svg>
